Decovar-Regular24bldB.ufo
<glyph name="L" format="1">
  <advance width="830"/>
  <unicode hex="004C"/>
  <outline>
    <contour>
      <point x="496" y="0" type="qcurve" smooth="yes"/>
      <point x="328" y="0"/>
      <point x="328" y="0"/>
      <point x="328" y="38" type="qcurve" smooth="yes"/>
      <point x="328" y="76"/>
      <point x="328" y="76"/>
      <point x="500" y="76" type="qcurve" smooth="yes"/>
      <point x="590" y="76"/>
      <point x="656" y="11"/>
      <point x="656" y="-47" type="qcurve" smooth="yes"/>
      <point x="656" y="-83"/>
      <point x="656" y="-83"/>
      <point x="615" y="-83" type="qcurve" smooth="yes"/>
      <point x="574" y="-83"/>
      <point x="574" y="-83"/>
      <point x="574" y="-47" type="qcurve" smooth="yes"/>
      <point x="574" y="-18"/>
      <point x="544" y="0"/>
    </contour>
    <contour>
      <point x="328" y="200" type="qcurve" smooth="yes"/>
      <point x="328" y="235"/>
      <point x="328" y="235"/>
      <point x="369" y="235" type="qcurve" smooth="yes"/>
      <point x="410" y="235"/>
      <point x="410" y="235"/>
      <point x="410" y="200" type="qcurve" smooth="yes"/>
      <point x="410" y="171"/>
      <point x="443" y="152"/>
      <point x="480" y="152" type="qcurve" smooth="yes"/>
      <point x="656" y="152"/>
      <point x="656" y="152"/>
      <point x="656" y="114" type="qcurve" smooth="yes"/>
      <point x="656" y="76"/>
      <point x="656" y="76"/>
      <point x="456" y="76" type="qcurve" smooth="yes"/>
      <point x="385" y="76"/>
      <point x="328" y="135"/>
    </contour>
    <contour>
      <point x="205" y="-79" type="qcurve" smooth="yes"/>
      <point x="164" y="-79"/>
      <point x="164" y="-79"/>
      <point x="164" y="-2" type="qcurve" smooth="yes"/>
      <point x="164" y="76"/>
      <point x="164" y="76"/>
      <point x="171" y="76" type="qcurve" smooth="yes"/>
      <point x="210" y="76"/>
      <point x="246" y="40"/>
      <point x="246" y="-2" type="qcurve" smooth="yes"/>
      <point x="246" y="-79"/>
      <point x="246" y="-79"/>
    </contour>
    <contour>
      <point x="171" y="76" type="qcurve" smooth="yes"/>
      <point x="164" y="76"/>
      <point x="164" y="76"/>
      <point x="164" y="114" type="qcurve" smooth="yes"/>
      <point x="164" y="152"/>
      <point x="164" y="152"/>
      <point x="205" y="152" type="qcurve" smooth="yes"/>
      <point x="246" y="152"/>
      <point x="246" y="152"/>
      <point x="246" y="145" type="qcurve" smooth="yes"/>
      <point x="246" y="108"/>
      <point x="214" y="76"/>
    </contour>
    <contour>
      <point x="287" y="0" type="qcurve" smooth="yes"/>
      <point x="246" y="0"/>
      <point x="246" y="0"/>
      <point x="246" y="4" type="qcurve" smooth="yes"/>
      <point x="246" y="43"/>
      <point x="279" y="76"/>
      <point x="322" y="76" type="qcurve" smooth="yes"/>
      <point x="328" y="76"/>
      <point x="328" y="76"/>
      <point x="328" y="38" type="qcurve" smooth="yes"/>
      <point x="328" y="0"/>
      <point x="328" y="0"/>
    </contour>
    <contour>
      <point x="322" y="76" type="qcurve" smooth="yes"/>
      <point x="280" y="76"/>
      <point x="246" y="110"/>
      <point x="246" y="145" type="qcurve" smooth="yes"/>
      <point x="246" y="152"/>
      <point x="246" y="152"/>
      <point x="287" y="152" type="qcurve" smooth="yes"/>
      <point x="328" y="152"/>
      <point x="328" y="152"/>
      <point x="328" y="114" type="qcurve" smooth="yes"/>
      <point x="328" y="76"/>
      <point x="328" y="76"/>
    </contour>
    <contour>
      <point x="164" y="1216" type="qcurve" smooth="yes"/>
      <point x="82" y="1216"/>
      <point x="82" y="1216"/>
      <point x="82" y="1254" type="qcurve" smooth="yes"/>
      <point x="82" y="1292"/>
      <point x="82" y="1292"/>
      <point x="164" y="1292" type="qcurve" smooth="yes"/>
      <point x="202" y="1292"/>
      <point x="246" y="1257"/>
      <point x="246" y="1220" type="qcurve" smooth="yes"/>
      <point x="246" y="1216"/>
      <point x="246" y="1216"/>
    </contour>
    <contour>
      <point x="168" y="1292" type="qcurve" smooth="yes"/>
      <point x="164" y="1292"/>
      <point x="164" y="1292"/>
      <point x="164" y="1330" type="qcurve" smooth="yes"/>
      <point x="164" y="1368"/>
      <point x="164" y="1368"/>
      <point x="205" y="1368" type="qcurve" smooth="yes"/>
      <point x="246" y="1368"/>
      <point x="246" y="1368"/>
      <point x="246" y="1365" type="qcurve" smooth="yes"/>
      <point x="246" y="1319"/>
      <point x="203" y="1292"/>
    </contour>
    <contour>
      <point x="287" y="1216" type="qcurve" smooth="yes"/>
      <point x="246" y="1216"/>
      <point x="246" y="1216"/>
      <point x="246" y="1220" type="qcurve" smooth="yes"/>
      <point x="246" y="1249"/>
      <point x="290" y="1292"/>
      <point x="325" y="1292" type="qcurve" smooth="yes"/>
      <point x="328" y="1292"/>
      <point x="328" y="1292"/>
      <point x="328" y="1254" type="qcurve" smooth="yes"/>
      <point x="328" y="1216"/>
      <point x="328" y="1216"/>
    </contour>
    <contour>
      <point x="325" y="1292" type="qcurve" smooth="yes"/>
      <point x="297" y="1292"/>
      <point x="246" y="1323"/>
      <point x="246" y="1368" type="qcurve" smooth="yes"/>
      <point x="246" y="1444"/>
      <point x="246" y="1444"/>
      <point x="287" y="1444" type="qcurve" smooth="yes"/>
      <point x="328" y="1444"/>
      <point x="328" y="1444"/>
      <point x="328" y="1368" type="qcurve" smooth="yes"/>
      <point x="328" y="1292"/>
      <point x="328" y="1292"/>
    </contour>
    <contour>
      <point x="78" y="801" type="qcurve" smooth="yes"/>
      <point x="78" y="842"/>
      <point x="78" y="842"/>
      <point x="116" y="842" type="qcurve" smooth="yes"/>
      <point x="154" y="842"/>
      <point x="164" y="917"/>
      <point x="164" y="988" type="qcurve" smooth="yes"/>
      <point x="164" y="1103"/>
      <point x="164" y="1140"/>
      <point x="164" y="1178" type="qcurve" smooth="yes"/>
      <point x="164" y="1216"/>
      <point x="164" y="1216"/>
      <point x="205" y="1216" type="qcurve" smooth="yes"/>
      <point x="246" y="1216"/>
      <point x="246" y="1216"/>
      <point x="246" y="1168" type="qcurve" smooth="yes"/>
      <point x="246" y="1127"/>
      <point x="246" y="971"/>
      <point x="246" y="933" type="qcurve" smooth="yes"/>
      <point x="246" y="843"/>
      <point x="177" y="760"/>
      <point x="116" y="760" type="qcurve" smooth="yes"/>
      <point x="78" y="760"/>
      <point x="78" y="760"/>
    </contour>
    <contour>
      <point x="287" y="760" type="qcurve" smooth="yes"/>
      <point x="246" y="760"/>
      <point x="246" y="760"/>
      <point x="246" y="798" type="qcurve" smooth="yes"/>
      <point x="246" y="836"/>
      <point x="246" y="1040"/>
      <point x="246" y="1071" type="qcurve" smooth="yes"/>
      <point x="246" y="1136"/>
      <point x="296" y="1216"/>
      <point x="377" y="1216" type="qcurve" smooth="yes"/>
      <point x="415" y="1216"/>
      <point x="415" y="1216"/>
      <point x="415" y="1175" type="qcurve" smooth="yes"/>
      <point x="415" y="1134"/>
      <point x="415" y="1134"/>
      <point x="377" y="1134" type="qcurve" smooth="yes"/>
      <point x="339" y="1134"/>
      <point x="328" y="1086"/>
      <point x="328" y="1005" type="qcurve" smooth="yes"/>
      <point x="328" y="890"/>
      <point x="328" y="836"/>
      <point x="328" y="798" type="qcurve" smooth="yes"/>
      <point x="328" y="760"/>
      <point x="328" y="760"/>
    </contour>
    <contour>
      <point x="78" y="193" type="qcurve" smooth="yes"/>
      <point x="78" y="234"/>
      <point x="78" y="234"/>
      <point x="116" y="234" type="qcurve" smooth="yes"/>
      <point x="154" y="234"/>
      <point x="164" y="309"/>
      <point x="164" y="380" type="qcurve" smooth="yes"/>
      <point x="164" y="495"/>
      <point x="164" y="532"/>
      <point x="164" y="570" type="qcurve" smooth="yes"/>
      <point x="164" y="608"/>
      <point x="164" y="608"/>
      <point x="205" y="608" type="qcurve" smooth="yes"/>
      <point x="247" y="608"/>
      <point x="246" y="608"/>
      <point x="246" y="560" type="qcurve" smooth="yes"/>
      <point x="246" y="519"/>
      <point x="246" y="363"/>
      <point x="246" y="325" type="qcurve" smooth="yes"/>
      <point x="246" y="235"/>
      <point x="177" y="152"/>
      <point x="116" y="152" type="qcurve" smooth="yes"/>
      <point x="78" y="152"/>
      <point x="78" y="152"/>
    </contour>
    <contour>
      <point x="287" y="152" type="qcurve" smooth="yes"/>
      <point x="246" y="152"/>
      <point x="246" y="152"/>
      <point x="246" y="190" type="qcurve" smooth="yes"/>
      <point x="246" y="228"/>
      <point x="246" y="432"/>
      <point x="246" y="463" type="qcurve" smooth="yes"/>
      <point x="246" y="528"/>
      <point x="296" y="608"/>
      <point x="377" y="608" type="qcurve" smooth="yes"/>
      <point x="415" y="608"/>
      <point x="415" y="608"/>
      <point x="415" y="567" type="qcurve" smooth="yes"/>
      <point x="415" y="526"/>
      <point x="415" y="526"/>
      <point x="377" y="526" type="qcurve" smooth="yes"/>
      <point x="339" y="526"/>
      <point x="328" y="478"/>
      <point x="328" y="397" type="qcurve" smooth="yes"/>
      <point x="328" y="282"/>
      <point x="328" y="228"/>
      <point x="328" y="190" type="qcurve" smooth="yes"/>
      <point x="328" y="152"/>
      <point x="328" y="152"/>
    </contour>
    <contour>
      <point x="162" y="608" type="qcurve" smooth="yes"/>
      <point x="109" y="608"/>
      <point x="109" y="608"/>
      <point x="109" y="646" type="qcurve" smooth="yes"/>
      <point x="109" y="684"/>
      <point x="109" y="684"/>
      <point x="174" y="684" type="qcurve"/>
      <point x="186" y="685"/>
      <point x="246" y="640"/>
      <point x="246" y="613" type="qcurve" smooth="yes"/>
      <point x="246" y="608"/>
      <point x="246" y="608"/>
    </contour>
    <contour>
      <point x="174" y="684" type="qcurve"/>
      <point x="164" y="684"/>
      <point x="164" y="684"/>
      <point x="164" y="722" type="qcurve" smooth="yes"/>
      <point x="164" y="745"/>
      <point x="182" y="760"/>
      <point x="205" y="760" type="qcurve" smooth="yes"/>
      <point x="246" y="760"/>
      <point x="246" y="760"/>
      <point x="246" y="755" type="qcurve" smooth="yes"/>
      <point x="246" y="728"/>
      <point x="186" y="685"/>
    </contour>
    <contour>
      <point x="287" y="608" type="qcurve" smooth="yes"/>
      <point x="246" y="608"/>
      <point x="246" y="608"/>
      <point x="246" y="613" type="qcurve" smooth="yes"/>
      <point x="246" y="640"/>
      <point x="306" y="685"/>
      <point x="323" y="684" type="qcurve"/>
      <point x="328" y="684"/>
      <point x="328" y="684"/>
      <point x="328" y="646" type="qcurve" smooth="yes"/>
      <point x="328" y="625"/>
      <point x="312" y="608"/>
    </contour>
    <contour>
      <point x="323" y="684" type="qcurve"/>
      <point x="306" y="685"/>
      <point x="246" y="728"/>
      <point x="246" y="755" type="qcurve" smooth="yes"/>
      <point x="246" y="760"/>
      <point x="246" y="760"/>
      <point x="286" y="760" type="qcurve" smooth="yes"/>
      <point x="342" y="760"/>
      <point x="342" y="760"/>
      <point x="342" y="722" type="qcurve" smooth="yes"/>
      <point x="342" y="684"/>
      <point x="342" y="684"/>
    </contour>
    <contour>
      <point x="697" y="0" type="qcurve" smooth="yes"/>
      <point x="656" y="0"/>
      <point x="656" y="0"/>
      <point x="656" y="38" type="qcurve" smooth="yes"/>
      <point x="656" y="76"/>
      <point x="656" y="76"/>
      <point x="660" y="76" type="qcurve" smooth="yes"/>
      <point x="692" y="76"/>
      <point x="738" y="47"/>
      <point x="738" y="4" type="qcurve" smooth="yes"/>
      <point x="738" y="0"/>
      <point x="738" y="0"/>
    </contour>
    <contour>
      <point x="660" y="76" type="qcurve" smooth="yes"/>
      <point x="656" y="76"/>
      <point x="656" y="76"/>
      <point x="656" y="152" type="qcurve" smooth="yes"/>
      <point x="656" y="229"/>
      <point x="656" y="229"/>
      <point x="697" y="229" type="qcurve" smooth="yes"/>
      <point x="738" y="229"/>
      <point x="738" y="229"/>
      <point x="738" y="152" type="qcurve" smooth="yes"/>
      <point x="738" y="109"/>
      <point x="700" y="76"/>
    </contour>
    <contour>
      <point x="779" y="-76" type="qcurve" smooth="yes"/>
      <point x="738" y="-76"/>
      <point x="738" y="-76"/>
      <point x="738" y="0" type="qcurve" smooth="yes"/>
      <point x="738" y="26"/>
      <point x="771" y="76"/>
      <point x="817" y="76" type="qcurve" smooth="yes"/>
      <point x="820" y="76"/>
      <point x="820" y="76"/>
      <point x="820" y="0" type="qcurve" smooth="yes"/>
      <point x="820" y="-76"/>
      <point x="820" y="-76"/>
    </contour>
    <contour>
      <point x="817" y="76" type="qcurve" smooth="yes"/>
      <point x="790" y="76"/>
      <point x="738" y="102"/>
      <point x="738" y="148" type="qcurve" smooth="yes"/>
      <point x="738" y="152"/>
      <point x="738" y="152"/>
      <point x="779" y="152" type="qcurve" smooth="yes"/>
      <point x="820" y="152"/>
      <point x="820" y="152"/>
      <point x="820" y="114" type="qcurve" smooth="yes"/>
      <point x="820" y="76"/>
      <point x="820" y="76"/>
    </contour>
  </outline>
</glyph>
<glyph name="R" format="1">
  <advance width="994"/>
  <unicode hex="0052"/>
  <outline>
    <contour>
      <point x="78" y="193" type="qcurve" smooth="yes"/>
      <point x="78" y="234"/>
      <point x="78" y="234"/>
      <point x="116" y="234" type="qcurve" smooth="yes"/>
      <point x="154" y="234"/>
      <point x="164" y="309"/>
      <point x="164" y="380" type="qcurve" smooth="yes"/>
      <point x="164" y="383"/>
      <point x="164" y="386"/>
      <point x="164" y="424" type="qcurve" smooth="yes"/>
      <point x="164" y="462"/>
      <point x="164" y="462"/>
      <point x="205" y="462" type="qcurve" smooth="yes"/>
      <point x="246" y="462"/>
      <point x="246" y="462"/>
      <point x="246" y="424" type="qcurve" smooth="yes"/>
      <point x="246" y="386"/>
      <point x="246" y="368"/>
      <point x="246" y="325" type="qcurve" smooth="yes"/>
      <point x="246" y="235"/>
      <point x="177" y="152"/>
      <point x="116" y="152" type="qcurve" smooth="yes"/>
      <point x="78" y="152"/>
      <point x="78" y="152"/>
    </contour>
    <contour>
      <point x="78" y="655" type="qcurve" smooth="yes"/>
      <point x="78" y="696"/>
      <point x="78" y="696"/>
      <point x="116" y="696" type="qcurve" smooth="yes"/>
      <point x="154" y="696"/>
      <point x="164" y="771"/>
      <point x="164" y="842" type="qcurve" smooth="yes"/>
      <point x="164" y="1026"/>
      <point x="164" y="1140"/>
      <point x="164" y="1178" type="qcurve" smooth="yes"/>
      <point x="164" y="1216"/>
      <point x="164" y="1216"/>
      <point x="205" y="1216" type="qcurve" smooth="yes"/>
      <point x="246" y="1216"/>
      <point x="246" y="1216"/>
      <point x="246" y="1178" type="qcurve" smooth="yes"/>
      <point x="246" y="1140"/>
      <point x="246" y="1026"/>
      <point x="246" y="788" type="qcurve" smooth="yes"/>
      <point x="246" y="697"/>
      <point x="177" y="614"/>
      <point x="116" y="614" type="qcurve" smooth="yes"/>
      <point x="78" y="614"/>
      <point x="78" y="614"/>
    </contour>
    <contour>
      <point x="287" y="152" type="qcurve" smooth="yes"/>
      <point x="246" y="152"/>
      <point x="246" y="152"/>
      <point x="246" y="190" type="qcurve" smooth="yes"/>
      <point x="246" y="228"/>
      <point x="246" y="247"/>
      <point x="246" y="317" type="qcurve" smooth="yes"/>
      <point x="246" y="382"/>
      <point x="296" y="462"/>
      <point x="377" y="462" type="qcurve" smooth="yes"/>
      <point x="415" y="462"/>
      <point x="415" y="462"/>
      <point x="415" y="421" type="qcurve" smooth="yes"/>
      <point x="415" y="380"/>
      <point x="415" y="380"/>
      <point x="377" y="380" type="qcurve" smooth="yes"/>
      <point x="339" y="380"/>
      <point x="328" y="332"/>
      <point x="328" y="251" type="qcurve" smooth="yes"/>
      <point x="328" y="247"/>
      <point x="328" y="228"/>
      <point x="328" y="190" type="qcurve" smooth="yes"/>
      <point x="328" y="152"/>
      <point x="328" y="152"/>
    </contour>
    <contour>
      <point x="287" y="614" type="qcurve" smooth="yes"/>
      <point x="246" y="614"/>
      <point x="246" y="614"/>
      <point x="246" y="652" type="qcurve" smooth="yes"/>
      <point x="246" y="690"/>
      <point x="246" y="1003"/>
      <point x="246" y="1084" type="qcurve" smooth="yes"/>
      <point x="246" y="1137"/>
      <point x="309" y="1216"/>
      <point x="353" y="1216" type="qcurve" smooth="yes"/>
      <point x="392" y="1216"/>
      <point x="392" y="1216"/>
      <point x="392" y="1174" type="qcurve" smooth="yes"/>
      <point x="392" y="1134"/>
      <point x="392" y="1134"/>
      <point x="344" y="1134" type="qcurve" smooth="yes"/>
      <point x="326" y="1134"/>
      <point x="328" y="1026"/>
      <point x="328" y="995" type="qcurve" smooth="yes"/>
      <point x="328" y="801"/>
      <point x="328" y="690"/>
      <point x="328" y="652" type="qcurve" smooth="yes"/>
      <point x="328" y="614"/>
      <point x="328" y="614"/>
    </contour>
    <contour>
      <point x="335" y="462" type="qcurve" smooth="yes"/>
      <point x="328" y="462"/>
      <point x="328" y="462"/>
      <point x="328" y="500" type="qcurve" smooth="yes"/>
      <point x="328" y="538"/>
      <point x="328" y="538"/>
      <point x="335" y="538" type="qcurve" smooth="yes"/>
      <point x="338" y="538"/>
      <point x="354" y="538"/>
      <point x="360" y="538" type="qcurve" smooth="yes"/>
      <point x="366" y="538"/>
      <point x="408" y="540"/>
      <point x="425" y="542" type="qcurve" smooth="yes"/>
      <point x="442" y="544"/>
      <point x="442" y="544"/>
      <point x="464" y="510" type="qcurve" smooth="yes"/>
      <point x="486" y="476"/>
      <point x="486" y="476"/>
      <point x="473" y="474" type="qcurve"/>
      <point x="444" y="468"/>
      <point x="383" y="462"/>
      <point x="352" y="462" type="qcurve" smooth="yes"/>
      <point x="350" y="462"/>
      <point x="337" y="462"/>
    </contour>
    <contour>
      <point x="335" y="538" type="qcurve" smooth="yes"/>
      <point x="328" y="538"/>
      <point x="328" y="538"/>
      <point x="328" y="578" type="qcurve" smooth="yes"/>
      <point x="328" y="614"/>
      <point x="328" y="614"/>
      <point x="335" y="614" type="qcurve" smooth="yes"/>
      <point x="337" y="614"/>
      <point x="349" y="614"/>
      <point x="355" y="614" type="qcurve" smooth="yes"/>
      <point x="363" y="614"/>
      <point x="371" y="614"/>
      <point x="383" y="615" type="qcurve" smooth="yes"/>
      <point x="395" y="616"/>
      <point x="395" y="616"/>
      <point x="419" y="579" type="qcurve" smooth="yes"/>
      <point x="442" y="544"/>
      <point x="442" y="544"/>
      <point x="425" y="542" type="qcurve" smooth="yes"/>
      <point x="408" y="540"/>
      <point x="366" y="538"/>
      <point x="360" y="538" type="qcurve" smooth="yes"/>
      <point x="354" y="538"/>
      <point x="340" y="538"/>
    </contour>
    <contour>
      <point x="640" y="984" type="qcurve" smooth="yes"/>
      <point x="617" y="1019"/>
      <point x="617" y="1019"/>
      <point x="623" y="1023" type="qcurve" smooth="yes"/>
      <point x="673" y="1054"/>
      <point x="498" y="1216"/>
      <point x="398" y="1216" type="qcurve" smooth="yes"/>
      <point x="383" y="1216"/>
      <point x="361" y="1216"/>
      <point x="352" y="1216" type="qcurve" smooth="yes"/>
      <point x="328" y="1216"/>
      <point x="328" y="1216"/>
      <point x="328" y="1250" type="qcurve" smooth="yes"/>
      <point x="328" y="1292"/>
      <point x="328" y="1292"/>
      <point x="376" y="1292" type="qcurve" smooth="yes"/>
      <point x="397" y="1292"/>
      <point x="434" y="1293"/>
      <point x="457" y="1290" type="qcurve" smooth="yes"/>
      <point x="589" y="1275"/>
      <point x="762" y="1015"/>
      <point x="669" y="954" type="qcurve" smooth="yes"/>
      <point x="663" y="950"/>
      <point x="663" y="950"/>
    </contour>
    <contour>
      <point x="877" y="1007" type="qcurve" smooth="yes"/>
      <point x="868" y="966"/>
      <point x="868" y="966"/>
      <point x="832" y="971" type="qcurve"/>
      <point x="790" y="987"/>
      <point x="589" y="1275"/>
      <point x="457" y="1290" type="qcurve" smooth="yes"/>
      <point x="391" y="1296"/>
      <point x="328" y="1362"/>
      <point x="328" y="1409" type="qcurve" smooth="yes"/>
      <point x="328" y="1444"/>
      <point x="328" y="1444"/>
      <point x="369" y="1444" type="qcurve" smooth="yes"/>
      <point x="410" y="1444"/>
      <point x="410" y="1444"/>
      <point x="410" y="1409" type="qcurve" smooth="yes"/>
      <point x="410" y="1380"/>
      <point x="427" y="1364"/>
      <point x="445" y="1361" type="qcurve" smooth="yes"/>
      <point x="622" y="1336"/>
      <point x="808" y="1146"/>
      <point x="836" y="1069" type="qcurve"/>
      <point x="886" y="1048"/>
      <point x="886" y="1048"/>
    </contour>
    <contour>
      <point x="645" y="82" type="qcurve" smooth="yes"/>
      <point x="623" y="114"/>
      <point x="623" y="114"/>
      <point x="652" y="138" type="qcurve"/>
      <point x="683" y="158"/>
      <point x="658" y="230"/>
      <point x="617" y="289" type="qcurve" smooth="yes"/>
      <point x="486" y="476"/>
      <point x="486" y="476"/>
      <point x="525" y="486" type="qcurve"/>
      <point x="563" y="499"/>
      <point x="563" y="499"/>
      <point x="713" y="288" type="qcurve" smooth="yes"/>
      <point x="764" y="215"/>
      <point x="748" y="104"/>
      <point x="700" y="69" type="qcurve" smooth="yes"/>
      <point x="669" y="47"/>
      <point x="669" y="47"/>
    </contour>
    <contour>
      <point x="602" y="609" type="qcurve"/>
      <point x="584" y="599"/>
      <point x="584" y="599"/>
      <point x="562" y="630" type="qcurve" smooth="yes"/>
      <point x="539" y="663"/>
      <point x="539" y="663"/>
      <point x="556" y="673" type="qcurve" smooth="yes"/>
      <point x="609" y="703"/>
      <point x="644" y="755"/>
      <point x="596" y="802" type="qcurve" smooth="yes"/>
      <point x="591" y="807"/>
      <point x="591" y="807"/>
      <point x="620" y="837" type="qcurve" smooth="yes"/>
      <point x="649" y="866"/>
      <point x="649" y="866"/>
      <point x="660" y="855" type="qcurve" smooth="yes"/>
      <point x="723" y="795"/>
      <point x="696" y="672"/>
    </contour>
    <contour>
      <point x="844" y="170" type="qcurve" smooth="yes"/>
      <point x="811" y="147"/>
      <point x="811" y="147"/>
      <point x="658" y="366" type="qcurve" smooth="yes"/>
      <point x="620" y="421"/>
      <point x="613" y="511"/>
      <point x="678" y="557" type="qcurve"/>
      <point x="710" y="577"/>
      <point x="710" y="577"/>
      <point x="734" y="546" type="qcurve"/>
      <point x="757" y="511"/>
      <point x="757" y="511"/>
      <point x="726" y="489" type="qcurve" smooth="yes"/>
      <point x="695" y="468"/>
      <point x="821" y="264"/>
      <point x="844" y="234" type="qcurve" smooth="yes"/>
      <point x="875" y="191"/>
      <point x="875" y="191"/>
    </contour>
    <contour>
      <point x="647" y="541" type="qcurve" smooth="yes"/>
      <point x="632" y="531"/>
      <point x="632" y="531"/>
      <point x="607" y="565" type="qcurve" smooth="yes"/>
      <point x="584" y="599"/>
      <point x="584" y="599"/>
      <point x="602" y="609" type="qcurve"/>
      <point x="678" y="658"/>
      <point x="774" y="812"/>
      <point x="858" y="833" type="qcurve" smooth="yes"/>
      <point x="866" y="835"/>
      <point x="866" y="835"/>
      <point x="876" y="794" type="qcurve" smooth="yes"/>
      <point x="886" y="753"/>
      <point x="886" y="753"/>
      <point x="827" y="749" type="qcurve"/>
      <point x="812" y="691"/>
      <point x="720" y="592"/>
    </contour>
    <contour>
      <point x="446" y="545" type="qcurve"/>
      <point x="442" y="544"/>
      <point x="442" y="544"/>
      <point x="419" y="579" type="qcurve" smooth="yes"/>
      <point x="395" y="616"/>
      <point x="395" y="616"/>
      <point x="435" y="623" type="qcurve"/>
      <point x="472" y="634"/>
      <point x="471" y="634"/>
      <point x="474" y="630" type="qcurve"/>
      <point x="492" y="603"/>
      <point x="477" y="556"/>
    </contour>
    <contour>
      <point x="525" y="486" type="qcurve"/>
      <point x="486" y="476"/>
      <point x="486" y="476"/>
      <point x="464" y="510" type="qcurve" smooth="yes"/>
      <point x="442" y="544"/>
      <point x="442" y="544"/>
      <point x="446" y="545" type="qcurve"/>
      <point x="489" y="560"/>
      <point x="545" y="528"/>
      <point x="562" y="501" type="qcurve"/>
      <point x="563" y="499"/>
      <point x="563" y="499"/>
    </contour>
    <contour>
      <point x="580" y="597" type="qcurve" smooth="yes"/>
      <point x="549" y="583"/>
      <point x="495" y="602"/>
      <point x="474" y="630" type="qcurve" smooth="yes"/>
      <point x="471" y="634"/>
      <point x="472" y="634"/>
      <point x="507" y="646" type="qcurve"/>
      <point x="539" y="663"/>
      <point x="539" y="663"/>
      <point x="562" y="630" type="qcurve" smooth="yes"/>
      <point x="584" y="599"/>
      <point x="584" y="599"/>
    </contour>
    <contour>
      <point x="599" y="514" type="qcurve"/>
      <point x="563" y="499"/>
      <point x="563" y="499"/>
      <point x="562" y="501" type="qcurve"/>
      <point x="538" y="532"/>
      <point x="557" y="587"/>
      <point x="580" y="597" type="qcurve"/>
      <point x="584" y="599"/>
      <point x="584" y="599"/>
      <point x="607" y="565" type="qcurve" smooth="yes"/>
      <point x="632" y="531"/>
      <point x="632" y="531"/>
    </contour>
    <contour>
      <point x="732" y="836" type="qcurve" smooth="yes"/>
      <point x="681" y="836"/>
      <point x="681" y="836"/>
      <point x="687" y="869" type="qcurve"/>
      <point x="690" y="902"/>
      <point x="690" y="902"/>
      <point x="732" y="902" type="qcurve" smooth="yes"/>
      <point x="773" y="902"/>
      <point x="773" y="902"/>
      <point x="773" y="869" type="qcurve"/>
      <point x="769" y="836"/>
      <point x="769" y="836"/>
    </contour>
    <contour>
      <point x="732" y="902" type="qcurve" smooth="yes"/>
      <point x="690" y="902"/>
      <point x="690" y="902"/>
      <point x="690" y="932" type="qcurve" smooth="yes"/>
      <point x="689" y="966"/>
      <point x="689" y="966"/>
      <point x="732" y="966" type="qcurve" smooth="yes"/>
      <point x="773" y="966"/>
      <point x="773" y="966"/>
      <point x="773" y="932" type="qcurve" smooth="yes"/>
      <point x="773" y="902"/>
      <point x="773" y="902"/>
    </contour>
    <contour>
      <point x="815" y="836" type="qcurve" smooth="yes"/>
      <point x="769" y="836"/>
      <point x="769" y="836"/>
      <point x="773" y="869" type="qcurve"/>
      <point x="773" y="902"/>
      <point x="773" y="902"/>
      <point x="815" y="902" type="qcurve" smooth="yes"/>
      <point x="857" y="902"/>
      <point x="857" y="902"/>
      <point x="856" y="869" type="qcurve"/>
      <point x="853" y="836"/>
      <point x="853" y="836"/>
    </contour>
    <contour>
      <point x="815" y="902" type="qcurve" smooth="yes"/>
      <point x="773" y="902"/>
      <point x="773" y="902"/>
      <point x="773" y="932" type="qcurve" smooth="yes"/>
      <point x="773" y="966"/>
      <point x="773" y="966"/>
      <point x="815" y="966" type="qcurve" smooth="yes"/>
      <point x="857" y="966"/>
      <point x="857" y="966"/>
      <point x="857" y="932" type="qcurve" smooth="yes"/>
      <point x="857" y="902"/>
      <point x="857" y="902"/>
    </contour>
    <contour>
      <point x="162" y="462" type="qcurve" smooth="yes"/>
      <point x="109" y="462"/>
      <point x="109" y="462"/>
      <point x="109" y="500" type="qcurve" smooth="yes"/>
      <point x="109" y="538"/>
      <point x="109" y="538"/>
      <point x="174" y="538" type="qcurve"/>
      <point x="186" y="539"/>
      <point x="246" y="494"/>
      <point x="246" y="467" type="qcurve" smooth="yes"/>
      <point x="246" y="462"/>
      <point x="246" y="462"/>
    </contour>
    <contour>
      <point x="174" y="538" type="qcurve"/>
      <point x="164" y="538"/>
      <point x="164" y="538"/>
      <point x="164" y="576" type="qcurve" smooth="yes"/>
      <point x="164" y="599"/>
      <point x="182" y="614"/>
      <point x="205" y="614" type="qcurve" smooth="yes"/>
      <point x="246" y="614"/>
      <point x="246" y="614"/>
      <point x="246" y="609" type="qcurve" smooth="yes"/>
      <point x="246" y="582"/>
      <point x="186" y="539"/>
    </contour>
    <contour>
      <point x="287" y="462" type="qcurve" smooth="yes"/>
      <point x="246" y="462"/>
      <point x="246" y="462"/>
      <point x="246" y="467" type="qcurve" smooth="yes"/>
      <point x="246" y="494"/>
      <point x="306" y="539"/>
      <point x="323" y="538" type="qcurve"/>
      <point x="328" y="538"/>
      <point x="328" y="538"/>
      <point x="328" y="500" type="qcurve" smooth="yes"/>
      <point x="328" y="479"/>
      <point x="312" y="462"/>
    </contour>
    <contour>
      <point x="323" y="538" type="qcurve"/>
      <point x="306" y="539"/>
      <point x="246" y="582"/>
      <point x="246" y="609" type="qcurve" smooth="yes"/>
      <point x="246" y="614"/>
      <point x="246" y="614"/>
      <point x="286" y="614" type="qcurve" smooth="yes"/>
      <point x="342" y="614"/>
      <point x="342" y="614"/>
      <point x="342" y="576" type="qcurve" smooth="yes"/>
      <point x="342" y="538"/>
      <point x="342" y="538"/>
    </contour>
    <contour>
      <point x="205" y="-80" type="qcurve" smooth="yes"/>
      <point x="164" y="-80"/>
      <point x="164" y="-80"/>
      <point x="164" y="-2" type="qcurve" smooth="yes"/>
      <point x="164" y="76"/>
      <point x="164" y="76"/>
      <point x="175" y="76" type="qcurve"/>
      <point x="201" y="78"/>
      <point x="246" y="30"/>
      <point x="246" y="-2" type="qcurve" smooth="yes"/>
      <point x="246" y="-80"/>
      <point x="246" y="-80"/>
    </contour>
    <contour>
      <point x="175" y="76" type="qcurve"/>
      <point x="164" y="76"/>
      <point x="164" y="76"/>
      <point x="164" y="114" type="qcurve" smooth="yes"/>
      <point x="164" y="152"/>
      <point x="164" y="152"/>
      <point x="205" y="152" type="qcurve" smooth="yes"/>
      <point x="246" y="152"/>
      <point x="246" y="152"/>
      <point x="246" y="144" type="qcurve" smooth="yes"/>
      <point x="246" y="120"/>
      <point x="199" y="78"/>
    </contour>
    <contour>
      <point x="287" y="0" type="qcurve" smooth="yes"/>
      <point x="246" y="0"/>
      <point x="246" y="0"/>
      <point x="246" y="4" type="qcurve" smooth="yes"/>
      <point x="246" y="29"/>
      <point x="295" y="78"/>
      <point x="318" y="76" type="qcurve"/>
      <point x="328" y="76"/>
      <point x="328" y="76"/>
      <point x="328" y="38" type="qcurve" smooth="yes"/>
      <point x="328" y="0"/>
      <point x="328" y="0"/>
    </contour>
    <contour>
      <point x="329" y="76" type="qcurve"/>
      <point x="295" y="78"/>
      <point x="246" y="120"/>
      <point x="246" y="144" type="qcurve" smooth="yes"/>
      <point x="246" y="152"/>
      <point x="246" y="152"/>
      <point x="329" y="152" type="qcurve" smooth="yes"/>
      <point x="411" y="152"/>
      <point x="411" y="152"/>
      <point x="411" y="114" type="qcurve" smooth="yes"/>
      <point x="411" y="76"/>
      <point x="411" y="76"/>
    </contour>
    <contour>
      <point x="205" y="1216" type="qcurve" smooth="yes"/>
      <point x="164" y="1216"/>
      <point x="164" y="1216"/>
      <point x="164" y="1254" type="qcurve" smooth="yes"/>
      <point x="164" y="1292"/>
      <point x="164" y="1292"/>
      <point x="168" y="1292" type="qcurve" smooth="yes"/>
      <point x="200" y="1292"/>
      <point x="246" y="1245"/>
      <point x="246" y="1219" type="qcurve" smooth="yes"/>
      <point x="246" y="1216"/>
      <point x="246" y="1216"/>
    </contour>
    <contour>
      <point x="164" y="1292" type="qcurve" smooth="yes"/>
      <point x="82" y="1292"/>
      <point x="82" y="1292"/>
      <point x="82" y="1330" type="qcurve" smooth="yes"/>
      <point x="82" y="1368"/>
      <point x="82" y="1368"/>
      <point x="164" y="1368" type="qcurve" smooth="yes"/>
      <point x="246" y="1368"/>
      <point x="246" y="1368"/>
      <point x="246" y="1364" type="qcurve" smooth="yes"/>
      <point x="246" y="1331"/>
      <point x="204" y="1292"/>
    </contour>
    <contour>
      <point x="287" y="1216" type="qcurve" smooth="yes"/>
      <point x="246" y="1216"/>
      <point x="246" y="1216"/>
      <point x="246" y="1219" type="qcurve" smooth="yes"/>
      <point x="246" y="1249"/>
      <point x="293" y="1292"/>
      <point x="324" y="1292" type="qcurve" smooth="yes"/>
      <point x="328" y="1292"/>
      <point x="328" y="1292"/>
      <point x="328" y="1254" type="qcurve" smooth="yes"/>
      <point x="328" y="1216"/>
      <point x="328" y="1216"/>
    </contour>
    <contour>
      <point x="324" y="1292" type="qcurve" smooth="yes"/>
      <point x="289" y="1292"/>
      <point x="246" y="1333"/>
      <point x="246" y="1368" type="qcurve"/>
      <point x="226" y="1444"/>
      <point x="226" y="1444"/>
      <point x="267" y="1444" type="qcurve" smooth="yes"/>
      <point x="308" y="1444"/>
      <point x="308" y="1444"/>
      <point x="328" y="1368" type="qcurve"/>
      <point x="328" y="1292"/>
      <point x="328" y="1292"/>
    </contour>
    <contour>
      <point x="843" y="169" type="qcurve" smooth="yes"/>
      <point x="875" y="192"/>
      <point x="875" y="192"/>
      <point x="896" y="161" type="qcurve" smooth="yes"/>
      <point x="917" y="131"/>
      <point x="917" y="131"/>
      <point x="915" y="129" type="qcurve"/>
      <point x="881" y="106"/>
      <point x="824" y="127"/>
      <point x="812" y="144" type="qcurve"/>
      <point x="811" y="147"/>
      <point x="811" y="147"/>
    </contour>
    <contour>
      <point x="915" y="129" type="qcurve" smooth="yes"/>
      <point x="994" y="185"/>
      <point x="994" y="185"/>
      <point x="1015" y="155" type="qcurve" smooth="yes"/>
      <point x="1036" y="124"/>
      <point x="1036" y="124"/>
      <point x="928" y="48" type="qcurve" smooth="yes"/>
      <point x="896" y="26"/>
      <point x="896" y="26"/>
      <point x="893" y="29" type="qcurve"/>
      <point x="873" y="58"/>
      <point x="886" y="109"/>
    </contour>
    <contour>
      <point x="779" y="125" type="qcurve" smooth="yes"/>
      <point x="811" y="147"/>
      <point x="811" y="147"/>
      <point x="812" y="144" type="qcurve"/>
      <point x="831" y="117"/>
      <point x="822" y="65"/>
      <point x="792" y="43" type="qcurve"/>
      <point x="789" y="42"/>
      <point x="789" y="42"/>
      <point x="768" y="72" type="qcurve" smooth="yes"/>
      <point x="747" y="102"/>
      <point x="747" y="102"/>
    </contour>
    <contour>
      <point x="792" y="43" type="qcurve"/>
      <point x="814" y="59"/>
      <point x="864" y="71"/>
      <point x="893" y="29" type="qcurve" smooth="yes"/>
      <point x="939" y="-37"/>
      <point x="939" y="-37"/>
      <point x="907" y="-59" type="qcurve" smooth="yes"/>
      <point x="875" y="-81"/>
      <point x="875" y="-81"/>
      <point x="810" y="11" type="qcurve" smooth="yes"/>
      <point x="789" y="42"/>
      <point x="789" y="42"/>
    </contour>
  </outline>
</glyph>
<glyph name="U" format="1">
  <advance width="1321"/>
  <unicode hex="0055"/>
  <outline>
    <contour>
      <point x="504" y="-13" type="qcurve"/>
      <point x="343" y="22"/>
      <point x="150" y="248"/>
      <point x="150" y="518" type="qcurve" smooth="yes"/>
      <point x="150" y="608"/>
      <point x="150" y="608"/>
      <point x="191" y="608" type="qcurve" smooth="yes"/>
      <point x="232" y="608"/>
      <point x="232" y="608"/>
      <point x="232" y="446" type="qcurve" smooth="yes"/>
      <point x="232" y="211"/>
      <point x="542" y="19"/>
      <point x="574" y="19" type="qcurve"/>
      <point x="574" y="-57"/>
      <point x="574" y="-57"/>
      <point x="537" y="-57" type="qcurve" smooth="yes"/>
      <point x="499" y="-57"/>
      <point x="499" y="-57"/>
    </contour>
    <contour>
      <point x="526" y="57" type="qcurve"/>
      <point x="275" y="121"/>
      <point x="201" y="608"/>
      <point x="345" y="608" type="qcurve" smooth="yes"/>
      <point x="380" y="608"/>
      <point x="380" y="608"/>
      <point x="380" y="567" type="qcurve" smooth="yes"/>
      <point x="380" y="526"/>
      <point x="380" y="526"/>
      <point x="316" y="526" type="qcurve"/>
      <point x="309" y="357"/>
      <point x="415" y="174"/>
      <point x="532" y="133" type="qcurve"/>
      <point x="579" y="123"/>
      <point x="579" y="123"/>
      <point x="579" y="87" type="qcurve" smooth="yes"/>
      <point x="579" y="65"/>
      <point x="556" y="52"/>
    </contour>
    <contour>
      <point x="798" y="-18" type="qcurve"/>
      <point x="743" y="-26"/>
      <point x="743" y="-26"/>
      <point x="743" y="12" type="qcurve" smooth="yes"/>
      <point x="743" y="34"/>
      <point x="774" y="53"/>
      <point x="796" y="58" type="qcurve" smooth="yes"/>
      <point x="1034" y="115"/>
      <point x="1115" y="607"/>
      <point x="1201" y="607" type="qcurve" smooth="yes"/>
      <point x="1244" y="607"/>
      <point x="1244" y="607"/>
      <point x="1244" y="566" type="qcurve" smooth="yes"/>
      <point x="1244" y="520"/>
      <point x="1244" y="518"/>
      <point x="1165" y="518" type="qcurve"/>
      <point x="1177" y="265"/>
      <point x="980" y="21"/>
    </contour>
    <contour>
      <point x="790" y="78" type="qcurve"/>
      <point x="734" y="132"/>
      <point x="734" y="132"/>
      <point x="761" y="155" type="qcurve" smooth="yes"/>
      <point x="791" y="181"/>
      <point x="791" y="181"/>
      <point x="829" y="151" type="qcurve"/>
      <point x="877" y="164"/>
      <point x="1007" y="341"/>
      <point x="1007" y="555" type="qcurve" smooth="yes"/>
      <point x="1007" y="608"/>
      <point x="1007" y="608"/>
      <point x="1048" y="608" type="qcurve" smooth="yes"/>
      <point x="1089" y="608"/>
      <point x="1089" y="608"/>
      <point x="1089" y="563" type="qcurve" smooth="yes"/>
      <point x="1089" y="301"/>
      <point x="919" y="75"/>
    </contour>
    <contour>
      <point x="150" y="1216" type="qcurve" smooth="yes"/>
      <point x="68" y="1216"/>
      <point x="68" y="1216"/>
      <point x="68" y="1254" type="qcurve" smooth="yes"/>
      <point x="68" y="1292"/>
      <point x="68" y="1292"/>
      <point x="150" y="1292" type="qcurve" smooth="yes"/>
      <point x="188" y="1292"/>
      <point x="232" y="1257"/>
      <point x="232" y="1220" type="qcurve" smooth="yes"/>
      <point x="232" y="1216"/>
      <point x="232" y="1216"/>
    </contour>
    <contour>
      <point x="154" y="1292" type="qcurve" smooth="yes"/>
      <point x="150" y="1292"/>
      <point x="150" y="1292"/>
      <point x="150" y="1330" type="qcurve" smooth="yes"/>
      <point x="150" y="1368"/>
      <point x="150" y="1368"/>
      <point x="191" y="1368" type="qcurve" smooth="yes"/>
      <point x="232" y="1368"/>
      <point x="232" y="1368"/>
      <point x="232" y="1365" type="qcurve" smooth="yes"/>
      <point x="232" y="1319"/>
      <point x="189" y="1292"/>
    </contour>
    <contour>
      <point x="273" y="1216" type="qcurve" smooth="yes"/>
      <point x="232" y="1216"/>
      <point x="232" y="1216"/>
      <point x="232" y="1220" type="qcurve" smooth="yes"/>
      <point x="232" y="1249"/>
      <point x="276" y="1292"/>
      <point x="311" y="1292" type="qcurve" smooth="yes"/>
      <point x="314" y="1292"/>
      <point x="314" y="1292"/>
      <point x="314" y="1254" type="qcurve" smooth="yes"/>
      <point x="314" y="1216"/>
      <point x="314" y="1216"/>
    </contour>
    <contour>
      <point x="311" y="1292" type="qcurve" smooth="yes"/>
      <point x="283" y="1292"/>
      <point x="232" y="1323"/>
      <point x="232" y="1368" type="qcurve" smooth="yes"/>
      <point x="232" y="1444"/>
      <point x="232" y="1444"/>
      <point x="273" y="1444" type="qcurve" smooth="yes"/>
      <point x="314" y="1444"/>
      <point x="314" y="1444"/>
      <point x="314" y="1368" type="qcurve" smooth="yes"/>
      <point x="314" y="1292"/>
      <point x="314" y="1292"/>
    </contour>
    <contour>
      <point x="1007" y="1216" type="qcurve" smooth="yes"/>
      <point x="925" y="1216"/>
      <point x="925" y="1216"/>
      <point x="925" y="1254" type="qcurve" smooth="yes"/>
      <point x="925" y="1292"/>
      <point x="925" y="1292"/>
      <point x="1007" y="1292" type="qcurve" smooth="yes"/>
      <point x="1045" y="1292"/>
      <point x="1089" y="1257"/>
      <point x="1089" y="1220" type="qcurve" smooth="yes"/>
      <point x="1089" y="1216"/>
      <point x="1089" y="1216"/>
    </contour>
    <contour>
      <point x="1011" y="1292" type="qcurve" smooth="yes"/>
      <point x="1007" y="1292"/>
      <point x="1007" y="1292"/>
      <point x="1007" y="1330" type="qcurve" smooth="yes"/>
      <point x="1007" y="1368"/>
      <point x="1007" y="1368"/>
      <point x="1048" y="1368" type="qcurve" smooth="yes"/>
      <point x="1089" y="1368"/>
      <point x="1089" y="1368"/>
      <point x="1089" y="1365" type="qcurve" smooth="yes"/>
      <point x="1089" y="1319"/>
      <point x="1046" y="1292"/>
    </contour>
    <contour>
      <point x="1130" y="1216" type="qcurve" smooth="yes"/>
      <point x="1089" y="1216"/>
      <point x="1089" y="1216"/>
      <point x="1089" y="1220" type="qcurve" smooth="yes"/>
      <point x="1089" y="1249"/>
      <point x="1133" y="1292"/>
      <point x="1168" y="1292" type="qcurve" smooth="yes"/>
      <point x="1171" y="1292"/>
      <point x="1171" y="1292"/>
      <point x="1171" y="1254" type="qcurve" smooth="yes"/>
      <point x="1171" y="1216"/>
      <point x="1171" y="1216"/>
    </contour>
    <contour>
      <point x="1168" y="1292" type="qcurve" smooth="yes"/>
      <point x="1140" y="1292"/>
      <point x="1089" y="1323"/>
      <point x="1089" y="1368" type="qcurve" smooth="yes"/>
      <point x="1089" y="1444"/>
      <point x="1089" y="1444"/>
      <point x="1130" y="1444" type="qcurve" smooth="yes"/>
      <point x="1171" y="1444"/>
      <point x="1171" y="1444"/>
      <point x="1171" y="1368" type="qcurve" smooth="yes"/>
      <point x="1171" y="1292"/>
      <point x="1171" y="1292"/>
    </contour>
    <contour>
      <point x="148" y="608" type="qcurve" smooth="yes"/>
      <point x="95" y="608"/>
      <point x="95" y="608"/>
      <point x="95" y="646" type="qcurve" smooth="yes"/>
      <point x="95" y="684"/>
      <point x="95" y="684"/>
      <point x="160" y="684" type="qcurve"/>
      <point x="172" y="685"/>
      <point x="232" y="640"/>
      <point x="232" y="613" type="qcurve" smooth="yes"/>
      <point x="232" y="608"/>
      <point x="232" y="608"/>
    </contour>
    <contour>
      <point x="160" y="684" type="qcurve"/>
      <point x="150" y="684"/>
      <point x="150" y="684"/>
      <point x="150" y="722" type="qcurve" smooth="yes"/>
      <point x="150" y="745"/>
      <point x="168" y="760"/>
      <point x="191" y="760" type="qcurve" smooth="yes"/>
      <point x="232" y="760"/>
      <point x="232" y="760"/>
      <point x="232" y="755" type="qcurve" smooth="yes"/>
      <point x="232" y="728"/>
      <point x="172" y="685"/>
    </contour>
    <contour>
      <point x="273" y="608" type="qcurve" smooth="yes"/>
      <point x="232" y="608"/>
      <point x="232" y="608"/>
      <point x="232" y="613" type="qcurve" smooth="yes"/>
      <point x="232" y="640"/>
      <point x="292" y="685"/>
      <point x="309" y="684" type="qcurve"/>
      <point x="314" y="684"/>
      <point x="314" y="684"/>
      <point x="314" y="646" type="qcurve" smooth="yes"/>
      <point x="314" y="625"/>
      <point x="298" y="608"/>
    </contour>
    <contour>
      <point x="309" y="684" type="qcurve"/>
      <point x="292" y="685"/>
      <point x="232" y="728"/>
      <point x="232" y="755" type="qcurve" smooth="yes"/>
      <point x="232" y="760"/>
      <point x="232" y="760"/>
      <point x="272" y="760" type="qcurve" smooth="yes"/>
      <point x="328" y="760"/>
      <point x="328" y="760"/>
      <point x="328" y="722" type="qcurve" smooth="yes"/>
      <point x="328" y="684"/>
      <point x="328" y="684"/>
    </contour>
    <contour>
      <point x="1005" y="608" type="qcurve" smooth="yes"/>
      <point x="952" y="608"/>
      <point x="952" y="608"/>
      <point x="952" y="646" type="qcurve" smooth="yes"/>
      <point x="952" y="684"/>
      <point x="952" y="684"/>
      <point x="1017" y="684" type="qcurve"/>
      <point x="1029" y="685"/>
      <point x="1089" y="640"/>
      <point x="1089" y="613" type="qcurve" smooth="yes"/>
      <point x="1089" y="608"/>
      <point x="1089" y="608"/>
    </contour>
    <contour>
      <point x="1017" y="684" type="qcurve"/>
      <point x="1007" y="684"/>
      <point x="1007" y="684"/>
      <point x="1007" y="722" type="qcurve" smooth="yes"/>
      <point x="1007" y="745"/>
      <point x="1025" y="760"/>
      <point x="1048" y="760" type="qcurve" smooth="yes"/>
      <point x="1089" y="760"/>
      <point x="1089" y="760"/>
      <point x="1089" y="755" type="qcurve" smooth="yes"/>
      <point x="1089" y="728"/>
      <point x="1029" y="685"/>
    </contour>
    <contour>
      <point x="1130" y="608" type="qcurve" smooth="yes"/>
      <point x="1089" y="608"/>
      <point x="1089" y="608"/>
      <point x="1089" y="613" type="qcurve" smooth="yes"/>
      <point x="1089" y="640"/>
      <point x="1149" y="685"/>
      <point x="1166" y="684" type="qcurve"/>
      <point x="1171" y="684"/>
      <point x="1171" y="684"/>
      <point x="1171" y="646" type="qcurve" smooth="yes"/>
      <point x="1171" y="625"/>
      <point x="1155" y="608"/>
    </contour>
    <contour>
      <point x="1166" y="684" type="qcurve"/>
      <point x="1149" y="685"/>
      <point x="1089" y="728"/>
      <point x="1089" y="755" type="qcurve" smooth="yes"/>
      <point x="1089" y="760"/>
      <point x="1089" y="760"/>
      <point x="1129" y="760" type="qcurve" smooth="yes"/>
      <point x="1185" y="760"/>
      <point x="1185" y="760"/>
      <point x="1185" y="722" type="qcurve" smooth="yes"/>
      <point x="1185" y="684"/>
      <point x="1185" y="684"/>
    </contour>
    <contour>
      <point x="64" y="801" type="qcurve" smooth="yes"/>
      <point x="64" y="842"/>
      <point x="64" y="842"/>
      <point x="102" y="842" type="qcurve" smooth="yes"/>
      <point x="140" y="842"/>
      <point x="150" y="917"/>
      <point x="150" y="988" type="qcurve" smooth="yes"/>
      <point x="150" y="1103"/>
      <point x="150" y="1140"/>
      <point x="150" y="1178" type="qcurve" smooth="yes"/>
      <point x="150" y="1216"/>
      <point x="150" y="1216"/>
      <point x="191" y="1216" type="qcurve" smooth="yes"/>
      <point x="232" y="1216"/>
      <point x="232" y="1216"/>
      <point x="232" y="1168" type="qcurve" smooth="yes"/>
      <point x="232" y="1127"/>
      <point x="232" y="971"/>
      <point x="232" y="933" type="qcurve" smooth="yes"/>
      <point x="232" y="843"/>
      <point x="163" y="760"/>
      <point x="102" y="760" type="qcurve" smooth="yes"/>
      <point x="64" y="760"/>
      <point x="64" y="760"/>
    </contour>
    <contour>
      <point x="273" y="760" type="qcurve" smooth="yes"/>
      <point x="232" y="760"/>
      <point x="232" y="760"/>
      <point x="232" y="798" type="qcurve" smooth="yes"/>
      <point x="232" y="836"/>
      <point x="232" y="1040"/>
      <point x="232" y="1071" type="qcurve" smooth="yes"/>
      <point x="232" y="1136"/>
      <point x="282" y="1216"/>
      <point x="363" y="1216" type="qcurve" smooth="yes"/>
      <point x="401" y="1216"/>
      <point x="401" y="1216"/>
      <point x="401" y="1175" type="qcurve" smooth="yes"/>
      <point x="401" y="1134"/>
      <point x="401" y="1134"/>
      <point x="363" y="1134" type="qcurve" smooth="yes"/>
      <point x="325" y="1134"/>
      <point x="314" y="1086"/>
      <point x="314" y="1005" type="qcurve" smooth="yes"/>
      <point x="314" y="890"/>
      <point x="314" y="836"/>
      <point x="314" y="798" type="qcurve" smooth="yes"/>
      <point x="314" y="760"/>
      <point x="314" y="760"/>
    </contour>
    <contour>
      <point x="921" y="801" type="qcurve" smooth="yes"/>
      <point x="921" y="842"/>
      <point x="921" y="842"/>
      <point x="959" y="842" type="qcurve" smooth="yes"/>
      <point x="997" y="842"/>
      <point x="1007" y="917"/>
      <point x="1007" y="988" type="qcurve" smooth="yes"/>
      <point x="1007" y="1103"/>
      <point x="1007" y="1140"/>
      <point x="1007" y="1178" type="qcurve" smooth="yes"/>
      <point x="1007" y="1216"/>
      <point x="1007" y="1216"/>
      <point x="1048" y="1216" type="qcurve" smooth="yes"/>
      <point x="1089" y="1216"/>
      <point x="1089" y="1216"/>
      <point x="1089" y="1168" type="qcurve" smooth="yes"/>
      <point x="1089" y="1127"/>
      <point x="1089" y="971"/>
      <point x="1089" y="933" type="qcurve" smooth="yes"/>
      <point x="1089" y="843"/>
      <point x="1020" y="760"/>
      <point x="959" y="760" type="qcurve" smooth="yes"/>
      <point x="921" y="760"/>
      <point x="921" y="760"/>
    </contour>
    <contour>
      <point x="1130" y="760" type="qcurve" smooth="yes"/>
      <point x="1089" y="760"/>
      <point x="1089" y="760"/>
      <point x="1089" y="798" type="qcurve" smooth="yes"/>
      <point x="1089" y="836"/>
      <point x="1089" y="1040"/>
      <point x="1089" y="1071" type="qcurve" smooth="yes"/>
      <point x="1089" y="1136"/>
      <point x="1139" y="1216"/>
      <point x="1220" y="1216" type="qcurve" smooth="yes"/>
      <point x="1258" y="1216"/>
      <point x="1258" y="1216"/>
      <point x="1258" y="1175" type="qcurve" smooth="yes"/>
      <point x="1258" y="1134"/>
      <point x="1258" y="1134"/>
      <point x="1220" y="1134" type="qcurve" smooth="yes"/>
      <point x="1182" y="1134"/>
      <point x="1171" y="1086"/>
      <point x="1171" y="1005" type="qcurve" smooth="yes"/>
      <point x="1171" y="890"/>
      <point x="1171" y="836"/>
      <point x="1171" y="798" type="qcurve" smooth="yes"/>
      <point x="1171" y="760"/>
      <point x="1171" y="760"/>
    </contour>
    <contour>
      <point x="620" y="-29" type="qcurve" smooth="yes"/>
      <point x="579" y="-26"/>
      <point x="579" y="-26"/>
      <point x="579" y="12" type="qcurve" smooth="yes"/>
      <point x="579" y="49"/>
      <point x="579" y="49"/>
      <point x="585" y="48" type="qcurve"/>
      <point x="599" y="44"/>
      <point x="661" y="-10"/>
      <point x="661" y="-27" type="qcurve" smooth="yes"/>
      <point x="661" y="-30"/>
      <point x="661" y="-30"/>
    </contour>
    <contour>
      <point x="585" y="48" type="qcurve"/>
      <point x="579" y="49"/>
      <point x="579" y="49"/>
      <point x="579" y="82" type="qcurve" smooth="yes"/>
      <point x="579" y="123"/>
      <point x="579" y="123"/>
      <point x="622" y="119" type="qcurve"/>
      <point x="661" y="118"/>
      <point x="661" y="118"/>
      <point x="661" y="116" type="qcurve" smooth="yes"/>
      <point x="661" y="91"/>
      <point x="596" y="44"/>
    </contour>
    <contour>
      <point x="702" y="-29" type="qcurve" smooth="yes"/>
      <point x="661" y="-30"/>
      <point x="661" y="-30"/>
      <point x="661" y="-27" type="qcurve" smooth="yes"/>
      <point x="661" y="-9"/>
      <point x="725" y="44"/>
      <point x="738" y="47" type="qcurve" smooth="yes"/>
      <point x="743" y="48"/>
      <point x="743" y="48"/>
      <point x="743" y="12" type="qcurve" smooth="yes"/>
      <point x="743" y="-26"/>
      <point x="743" y="-26"/>
    </contour>
    <contour>
      <point x="738" y="47" type="qcurve" smooth="yes"/>
      <point x="722" y="44"/>
      <point x="661" y="99"/>
      <point x="661" y="116" type="qcurve" smooth="yes"/>
      <point x="661" y="118"/>
      <point x="661" y="118"/>
      <point x="700" y="119" type="qcurve"/>
      <point x="743" y="123"/>
      <point x="743" y="123"/>
      <point x="743" y="83" type="qcurve" smooth="yes"/>
      <point x="743" y="48"/>
      <point x="743" y="48"/>
    </contour>
  </outline>
</glyph>
<glyph name="A" format="1">
  <advance width="1274.0"/>
  <outline>
    <contour>
      <point x="345.3" y="239.1" type="qcurve"/>
      <point x="252.4" y="234.5"/>
      <point x="252.4" y="234.4"/>
      <point x="262.9" y="266.5" type="qcurve" smooth="yes"/>
      <point x="273.3" y="298.6"/>
      <point x="273.3" y="298.6"/>
      <point x="339.2" y="303.1" type="qcurve"/>
      <point x="382.7" y="310.5"/>
      <point x="526.1" y="312.0"/>
      <point x="629.0" y="312.0" type="qcurve"/>
      <point x="707.0" y="312.0"/>
      <point x="868.0" y="312.0"/>
      <point x="938.0" y="312.0" type="qcurve"/>
      <point x="988.0" y="312.0"/>
      <point x="988.0" y="312.0"/>
      <point x="1003.0" y="278.0" type="qcurve" smooth="yes"/>
      <point x="1018.0" y="244.0"/>
      <point x="1018.0" y="244.0"/>
      <point x="963.0" y="244.0" type="qcurve" smooth="yes"/>
      <point x="889.0" y="244.0"/>
      <point x="715.0" y="244.0"/>
      <point x="629.0" y="244.0" type="qcurve"/>
      <point x="530.0" y="244.0"/>
      <point x="384.9" y="243.1"/>
    </contour>
    <contour>
      <point x="350.0" y="312.0" type="qcurve"/>
      <point x="279.0" y="312.0"/>
      <point x="279.0" y="312.0"/>
      <point x="294.0" y="346.0" type="qcurve" smooth="yes"/>
      <point x="309.0" y="380.0"/>
      <point x="309.0" y="380.0"/>
      <point x="350.0" y="380.0" type="qcurve"/>
      <point x="406.0" y="380.0"/>
      <point x="554.0" y="380.0"/>
      <point x="639.9" y="380.0" type="qcurve"/>
      <point x="717.4" y="380.0"/>
      <point x="848.2" y="381.9"/>
      <point x="905.0" y="385.8" type="qcurve" smooth="yes"/>
      <point x="947.3" y="387.7"/>
      <point x="947.2" y="387.6"/>
      <point x="964.0" y="358.6" type="qcurve" smooth="yes"/>
      <point x="980.4" y="329.4"/>
      <point x="980.4" y="329.4"/>
      <point x="936.9" y="326.0" type="qcurve" smooth="yes"/>
      <point x="878.5" y="319.6"/>
      <point x="728.1" y="312.0"/>
      <point x="648.5" y="312.0" type="qcurve"/>
      <point x="540.0" y="312.0"/>
      <point x="387.0" y="312.0"/>
    </contour>
    <contour>
      <point x="329.5" y="731.6" type="qcurve"/>
      <point x="301.5" y="748.0"/>
      <point x="301.5" y="748.0"/>
      <point x="318.4" y="777.9" type="qcurve"/>
      <point x="402.9" y="957.3"/>
      <point x="471.7" y="1116.8"/>
      <point x="505.0" y="1190.0" type="qcurve" smooth="yes"/>
      <point x="516.9" y="1215.9"/>
      <point x="517.0" y="1216.0"/>
      <point x="558.0" y="1216.0" type="qcurve"/>
      <point x="598.0" y="1216.0"/>
      <point x="598.0" y="1216.0"/>
      <point x="560.8" y="1131.3" type="qcurve"/>
      <point x="528.4" y="1061.0"/>
      <point x="450.3" y="897.6"/>
      <point x="373.6" y="738.0" type="qcurve"/>
      <point x="359.4" y="713.5"/>
      <point x="359.4" y="713.5"/>
    </contour>
    <contour>
      <point x="408.0" y="692.0" type="qcurve"/>
      <point x="374.0" y="707.0"/>
      <point x="374.0" y="707.0"/>
      <point x="386.0" y="736.0" type="qcurve"/>
      <point x="465.0" y="916.0"/>
      <point x="542.0" y="1092.0"/>
      <point x="574.0" y="1161.1" type="qcurve"/>
      <point x="598.0" y="1216.0"/>
      <point x="598.0" y="1216.0"/>
      <point x="618.0" y="1168.0" type="qcurve"/>
      <point x="638.0" y="1123.0"/>
      <point x="638.0" y="1123.0"/>
      <point x="627.0" y="1097.0" type="qcurve" smooth="yes"/>
      <point x="609.0" y="1055.0"/>
      <point x="537.0" y="896.0"/>
      <point x="457.0" y="713.0" type="qcurve"/>
      <point x="441.0" y="676.0"/>
      <point x="441.0" y="676.0"/>
    </contour>
    <contour>
      <point x="938.0" y="721.0" type="qcurve"/>
      <point x="901.0" y="705.0"/>
      <point x="901.0" y="705.0"/>
      <point x="872.9" y="768.6" type="qcurve"/>
      <point x="807.2" y="915.3"/>
      <point x="743.4" y="1080.2"/>
      <point x="719.2" y="1154.6" type="qcurve"/>
      <point x="694.8" y="1220.0"/>
      <point x="694.8" y="1220.0"/>
      <point x="731.5" y="1216.3" type="qcurve"/>
      <point x="770.2" y="1212.6"/>
      <point x="770.2" y="1212.6"/>
      <point x="777.5" y="1188.5" type="qcurve"/>
      <point x="810.9" y="1106.8"/>
      <point x="878.5" y="948.1"/>
      <point x="960.0" y="763.0" type="qcurve"/>
      <point x="972.0" y="736.0"/>
      <point x="972.0" y="736.0"/>
    </contour>
    <contour>
      <point x="852.1" y="688.8" type="qcurve"/>
      <point x="818.1" y="678.2"/>
      <point x="818.1" y="678.2"/>
      <point x="809.8" y="706.6" type="qcurve"/>
      <point x="740.4" y="875.6"/>
      <point x="677.9" y="1030.5"/>
      <point x="649.0" y="1097.0" type="qcurve" smooth="yes"/>
      <point x="638.0" y="1123.1"/>
      <point x="638.0" y="1123.0"/>
      <point x="657.0" y="1169.0" type="qcurve"/>
      <point x="679.0" y="1216.0"/>
      <point x="679.0" y="1216.0"/>
      <point x="722.0" y="1117.2" type="qcurve"/>
      <point x="757.2" y="1037.6"/>
      <point x="819.6" y="870.9"/>
      <point x="878.0" y="726.1" type="qcurve"/>
      <point x="886.2" y="698.6"/>
      <point x="886.2" y="698.6"/>
    </contour>
    <contour>
      <point x="558.0" y="1216.0" type="qcurve"/>
      <point x="517.0" y="1216.0"/>
      <point x="517.0" y="1216.0"/>
      <point x="533.0" y="1252.0" type="qcurve"/>
      <point x="549.0" y="1288.0"/>
      <point x="549.0" y="1288.0"/>
      <point x="553.0" y="1288.0" type="qcurve"/>
      <point x="585.0" y="1288.0"/>
      <point x="615.0" y="1248.0"/>
      <point x="601.0" y="1221.0" type="qcurve"/>
      <point x="598.0" y="1216.0"/>
      <point x="598.0" y="1216.0"/>
    </contour>
    <contour>
      <point x="553.0" y="1288.0" type="qcurve"/>
      <point x="549.0" y="1288.0"/>
      <point x="549.0" y="1288.0"/>
      <point x="567.0" y="1329.0" type="qcurve"/>
      <point x="584.0" y="1368.0"/>
      <point x="584.0" y="1368.0"/>
      <point x="612.0" y="1368.0" type="qcurve" smooth="yes"/>
      <point x="638.0" y="1368.0"/>
      <point x="638.0" y="1368.0"/>
      <point x="638.0" y="1364.0" type="qcurve"/>
      <point x="638.0" y="1321.0"/>
      <point x="586.0" y="1288.0"/>
    </contour>
    <contour>
      <point x="618.0" y="1186.0" type="qcurve"/>
      <point x="598.0" y="1217.0"/>
      <point x="598.0" y="1217.0"/>
      <point x="601.0" y="1220.0" type="qcurve"/>
      <point x="613.0" y="1233.0"/>
      <point x="667.0" y="1230.0"/>
      <point x="677.0" y="1219.0" type="qcurve"/>
      <point x="679.0" y="1217.0"/>
      <point x="679.0" y="1217.0"/>
      <point x="658.0" y="1187.0" type="qcurve"/>
      <point x="638.0" y="1157.0"/>
      <point x="638.0" y="1157.0"/>
    </contour>
    <contour>
      <point x="718.0" y="1216.0" type="qcurve"/>
      <point x="679.0" y="1216.0"/>
      <point x="679.0" y="1216.0"/>
      <point x="677.0" y="1219.0" type="qcurve"/>
      <point x="667.0" y="1235.0"/>
      <point x="696.0" y="1288.0"/>
      <point x="723.0" y="1288.0" type="qcurve"/>
      <point x="727.0" y="1288.0"/>
      <point x="727.0" y="1288.0"/>
      <point x="743.0" y="1252.0" type="qcurve"/>
      <point x="759.0" y="1216.0"/>
      <point x="759.0" y="1216.0"/>
    </contour>
    <contour>
      <point x="723.0" y="1288.0" type="qcurve"/>
      <point x="695.0" y="1288.0"/>
      <point x="638.0" y="1323.0"/>
      <point x="638.0" y="1364.0" type="qcurve"/>
      <point x="638.0" y="1368.0"/>
      <point x="638.0" y="1368.0"/>
      <point x="664.0" y="1368.0" type="qcurve" smooth="yes"/>
      <point x="692.0" y="1368.0"/>
      <point x="692.0" y="1368.0"/>
      <point x="709.0" y="1329.0" type="qcurve"/>
      <point x="727.0" y="1288.0"/>
      <point x="727.0" y="1288.0"/>
    </contour>
    <contour>
      <point x="162.407383657712" y="134.16487050034766" type="qcurve" smooth="yes"/>
      <point x="196.2420836521054" y="119.1911242660417"/>
      <point x="196.2420836521054" y="119.1911242660417"/>
      <point x="181.26833741779944" y="85.35642427164817" type="qcurve"/>
      <point x="166.29459118349348" y="51.521724277254634"/>
      <point x="166.29459118349348" y="51.521724277254634"/>
      <point x="162.63678577869427" y="53.14050765393631" type="qcurve"/>
      <point x="133.37434254029995" y="66.09077466739018"/>
      <point x="114.81302496152387" y="118.04727079385952"/>
      <point x="127.3585961308072" y="146.39526268105396" type="qcurve"/>
      <point x="128.57268366331857" y="149.13861673465362"/>
      <point x="128.57268366331857" y="149.13861673465362"/>
    </contour>
    <contour>
      <point x="162.63678577869427" y="53.14050765393631" type="qcurve"/>
      <point x="166.29459118349348" y="51.521724277254634"/>
      <point x="166.29459118349348" y="51.521724277254634"/>
      <point x="151.32084494918763" y="17.68702428286133" type="qcurve"/>
      <point x="105.5902145579289" y="-85.64597840271881"/>
      <point x="105.5902145579289" y="-85.64597840271881"/>
      <point x="71.75551456353548" y="-70.67223216841285" type="qcurve" smooth="yes"/>
      <point x="37.92081456914207" y="-55.698485934106884"/>
      <point x="37.92081456914207" y="-55.698485934106884"/>
      <point x="69.89178625860609" y="16.543170810679158" type="qcurve"/>
      <point x="84.46083664874163" y="49.4634194538728"/>
      <point x="131.54543983790018" y="66.90016635573102"/>
    </contour>
    <contour>
      <point x="94.73798366892515" y="164.11236296895947" type="qcurve" smooth="yes"/>
      <point x="128.57268366331857" y="149.13861673465362"/>
      <point x="128.57268366331857" y="149.13861673465362"/>
      <point x="127.3585961308072" y="146.39526268105396" type="qcurve"/>
      <point x="110.36137067564914" y="107.98830593066145"/>
      <point x="54.731526337115156" y="100.89461726604713"/>
      <point x="34.613596610719014" y="109.79792583779658" type="qcurve"/>
      <point x="-60.4893439140626" y="151.88629363152143"/>
      <point x="-60.4893439140626" y="151.88629363152143"/>
      <point x="-45.51559767975664" y="185.72099362591496" type="qcurve"/>
      <point x="-30.541851445450675" y="219.5556936203085"/>
      <point x="-30.541851445450675" y="219.5556936203085"/>
    </contour>
    <contour>
      <point x="34.613596610719014" y="109.79792583779658" type="qcurve"/>
      <point x="58.389331741914475" y="99.27583388936546"/>
      <point x="88.10309924627552" y="57.69348161467133"/>
      <point x="69.89178625860609" y="16.543170810679158" type="qcurve"/>
      <point x="68.67769872609483" y="13.799816757079725"/>
      <point x="68.67769872609483" y="13.799816757079725"/>
      <point x="34.8429987317013" y="28.77356299138569" type="qcurve" smooth="yes"/>
      <point x="1.008298737307996" y="43.747309225691424"/>
      <point x="1.008298737307996" y="43.747309225691424"/>
      <point x="15.98204497161396" y="77.58200922008518" type="qcurve"/>
      <point x="30.955791205919695" y="111.41670921447849"/>
      <point x="30.955791205919695" y="111.41670921447849"/>
    </contour>
    <contour>
      <point x="409.2718486016748" y="691.9801947322395" type="qcurve" smooth="yes"/>
      <point x="516.2626566920541" y="644.6307809642991"/>
      <point x="516.2626566920541" y="644.6307809642991"/>
      <point x="501.2889104577481" y="610.7960809699056" type="qcurve"/>
      <point x="486.3151642234422" y="576.9613809755122"/>
      <point x="486.3151642234422" y="576.9613809755122"/>
      <point x="409.50125072265706" y="610.9558318858283" type="qcurve"/>
      <point x="380.23880748426274" y="623.9060988992821"/>
      <point x="362.48688159382755" y="677.691497728151"/>
      <point x="373.8183652305996" y="703.296135561746" type="qcurve"/>
      <point x="375.4371486072813" y="706.9539409665454"/>
      <point x="375.4371486072813" y="706.9539409665454"/>
    </contour>
    <contour>
      <point x="409.50125072265706" y="610.9558318858283" type="qcurve"/>
      <point x="413.1590561274563" y="609.3370485091466"/>
      <point x="413.1590561274563" y="609.3370485091466"/>
      <point x="398.18530989315036" y="575.5023485147532" type="qcurve"/>
      <point x="383.2115636588445" y="541.6676485203598"/>
      <point x="383.2115636588445" y="541.6676485203598"/>
      <point x="349.37686366445104" y="556.6413947546657" type="qcurve" smooth="yes"/>
      <point x="315.54216367005756" y="571.6151409889717"/>
      <point x="315.54216367005756" y="571.6151409889717"/>
      <point x="316.7562512025688" y="574.3584950425711" type="qcurve"/>
      <point x="327.6830389951705" y="599.0486815249662"/>
      <point x="381.15325883546257" y="623.5014030551117"/>
    </contour>
    <contour>
      <point x="341.6024486128879" y="721.9276872008513" type="qcurve" smooth="yes"/>
      <point x="375.4371486072813" y="706.9539409665454"/>
      <point x="375.4371486072813" y="706.9539409665454"/>
      <point x="373.8183652305996" y="703.296135561746" type="qcurve"/>
      <point x="360.46340237297534" y="673.1192409721518"/>
      <point x="301.595991281078" y="658.7099414979391"/>
      <point x="280.5636102034821" y="668.0179459138591" type="qcurve"/>
      <point x="277.82025614988265" y="669.2320334463703"/>
      <point x="277.82025614988265" y="669.2320334463703"/>
      <point x="292.7940023841885" y="703.0667334407638" type="qcurve"/>
      <point x="307.76774861849447" y="736.9014334351573"/>
      <point x="307.76774861849447" y="736.9014334351573"/>
    </contour>
    <contour>
      <point x="280.5636102034821" y="668.0179459138591" type="qcurve"/>
      <point x="300.6815399298782" y="659.1146373421095"/>
      <point x="329.7065182160227" y="603.6209382809654"/>
      <point x="316.7562512025688" y="574.3584950425711" type="qcurve"/>
      <point x="315.54216367005756" y="571.6151409889717"/>
      <point x="315.54216367005756" y="571.6151409889717"/>
      <point x="281.70746367566414" y="586.5888872232775" type="qcurve" smooth="yes"/>
      <point x="172.88775288288525" y="634.7476926795589"/>
      <point x="172.88775288288525" y="634.7476926795589"/>
      <point x="187.86149911719122" y="668.5823926739522" type="qcurve"/>
      <point x="202.83524535149718" y="702.4170926683457"/>
      <point x="202.83524535149718" y="702.4170926683457"/>
    </contour>
    <contour>
      <point x="359.82883812360694" y="547.6416042068167" type="qcurve" smooth="yes"/>
      <point x="388.82316307954756" y="530.873207731622"/>
      <point x="388.82316307954756" y="530.873207731622"/>
      <point x="371.87187633411287" y="501.95982194451545" type="qcurve" smooth="yes"/>
      <point x="354.9205895886782" y="473.046436157409"/>
      <point x="333.4339748258814" y="429.1901323227815"/>
      <point x="288.67461446063186" y="328.0518128800811" type="qcurve" smooth="yes"/>
      <point x="243.5914974200458" y="226.18193235642082"/>
      <point x="226.99896780905817" y="188.68942695722808"/>
      <point x="211.6205257305818" y="153.9402756116349" type="qcurve" smooth="yes"/>
      <point x="196.2420836521054" y="119.1911242660417"/>
      <point x="196.2420836521054" y="119.1911242660417"/>
      <point x="162.04160311723206" y="134.32674883801582" type="qcurve" smooth="yes"/>
      <point x="128.57268366331857" y="149.13861673465362"/>
      <point x="128.57268366331857" y="149.13861673465362"/>
      <point x="144.35582158596537" y="184.80221943144664" type="qcurve" smooth="yes"/>
      <point x="159.8556724176928" y="219.82570618239978"/>
      <point x="181.62830883406204" y="269.0231888769502"/>
      <point x="223.2310416147823" y="363.02878778029196" type="qcurve" smooth="yes"/>
      <point x="269.4877766034625" y="467.5505772224317"/>
      <point x="294.9096407378715" y="507.69691981963035"/>
      <point x="313.9641655910658" y="535.6795051651449" type="qcurve" smooth="yes"/>
      <point x="330.9154523365005" y="564.5928909522514"/>
      <point x="330.9154523365005" y="564.5928909522514"/>
    </contour>
    <contour>
      <point x="281.70746367566414" y="586.5888872232775" type="qcurve" smooth="yes"/>
      <point x="315.54216367005756" y="571.6151409889717"/>
      <point x="315.54216367005756" y="571.6151409889717"/>
      <point x="300.52794785133455" y="537.6889958594581" type="qcurve" smooth="yes"/>
      <point x="285.51373203261153" y="503.76285072994466"/>
      <point x="260.6249376161301" y="447.52409263115567"/>
      <point x="217.48436062756218" y="350.0435785932545" type="qcurve" smooth="yes"/>
      <point x="174.42472280782837" y="252.7459548255933"/>
      <point x="152.04740318905675" y="213.54869003990535"/>
      <point x="130.79974937370957" y="185.55249016665195" type="qcurve" smooth="yes"/>
      <point x="113.4842363685215" y="155.8160981634657"/>
      <point x="113.4842363685215" y="155.8160981634657"/>
      <point x="84.530380996998" y="172.67593977378033" type="qcurve" smooth="yes"/>
      <point x="55.576525625474424" y="189.53578138409503"/>
      <point x="55.576525625474424" y="189.53578138409503"/>
      <point x="72.8920386306625" y="219.27217338728127" type="qcurve" smooth="yes"/>
      <point x="90.20755163585056" y="249.0085653904675"/>
      <point x="109.14302829964697" y="288.08871026628424"/>
      <point x="152.48595321030018" y="386.02644997978524" type="qcurve" smooth="yes"/>
      <point x="199.7544278094065" y="492.8343677999245"/>
      <point x="217.84433204382472" y="533.7103431985565"/>
      <point x="232.8585478625477" y="567.63648832807" type="qcurve" smooth="yes"/>
      <point x="247.87276368127073" y="601.5626334575835"/>
      <point x="247.87276368127073" y="601.5626334575835"/>
    </contour>
    <contour>
      <point x="1180.9679308316026" y="161.85604547148296" type="qcurve" smooth="yes"/>
      <point x="1216.7117791700853" y="177.45660013968472"/>
      <point x="1216.7117791700853" y="177.45660013968472"/>
      <point x="1231.5123053937639" y="143.54576966471404" type="qcurve"/>
      <point x="1246.3128316174425" y="109.63493918974336"/>
      <point x="1246.3128316174425" y="109.63493918974336"/>
      <point x="1243.5633048221748" y="108.43489652295875" type="qcurve"/>
      <point x="1205.9864386201803" y="92.03431341023361"/>
      <point x="1154.8244238273983" y="124.2592764411379"/>
      <point x="1146.4241251599049" y="143.50596400801328" type="qcurve"/>
      <point x="1145.22408249312" y="146.2554908032812"/>
      <point x="1145.22408249312" y="146.2554908032812"/>
    </contour>
    <contour>
      <point x="1243.5633048221748" y="108.43489652295875" type="qcurve"/>
      <point x="1332.4646712025033" y="147.23627608233255"/>
      <point x="1332.4646712025033" y="147.23627608233255"/>
      <point x="1347.2651974261819" y="113.32544560736187" type="qcurve"/>
      <point x="1362.0657236498605" y="79.41461513239119"/>
      <point x="1362.0657236498605" y="79.41461513239119"/>
      <point x="1240.1700357263173" y="26.212723571600236" type="qcurve" smooth="yes"/>
      <point x="1204.4261873878347" y="10.61216890339847"/>
      <point x="1204.4261873878347" y="10.61216890339847"/>
      <point x="1202.8261304987884" y="14.278204630422351" type="qcurve"/>
      <point x="1188.825632719633" y="46.35601724188109"/>
      <point x="1211.485492210716" y="94.43439874380329"/>
    </contour>
    <contour>
      <point x="1109.4802341546374" y="130.6549361350792" type="qcurve" smooth="yes"/>
      <point x="1145.22408249312" y="146.2554908032812"/>
      <point x="1145.22408249312" y="146.2554908032812"/>
      <point x="1146.4241251599049" y="143.50596400801328" type="qcurve"/>
      <point x="1159.6245944945372" y="113.26116926006648"/>
      <point x="1139.9977955337508" y="63.233289407399525"/>
      <point x="1106.0869650587802" y="48.43276318372091" type="qcurve"/>
      <point x="1103.3374382635122" y="47.23272051693607"/>
      <point x="1103.3374382635122" y="47.23272051693607"/>
      <point x="1088.5369120398336" y="81.14355099190675" type="qcurve"/>
      <point x="1073.7363858161548" y="115.05438146687743"/>
      <point x="1073.7363858161548" y="115.05438146687743"/>
    </contour>
    <contour>
      <point x="1106.0869650587802" y="48.43276318372091" type="qcurve"/>
      <point x="1130.8327062161911" y="59.23314718478355"/>
      <point x="1182.4254051634475" y="61.02016014997639"/>
      <point x="1202.8261304987884" y="14.278204630422351" type="qcurve"/>
      <point x="1234.8272682797153" y="-59.04250991005483"/>
      <point x="1234.8272682797153" y="-59.04250991005483"/>
      <point x="1199.0834199412327" y="-74.64306457825683" type="qcurve" smooth="yes"/>
      <point x="1163.3395716027503" y="-90.2436192464586"/>
      <point x="1163.3395716027503" y="-90.2436192464586"/>
      <point x="1118.1379644871909" y="13.32189004196539" type="qcurve"/>
      <point x="1103.3374382635122" y="47.23272051693607"/>
      <point x="1103.3374382635122" y="47.23272051693607"/>
    </contour>
    <contour>
      <point x="1010.1626409880047" y="586.7023741144928" type="qcurve" smooth="yes"/>
      <point x="1043.9721628039115" y="596.9851866956751"/>
      <point x="1043.9721628039115" y="596.9851866956751"/>
      <point x="1053.8099024645496" y="564.9453852236074" type="qcurve" smooth="yes"/>
      <point x="1064.0076549252233" y="532.0807257129594"/>
      <point x="1081.4669706234429" y="487.3282699663762"/>
      <point x="1125.7085436055743" y="385.96238211416653" type="qcurve" smooth="yes"/>
      <point x="1170.270127965515" y="283.8632871165522"/>
      <point x="1186.3106982782047" y="247.11127895313803"/>
      <point x="1201.511238724145" y="212.28393954641115" type="qcurve" smooth="yes"/>
      <point x="1216.7117791700853" y="177.45660013968472"/>
      <point x="1216.7117791700853" y="177.45660013968472"/>
      <point x="1180.7846290452514" y="161.77604262703065" type="qcurve" smooth="yes"/>
      <point x="1145.22408249312" y="146.2554908032812"/>
      <point x="1145.22408249312" y="146.2554908032812"/>
      <point x="1129.6235278249183" y="181.99933914176358" type="qcurve" smooth="yes"/>
      <point x="1114.3029831122994" y="217.10163122801703"/>
      <point x="1093.1422307546616" y="265.5849537179075"/>
      <point x="1052.0207687061707" y="359.80207190242066" type="qcurve" smooth="yes"/>
      <point x="1006.2991431016712" y="464.55904280212746"/>
      <point x="994.2806407503708" y="510.5950678393933"/>
      <point x="986.1908588327359" y="544.379760061243" type="qcurve" smooth="yes"/>
      <point x="976.3531191720979" y="576.4195615333106"/>
      <point x="976.3531191720979" y="576.4195615333106"/>
    </contour>
    <contour>
      <point x="924.8569652561359" y="554.1620654507869" type="qcurve" smooth="yes"/>
      <point x="960.4175118082674" y="569.6826172745364"/>
      <point x="960.4175118082674" y="569.6826172745364"/>
      <point x="975.2580394541721" y="535.6801359063901" type="qcurve" smooth="yes"/>
      <point x="990.4585799001125" y="500.85279649966344"/>
      <point x="1015.0594545692" y="444.4874971966718"/>
      <point x="1057.700970662285" y="346.787645071486" type="qcurve" smooth="yes"/>
      <point x="1100.2624839109176" y="249.2710947326514"/>
      <point x="1113.64716860435" y="207.10463631298563"/>
      <point x="1119.9039326584732" y="172.51991564661282" type="qcurve" smooth="yes"/>
      <point x="1130.1016851191466" y="139.655256135965"/>
      <point x="1130.1016851191466" y="139.655256135965"/>
      <point x="1096.2921633032397" y="129.37244355478265" type="qcurve" smooth="yes"/>
      <point x="1062.4826414873328" y="119.08963097360052"/>
      <point x="1062.4826414873328" y="119.08963097360052"/>
      <point x="1052.2848890266596" y="151.95429048424833" type="qcurve" smooth="yes"/>
      <point x="1042.087136565986" y="184.81894999489634"/>
      <point x="1026.4147033226093" y="223.47738809360783"/>
      <point x="983.5731801183935" y="321.6354946846716" type="qcurve" smooth="yes"/>
      <point x="936.8515189582401" y="428.68373791376825"/>
      <point x="918.9708832231472" y="469.6516871632598"/>
      <point x="903.770342777207" y="504.47902656998644" type="qcurve" smooth="yes"/>
      <point x="888.9298151313021" y="538.4815079381327"/>
      <point x="888.9298151313021" y="538.4815079381327"/>
    </contour>
    <contour>
      <point x="936.9592552520352" y="720.926493842621" type="qcurve" smooth="yes"/>
      <point x="972.7031035905178" y="736.5270485108229"/>
      <point x="972.7031035905178" y="736.5270485108229"/>
      <point x="987.5036298141965" y="702.6162180358522" type="qcurve"/>
      <point x="1002.3041560378751" y="668.7053875608815"/>
      <point x="1002.3041560378751" y="668.7053875608815"/>
      <point x="996.8051024473393" y="666.3053022273119" type="qcurve"/>
      <point x="966.5603076993925" y="653.1048328926796"/>
      <point x="912.8158193591386" y="678.7471801534962"/>
      <point x="902.815463802599" y="701.6599034473952" type="qcurve"/>
      <point x="901.2154069135527" y="705.3259391744191"/>
      <point x="901.2154069135527" y="705.3259391744191"/>
    </contour>
    <contour>
      <point x="996.8051024473393" y="666.3053022273119" type="qcurve"/>
      <point x="1084.789959895912" y="704.7066675644243"/>
      <point x="1084.789959895912" y="704.7066675644243"/>
      <point x="1099.5904861195907" y="670.7958370894536" type="qcurve"/>
      <point x="1114.3910123432693" y="636.8850066144829"/>
      <point x="1114.3910123432693" y="636.8850066144829"/>
      <point x="996.16136014675" y="585.2831719427382" type="qcurve" smooth="yes"/>
      <point x="960.4175118082674" y="569.6826172745364"/>
      <point x="960.4175118082674" y="569.6826172745364"/>
      <point x="958.8174549192211" y="573.3486530015603" type="qcurve"/>
      <point x="946.0169998068502" y="602.6769388177511"/>
      <point x="971.1428523581724" y="655.1049040039876"/>
    </contour>
    <contour>
      <point x="865.47155857507" y="689.7253845062173" type="qcurve" smooth="yes"/>
      <point x="901.2154069135527" y="705.3259391744191"/>
      <point x="901.2154069135527" y="705.3259391744191"/>
      <point x="902.815463802599" y="701.6599034473952" type="qcurve"/>
      <point x="918.8160326930624" y="664.9995461771566"/>
      <point x="890.4900663636475" y="619.903652444968"/>
      <point x="863.9113073427245" y="608.303239999382" type="qcurve"/>
      <point x="792.4236106657594" y="577.1021306629783"/>
      <point x="792.4236106657594" y="577.1021306629783"/>
      <point x="777.6230844420807" y="611.012961137949" type="qcurve"/>
      <point x="762.822558218402" y="644.9237916129197"/>
      <point x="762.822558218402" y="644.9237916129197"/>
    </contour>
    <contour>
      <point x="863.9113073427245" y="608.303239999382" type="qcurve"/>
      <point x="879.491959182576" y="615.103481777829"/>
      <point x="941.6168433619728" y="612.7585370670668"/>
      <point x="958.8174549192211" y="573.3486530015603" type="qcurve"/>
      <point x="960.4175118082674" y="569.6826172745364"/>
      <point x="960.4175118082674" y="569.6826172745364"/>
      <point x="924.6736634697847" y="554.0820626063346" type="qcurve" smooth="yes"/>
      <point x="888.9298151313021" y="538.4815079381327"/>
      <point x="888.9298151313021" y="538.4815079381327"/>
      <point x="874.1292889076235" y="572.3923384131034" type="qcurve"/>
      <point x="859.3287626839448" y="606.3031688880741"/>
      <point x="859.3287626839448" y="606.3031688880741"/>
    </contour>
  </outline>
</glyph>
<glyph name="B" format="1">
  <advance width="960.0"/>
  <outline>
    <contour>
      <point x="192.3" y="156.1" type="qcurve"/>
      <point x="155.4" y="160.2"/>
      <point x="155.4" y="160.2"/>
      <point x="159.2" y="194.4" type="qcurve"/>
      <point x="163.0" y="228.6"/>
      <point x="164.0" y="309.0"/>
      <point x="164.0" y="424.0" type="qcurve"/>
      <point x="164.0" y="535.0"/>
      <point x="164.0" y="621.0"/>
      <point x="164.0" y="659.0" type="qcurve"/>
      <point x="164.0" y="697.0"/>
      <point x="164.0" y="697.0"/>
      <point x="205.0" y="697.0" type="qcurve"/>
      <point x="246.0" y="697.0"/>
      <point x="246.0" y="697.0"/>
      <point x="246.0" y="659.0" type="qcurve"/>
      <point x="246.0" y="621.0"/>
      <point x="246.0" y="534.0"/>
      <point x="246.0" y="414.1" type="qcurve"/>
      <point x="246.0" y="301.6"/>
      <point x="239.1" y="220.4"/>
      <point x="233.0" y="186.2" type="qcurve"/>
      <point x="229.2" y="152.0"/>
      <point x="229.2" y="152.0"/>
    </contour>
    <contour>
      <point x="192.3" y="853.1" type="qcurve"/>
      <point x="155.4" y="857.2"/>
      <point x="155.4" y="857.2"/>
      <point x="159.2" y="891.4" type="qcurve"/>
      <point x="163.0" y="925.6"/>
      <point x="164.0" y="952.9"/>
      <point x="164.0" y="1032.0" type="qcurve"/>
      <point x="164.0" y="1103.0"/>
      <point x="164.0" y="1140.0"/>
      <point x="164.0" y="1178.0" type="qcurve"/>
      <point x="164.0" y="1216.0"/>
      <point x="164.0" y="1216.0"/>
      <point x="205.0" y="1216.0" type="qcurve"/>
      <point x="246.0" y="1216.0"/>
      <point x="246.0" y="1216.0"/>
      <point x="246.0" y="1178.0" type="qcurve"/>
      <point x="246.0" y="1140.0"/>
      <point x="246.0" y="1103.0"/>
      <point x="246.0" y="1026.5" type="qcurve"/>
      <point x="246.0" y="945.5"/>
      <point x="239.1" y="917.4"/>
      <point x="233.0" y="883.2" type="qcurve"/>
      <point x="229.2" y="849.0"/>
      <point x="229.2" y="849.0"/>
    </contour>
    <contour>
      <point x="287.0" y="152.0" type="qcurve"/>
      <point x="246.0" y="152.0"/>
      <point x="246.0" y="152.0"/>
      <point x="246.0" y="190.0" type="qcurve"/>
      <point x="246.0" y="228.0"/>
      <point x="246.0" y="309.0"/>
      <point x="246.0" y="424.0" type="qcurve"/>
      <point x="246.0" y="534.0"/>
      <point x="246.0" y="621.0"/>
      <point x="246.0" y="659.0" type="qcurve"/>
      <point x="246.0" y="697.0"/>
      <point x="246.0" y="697.0"/>
      <point x="286.6" y="697.0" type="qcurve"/>
      <point x="328.0" y="697.0"/>
      <point x="328.0" y="697.0"/>
      <point x="328.0" y="659.0" type="qcurve"/>
      <point x="328.0" y="621.0"/>
      <point x="328.0" y="534.0"/>
      <point x="328.0" y="424.0" type="qcurve"/>
      <point x="328.0" y="309.0"/>
      <point x="328.0" y="228.0"/>
      <point x="328.0" y="190.0" type="qcurve"/>
      <point x="328.0" y="152.0"/>
      <point x="328.0" y="152.0"/>
    </contour>
    <contour>
      <point x="287.0" y="849.0" type="qcurve"/>
      <point x="246.0" y="849.0"/>
      <point x="246.0" y="849.0"/>
      <point x="246.0" y="887.1" type="qcurve"/>
      <point x="246.0" y="925.1"/>
      <point x="246.0" y="949.9"/>
      <point x="246.0" y="1029.2" type="qcurve"/>
      <point x="246.0" y="1103.0"/>
      <point x="246.0" y="1140.0"/>
      <point x="246.0" y="1178.0" type="qcurve"/>
      <point x="246.0" y="1216.0"/>
      <point x="246.0" y="1216.0"/>
      <point x="287.1" y="1216.0" type="qcurve"/>
      <point x="328.0" y="1216.0"/>
      <point x="328.0" y="1216.0"/>
      <point x="328.0" y="1178.1" type="qcurve"/>
      <point x="328.0" y="1140.0"/>
      <point x="328.0" y="1103.0"/>
      <point x="328.0" y="1029.2" type="qcurve"/>
      <point x="328.0" y="949.9"/>
      <point x="328.0" y="925.1"/>
      <point x="328.0" y="887.1" type="qcurve"/>
      <point x="328.0" y="849.0"/>
      <point x="328.0" y="849.0"/>
    </contour>
    <contour>
      <point x="681.0" y="1051.2" type="qcurve" smooth="yes"/>
      <point x="642.5" y="1054.4"/>
      <point x="642.5" y="1054.3"/>
      <point x="643.2" y="1062.0" type="qcurve" smooth="yes"/>
      <point x="645.3" y="1132.0"/>
      <point x="547.0" y="1216.0"/>
      <point x="455.0" y="1216.0" type="qcurve"/>
      <point x="411.2" y="1216.0"/>
      <point x="381.8" y="1214.7"/>
      <point x="372.8" y="1211.5" type="qcurve"/>
      <point x="336.8" y="1207.8"/>
      <point x="336.8" y="1207.8"/>
      <point x="332.9" y="1241.1" type="qcurve"/>
      <point x="328.1" y="1276.2"/>
      <point x="328.1" y="1276.2"/>
      <point x="364.1" y="1281.0" type="qcurve"/>
      <point x="373.0" y="1285.7"/>
      <point x="411.7" y="1292.0"/>
      <point x="428.9" y="1292.0" type="qcurve"/>
      <point x="580.8" y="1292.0"/>
      <point x="729.4" y="1163.4"/>
      <point x="720.9" y="1055.6" type="qcurve"/>
      <point x="720.3" y="1048.0"/>
      <point x="720.3" y="1048.0"/>
    </contour>
    <contour>
      <point x="364.0" y="87.0" type="qcurve"/>
      <point x="328.0" y="91.8"/>
      <point x="328.0" y="91.8"/>
      <point x="332.6" y="126.0" type="qcurve"/>
      <point x="336.7" y="160.2"/>
      <point x="336.7" y="160.2"/>
      <point x="372.7" y="156.5" type="qcurve"/>
      <point x="382.6" y="153.2"/>
      <point x="413.8" y="152.0"/>
      <point x="427.0" y="152.0" type="qcurve"/>
      <point x="581.8" y="152.0"/>
      <point x="747.8" y="286.8"/>
      <point x="745.4" y="394.8" type="qcurve"/>
      <point x="743.6" y="405.8"/>
      <point x="743.6" y="405.8"/>
      <point x="782.3" y="409.5" type="qcurve"/>
      <point x="820.1" y="413.1"/>
      <point x="820.1" y="413.1"/>
      <point x="821.0" y="403.6" type="qcurve"/>
      <point x="831.7" y="268.5"/>
      <point x="627.1" y="76.0"/>
      <point x="426.1" y="76.0" type="qcurve"/>
      <point x="409.0" y="76.0"/>
      <point x="373.9" y="81.5"/>
    </contour>
    <contour>
      <point x="775.5" y="1053.6" type="qcurve" smooth="yes"/>
      <point x="742.4" y="1050.2"/>
      <point x="742.4" y="1050.2"/>
      <point x="741.7" y="1057.0" type="qcurve" smooth="yes"/>
      <point x="732.9" y="1152.9"/>
      <point x="585.2" y="1292.0"/>
      <point x="428.9" y="1292.0" type="qcurve" smooth="yes"/>
      <point x="411.3" y="1292.0"/>
      <point x="373.0" y="1297.9"/>
      <point x="364.0" y="1304.4" type="qcurve"/>
      <point x="328.0" y="1307.9"/>
      <point x="328.0" y="1307.9"/>
      <point x="332.1" y="1342.1" type="qcurve"/>
      <point x="336.2" y="1376.3"/>
      <point x="336.2" y="1376.3"/>
      <point x="372.2" y="1372.8" type="qcurve"/>
      <point x="381.2" y="1369.9"/>
      <point x="407.0" y="1368.0"/>
      <point x="439.9" y="1368.0" type="qcurve"/>
      <point x="599.8" y="1368.0"/>
      <point x="803.5" y="1197.0"/>
      <point x="807.4" y="1068.4" type="qcurve"/>
      <point x="809.5" y="1057.1"/>
      <point x="809.5" y="1057.1"/>
    </contour>
    <contour>
      <point x="372.1" y="-4.800000000000001" type="qcurve"/>
      <point x="336.1" y="-8.3"/>
      <point x="336.1" y="-8.3"/>
      <point x="332.0" y="26.799999999999997" type="qcurve"/>
      <point x="327.9" y="60.1"/>
      <point x="327.9" y="60.1"/>
      <point x="363.9" y="63.6" type="qcurve"/>
      <point x="373.8" y="70.1"/>
      <point x="407.5" y="76.0"/>
      <point x="426.1" y="76.0" type="qcurve"/>
      <point x="630.6" y="76.5"/>
      <point x="833.8" y="276.5"/>
      <point x="841.2" y="403.0" type="qcurve"/>
      <point x="842.2" y="411.6"/>
      <point x="842.2" y="411.6"/>
      <point x="877.6" y="407.8" type="qcurve"/>
      <point x="912.9" y="404.0"/>
      <point x="912.9" y="404.0"/>
      <point x="912.4" y="398.9" type="qcurve"/>
      <point x="910.8" y="226.7"/>
      <point x="670.7" y="0.8"/>
      <point x="450.2" y="0.0" type="qcurve"/>
      <point x="437.5" y="0.0"/>
      <point x="382.0" y="-1.9000000000000001"/>
    </contour>
    <contour>
      <point x="368.0" y="697.0" type="qcurve" smooth="yes"/>
      <point x="328.0" y="697.0"/>
      <point x="328.0" y="697.0"/>
      <point x="328.0" y="735.0" type="qcurve" smooth="yes"/>
      <point x="328.0" y="773.0"/>
      <point x="328.0" y="773.0"/>
      <point x="368.0" y="773.0" type="qcurve"/>
      <point x="379.0" y="773.0"/>
      <point x="414.0" y="773.0"/>
      <point x="425.0" y="773.0" type="qcurve" smooth="yes"/>
      <point x="465.0" y="773.0"/>
      <point x="465.0" y="773.0"/>
      <point x="465.0" y="734.0" type="qcurve" smooth="yes"/>
      <point x="465.0" y="697.0"/>
      <point x="465.0" y="697.0"/>
      <point x="425.0" y="697.0" type="qcurve" smooth="yes"/>
      <point x="414.0" y="697.0"/>
      <point x="379.0" y="697.0"/>
    </contour>
    <contour>
      <point x="368.0" y="773.0" type="qcurve" smooth="yes"/>
      <point x="328.0" y="773.0"/>
      <point x="328.0" y="773.0"/>
      <point x="328.0" y="811.0" type="qcurve" smooth="yes"/>
      <point x="328.0" y="849.0"/>
      <point x="328.0" y="849.0"/>
      <point x="368.0" y="849.0" type="qcurve"/>
      <point x="379.0" y="849.0"/>
      <point x="414.0" y="849.0"/>
      <point x="425.0" y="849.0" type="qcurve" smooth="yes"/>
      <point x="465.0" y="849.0"/>
      <point x="465.0" y="849.0"/>
      <point x="465.0" y="810.0" type="qcurve" smooth="yes"/>
      <point x="465.0" y="773.0"/>
      <point x="465.0" y="773.0"/>
      <point x="425.0" y="773.0" type="qcurve" smooth="yes"/>
      <point x="411.0" y="773.0"/>
      <point x="384.0" y="773.0"/>
    </contour>
    <contour>
      <point x="671.0" y="837.0" type="qcurve"/>
      <point x="619.0" y="808.0"/>
      <point x="619.0" y="808.0"/>
      <point x="619.0" y="851.0" type="qcurve"/>
      <point x="619.0" y="896.0"/>
      <point x="619.0" y="896.0"/>
      <point x="638.4" y="919.0" type="qcurve"/>
      <point x="645.1" y="947.5"/>
      <point x="645.9" y="957.9"/>
      <point x="645.3" y="986.2" type="qcurve" smooth="yes"/>
      <point x="642.7" y="1014.9"/>
      <point x="642.9" y="1015.0"/>
      <point x="681.3" y="1018.2" type="qcurve"/>
      <point x="720.6" y="1021.5"/>
      <point x="720.6" y="1021.5"/>
      <point x="722.5" y="999.4" type="qcurve"/>
      <point x="725.9" y="958.1"/>
      <point x="710.0" y="871.0"/>
    </contour>
    <contour>
      <point x="782.7" y="443.6" type="qcurve" smooth="yes"/>
      <point x="742.7" y="446.3"/>
      <point x="742.7" y="446.3"/>
      <point x="743.2" y="454.1" type="qcurve" smooth="yes"/>
      <point x="745.2" y="515.1"/>
      <point x="701.4" y="601.4"/>
      <point x="652.0" y="637.0" type="qcurve"/>
      <point x="619.0" y="660.0"/>
      <point x="619.0" y="660.0"/>
      <point x="619.0" y="695.0" type="qcurve"/>
      <point x="619.0" y="740.0"/>
      <point x="619.0" y="740.0"/>
      <point x="668.0" y="714.0" type="qcurve"/>
      <point x="746.1" y="673.5"/>
      <point x="829.1" y="539.1"/>
      <point x="822.4" y="450.8" type="qcurve"/>
      <point x="821.7" y="441.0"/>
      <point x="821.7" y="441.0"/>
    </contour>
    <contour>
      <point x="725.7" y="790.8" type="qcurve"/>
      <point x="698.0" y="775.0"/>
      <point x="698.0" y="775.0"/>
      <point x="658.0" y="792.0" type="qcurve"/>
      <point x="619.0" y="808.0"/>
      <point x="619.0" y="808.0"/>
      <point x="671.0" y="837.0" type="qcurve"/>
      <point x="710.0" y="870.7"/>
      <point x="733.6" y="963.2"/>
      <point x="739.7" y="1000.7" type="qcurve"/>
      <point x="741.8" y="1019.8"/>
      <point x="741.8" y="1019.8"/>
      <point x="775.6" y="1016.1" type="qcurve"/>
      <point x="810.3" y="1012.3"/>
      <point x="810.3" y="1012.3"/>
      <point x="809.3" y="1003.6" type="qcurve"/>
      <point x="807.3" y="951.7"/>
      <point x="775.7" y="828.5"/>
    </contour>
    <contour>
      <point x="877.2" y="445.2" type="qcurve" smooth="yes"/>
      <point x="838.7" y="441.4"/>
      <point x="838.7" y="441.3"/>
      <point x="837.6" y="451.7" type="qcurve" smooth="yes"/>
      <point x="830.2" y="536.2"/>
      <point x="747.2" y="673.0"/>
      <point x="668.0" y="714.0" type="qcurve"/>
      <point x="619.0" y="740.0"/>
      <point x="619.0" y="740.0"/>
      <point x="658.0" y="757.0" type="qcurve"/>
      <point x="698.0" y="775.0"/>
      <point x="698.0" y="775.0"/>
      <point x="725.0" y="763.0" type="qcurve"/>
      <point x="802.0" y="726.0"/>
      <point x="908.9" y="553.4"/>
      <point x="914.8" y="458.3" type="qcurve" smooth="yes"/>
      <point x="915.7" y="448.9"/>
      <point x="915.7" y="449.0"/>
    </contour>
    <contour>
      <point x="688.0" y="1021.4" type="qcurve"/>
      <point x="648.0" y="1021.4"/>
      <point x="648.0" y="1021.4"/>
      <point x="648.0" y="1028.1" type="qcurve"/>
      <point x="648.0" y="1034.6"/>
      <point x="648.0" y="1034.6"/>
      <point x="688.0" y="1034.6" type="qcurve" smooth="yes"/>
      <point x="729.0" y="1034.6"/>
      <point x="729.0" y="1034.6"/>
      <point x="729.0" y="1028.1" type="qcurve"/>
      <point x="729.0" y="1021.4"/>
      <point x="729.0" y="1021.4"/>
    </contour>
    <contour>
      <point x="688.0" y="1034.6" type="qcurve" smooth="yes"/>
      <point x="648.0" y="1034.6"/>
      <point x="648.0" y="1034.6"/>
      <point x="648.0" y="1041.2" type="qcurve"/>
      <point x="648.0" y="1047.9"/>
      <point x="648.0" y="1047.9"/>
      <point x="688.0" y="1047.9" type="qcurve" smooth="yes"/>
      <point x="729.0" y="1047.9"/>
      <point x="729.0" y="1047.9"/>
      <point x="729.0" y="1041.2" type="qcurve"/>
      <point x="729.0" y="1034.6"/>
      <point x="729.0" y="1034.6"/>
    </contour>
    <contour>
      <point x="790.0" y="412.9" type="qcurve"/>
      <point x="749.0" y="412.9"/>
      <point x="749.0" y="412.9"/>
      <point x="749.0" y="420.2" type="qcurve"/>
      <point x="749.0" y="427.3"/>
      <point x="749.0" y="427.3"/>
      <point x="790.0" y="427.3" type="qcurve" smooth="yes"/>
      <point x="830.0" y="427.3"/>
      <point x="830.0" y="427.3"/>
      <point x="830.0" y="420.2" type="qcurve"/>
      <point x="830.0" y="412.9"/>
      <point x="830.0" y="412.9"/>
    </contour>
    <contour>
      <point x="790.0" y="427.3" type="qcurve" smooth="yes"/>
      <point x="749.0" y="427.3"/>
      <point x="749.0" y="427.3"/>
      <point x="749.0" y="434.6" type="qcurve" smooth="yes"/>
      <point x="749.0" y="441.6"/>
      <point x="749.0" y="441.6"/>
      <point x="790.0" y="441.6" type="qcurve" smooth="yes"/>
      <point x="830.0" y="441.6"/>
      <point x="830.0" y="441.6"/>
      <point x="830.0" y="434.6" type="qcurve"/>
      <point x="830.0" y="427.3"/>
      <point x="830.0" y="427.3"/>
    </contour>
    <contour>
      <point x="768.0" y="1021.4" type="qcurve"/>
      <point x="729.0" y="1021.4"/>
      <point x="729.0" y="1021.4"/>
      <point x="729.0" y="1028.1" type="qcurve"/>
      <point x="729.0" y="1034.6"/>
      <point x="729.0" y="1034.6"/>
      <point x="768.0" y="1034.6" type="qcurve" smooth="yes"/>
      <point x="808.0" y="1034.6"/>
      <point x="808.0" y="1034.6"/>
      <point x="808.0" y="1028.1" type="qcurve"/>
      <point x="808.0" y="1021.4"/>
      <point x="808.0" y="1021.4"/>
    </contour>
    <contour>
      <point x="768.0" y="1034.6" type="qcurve" smooth="yes"/>
      <point x="729.0" y="1034.6"/>
      <point x="729.0" y="1034.6"/>
      <point x="729.0" y="1041.2" type="qcurve"/>
      <point x="729.0" y="1047.9"/>
      <point x="729.0" y="1047.9"/>
      <point x="768.0" y="1047.9" type="qcurve" smooth="yes"/>
      <point x="808.0" y="1047.9"/>
      <point x="808.0" y="1047.9"/>
      <point x="808.0" y="1041.2" type="qcurve"/>
      <point x="808.0" y="1034.6"/>
      <point x="808.0" y="1034.6"/>
    </contour>
    <contour>
      <point x="871.0" y="412.9" type="qcurve"/>
      <point x="830.0" y="412.9"/>
      <point x="830.0" y="412.9"/>
      <point x="830.0" y="420.2" type="qcurve"/>
      <point x="830.0" y="427.3"/>
      <point x="830.0" y="427.3"/>
      <point x="871.0" y="427.3" type="qcurve" smooth="yes"/>
      <point x="912.0" y="427.3"/>
      <point x="912.0" y="427.3"/>
      <point x="912.0" y="420.2" type="qcurve"/>
      <point x="912.0" y="412.9"/>
      <point x="912.0" y="412.9"/>
    </contour>
    <contour>
      <point x="871.0" y="427.3" type="qcurve" smooth="yes"/>
      <point x="830.0" y="427.3"/>
      <point x="830.0" y="427.3"/>
      <point x="830.0" y="434.6" type="qcurve"/>
      <point x="830.0" y="441.6"/>
      <point x="830.0" y="441.6"/>
      <point x="871.0" y="441.6" type="qcurve" smooth="yes"/>
      <point x="912.0" y="441.6"/>
      <point x="912.0" y="441.6"/>
      <point x="912.0" y="434.6" type="qcurve"/>
      <point x="912.0" y="427.3"/>
      <point x="912.0" y="427.3"/>
    </contour>
    <contour>
      <point x="162.0" y="697.0" type="qcurve" smooth="yes"/>
      <point x="109.0" y="697.0"/>
      <point x="109.0" y="697.0"/>
      <point x="109.0" y="735.0" type="qcurve"/>
      <point x="109.0" y="773.0"/>
      <point x="109.0" y="773.0"/>
      <point x="174.0" y="773.0" type="qcurve"/>
      <point x="186.0" y="774.0"/>
      <point x="246.0" y="729.0"/>
      <point x="246.0" y="702.0" type="qcurve"/>
      <point x="246.0" y="697.0"/>
      <point x="246.0" y="697.0"/>
    </contour>
    <contour>
      <point x="174.0" y="773.0" type="qcurve"/>
      <point x="164.0" y="773.0"/>
      <point x="164.0" y="773.0"/>
      <point x="164.0" y="811.0" type="qcurve"/>
      <point x="164.0" y="834.0"/>
      <point x="182.0" y="849.0"/>
      <point x="205.0" y="849.0" type="qcurve" smooth="yes"/>
      <point x="246.0" y="849.0"/>
      <point x="246.0" y="849.0"/>
      <point x="246.0" y="844.0" type="qcurve"/>
      <point x="246.0" y="817.0"/>
      <point x="186.0" y="774.0"/>
    </contour>
    <contour>
      <point x="287.0" y="697.0" type="qcurve" smooth="yes"/>
      <point x="246.0" y="697.0"/>
      <point x="246.0" y="697.0"/>
      <point x="246.0" y="702.0" type="qcurve"/>
      <point x="246.0" y="729.0"/>
      <point x="306.0" y="774.0"/>
      <point x="323.0" y="773.0" type="qcurve"/>
      <point x="328.0" y="773.0"/>
      <point x="328.0" y="773.0"/>
      <point x="328.0" y="735.0" type="qcurve"/>
      <point x="328.0" y="714.0"/>
      <point x="312.0" y="697.0"/>
    </contour>
    <contour>
      <point x="323.0" y="773.0" type="qcurve"/>
      <point x="306.0" y="774.0"/>
      <point x="246.0" y="817.0"/>
      <point x="246.0" y="844.0" type="qcurve"/>
      <point x="246.0" y="849.0"/>
      <point x="246.0" y="849.0"/>
      <point x="286.0" y="849.0" type="qcurve"/>
      <point x="342.0" y="849.0"/>
      <point x="342.0" y="849.0"/>
      <point x="342.0" y="811.0" type="qcurve"/>
      <point x="342.0" y="773.0"/>
      <point x="342.0" y="773.0"/>
    </contour>
    <contour>
      <point x="205.0" y="-79.0" type="qcurve"/>
      <point x="164.0" y="-79.0"/>
      <point x="164.0" y="-79.0"/>
      <point x="164.0" y="-2.0" type="qcurve"/>
      <point x="164.0" y="76.0"/>
      <point x="164.0" y="76.0"/>
      <point x="171.0" y="76.0" type="qcurve"/>
      <point x="210.0" y="76.0"/>
      <point x="246.0" y="40.0"/>
      <point x="246.0" y="-2.0" type="qcurve"/>
      <point x="246.0" y="-79.0"/>
      <point x="246.0" y="-79.0"/>
    </contour>
    <contour>
      <point x="171.0" y="76.0" type="qcurve"/>
      <point x="164.0" y="76.0"/>
      <point x="164.0" y="76.0"/>
      <point x="164.0" y="114.0" type="qcurve"/>
      <point x="164.0" y="152.0"/>
      <point x="164.0" y="152.0"/>
      <point x="205.0" y="152.0" type="qcurve" smooth="yes"/>
      <point x="246.0" y="152.0"/>
      <point x="246.0" y="152.0"/>
      <point x="246.0" y="145.0" type="qcurve"/>
      <point x="246.0" y="108.0"/>
      <point x="214.0" y="76.0"/>
    </contour>
    <contour>
      <point x="287.0" y="0.0" type="qcurve" smooth="yes"/>
      <point x="246.0" y="0.0"/>
      <point x="246.0" y="0.0"/>
      <point x="246.0" y="4.0" type="qcurve"/>
      <point x="246.0" y="43.0"/>
      <point x="279.0" y="76.0"/>
      <point x="322.0" y="76.0" type="qcurve"/>
      <point x="328.0" y="76.0"/>
      <point x="328.0" y="76.0"/>
      <point x="328.0" y="38.0" type="qcurve"/>
      <point x="328.0" y="0.0"/>
      <point x="328.0" y="0.0"/>
    </contour>
    <contour>
      <point x="322.0" y="76.0" type="qcurve"/>
      <point x="280.0" y="76.0"/>
      <point x="246.0" y="110.0"/>
      <point x="246.0" y="145.0" type="qcurve"/>
      <point x="246.0" y="152.0"/>
      <point x="246.0" y="152.0"/>
      <point x="287.0" y="152.0" type="qcurve" smooth="yes"/>
      <point x="328.0" y="152.0"/>
      <point x="328.0" y="152.0"/>
      <point x="328.0" y="114.0" type="qcurve"/>
      <point x="328.0" y="76.0"/>
      <point x="328.0" y="76.0"/>
    </contour>
    <contour>
      <point x="205.0" y="1216.0" type="qcurve" smooth="yes"/>
      <point x="164.0" y="1216.0"/>
      <point x="164.0" y="1216.0"/>
      <point x="164.0" y="1254.0" type="qcurve"/>
      <point x="164.0" y="1292.0"/>
      <point x="164.0" y="1292.0"/>
      <point x="168.0" y="1292.0" type="qcurve"/>
      <point x="200.0" y="1292.0"/>
      <point x="246.0" y="1245.0"/>
      <point x="246.0" y="1219.0" type="qcurve"/>
      <point x="246.0" y="1216.0"/>
      <point x="246.0" y="1216.0"/>
    </contour>
    <contour>
      <point x="164.0" y="1292.0" type="qcurve" smooth="yes"/>
      <point x="82.0" y="1292.0"/>
      <point x="82.0" y="1292.0"/>
      <point x="82.0" y="1330.0" type="qcurve"/>
      <point x="82.0" y="1368.0"/>
      <point x="82.0" y="1368.0"/>
      <point x="164.0" y="1368.0" type="qcurve" smooth="yes"/>
      <point x="246.0" y="1368.0"/>
      <point x="246.0" y="1368.0"/>
      <point x="246.0" y="1364.0" type="qcurve"/>
      <point x="246.0" y="1331.0"/>
      <point x="204.0" y="1292.0"/>
    </contour>
    <contour>
      <point x="287.0" y="1216.0" type="qcurve" smooth="yes"/>
      <point x="246.0" y="1216.0"/>
      <point x="246.0" y="1216.0"/>
      <point x="246.0" y="1219.0" type="qcurve"/>
      <point x="246.0" y="1249.0"/>
      <point x="293.0" y="1292.0"/>
      <point x="324.0" y="1292.0" type="qcurve"/>
      <point x="328.0" y="1292.0"/>
      <point x="328.0" y="1292.0"/>
      <point x="328.0" y="1254.0" type="qcurve"/>
      <point x="328.0" y="1216.0"/>
      <point x="328.0" y="1216.0"/>
    </contour>
    <contour>
      <point x="324.0" y="1292.0" type="qcurve"/>
      <point x="289.0" y="1292.0"/>
      <point x="246.0" y="1333.0"/>
      <point x="246.0" y="1368.0" type="qcurve"/>
      <point x="226.0" y="1444.0"/>
      <point x="226.0" y="1444.0"/>
      <point x="267.0" y="1444.0" type="qcurve" smooth="yes"/>
      <point x="308.0" y="1444.0"/>
      <point x="308.0" y="1444.0"/>
      <point x="328.0" y="1368.0" type="qcurve"/>
      <point x="328.0" y="1292.0"/>
      <point x="328.0" y="1292.0"/>
    </contour>
    <contour>
      <point x="507.0" y="695.0" type="qcurve"/>
      <point x="465.0" y="697.0"/>
      <point x="465.0" y="697.0"/>
      <point x="465.0" y="735.0" type="qcurve"/>
      <point x="465.0" y="773.0"/>
      <point x="465.0" y="773.0"/>
      <point x="468.0" y="773.0" type="qcurve"/>
      <point x="512.0" y="773.0"/>
      <point x="547.0" y="733.0"/>
      <point x="547.0" y="694.0" type="qcurve"/>
      <point x="547.0" y="691.0"/>
      <point x="547.0" y="691.0"/>
    </contour>
    <contour>
      <point x="468.0" y="773.0" type="qcurve"/>
      <point x="465.0" y="773.0"/>
      <point x="465.0" y="773.0"/>
      <point x="465.0" y="811.0" type="qcurve"/>
      <point x="465.0" y="849.0"/>
      <point x="465.0" y="849.0"/>
      <point x="506.0" y="851.0" type="qcurve"/>
      <point x="547.0" y="855.0"/>
      <point x="547.0" y="855.0"/>
      <point x="547.0" y="850.0" type="qcurve"/>
      <point x="547.0" y="805.0"/>
      <point x="497.0" y="773.0"/>
    </contour>
    <contour>
      <point x="581.0" y="680.0" type="qcurve"/>
      <point x="547.0" y="691.0"/>
      <point x="547.0" y="691.0"/>
      <point x="547.0" y="694.0" type="qcurve"/>
      <point x="547.0" y="729.0"/>
      <point x="591.0" y="753.0"/>
      <point x="609.0" y="745.0" type="qcurve"/>
      <point x="619.0" y="740.0"/>
      <point x="619.0" y="740.0"/>
      <point x="619.0" y="695.0" type="qcurve"/>
      <point x="619.0" y="660.0"/>
      <point x="619.0" y="660.0"/>
    </contour>
    <contour>
      <point x="610.0" y="804.0" type="qcurve"/>
      <point x="592.0" y="793.0"/>
      <point x="547.0" y="823.0"/>
      <point x="547.0" y="850.0" type="qcurve"/>
      <point x="547.0" y="855.0"/>
      <point x="547.0" y="855.0"/>
      <point x="582.0" y="871.0" type="qcurve"/>
      <point x="619.0" y="896.0"/>
      <point x="619.0" y="896.0"/>
      <point x="619.0" y="851.0" type="qcurve"/>
      <point x="619.0" y="808.0"/>
      <point x="619.0" y="808.0"/>
    </contour>
    <contour>
      <point x="609.0" y="745.0" type="qcurve"/>
      <point x="598.0" y="752.0"/>
      <point x="595.0" y="796.0"/>
      <point x="610.0" y="804.0" type="qcurve"/>
      <point x="619.0" y="808.0"/>
      <point x="619.0" y="808.0"/>
      <point x="636.0" y="793.0" type="qcurve"/>
      <point x="641.0" y="783.0"/>
      <point x="640.0" y="763.0"/>
      <point x="636.0" y="756.0" type="qcurve"/>
      <point x="619.0" y="740.0"/>
      <point x="619.0" y="740.0"/>
    </contour>
  </outline>
</glyph>
<glyph name="BaseCrown2" format="1">
  <advance width="500.0"/>
  <outline>
    <contour>
      <point x="209.0" y="0.0" type="qcurve"/>
      <point x="204.0" y="0.0"/>
      <point x="204.0" y="0.0"/>
      <point x="190.0" y="39.0" type="qcurve"/>
      <point x="175.0" y="80.0"/>
      <point x="175.0" y="80.0"/>
      <point x="182.0" y="80.0" type="qcurve"/>
      <point x="211.0" y="80.0"/>
      <point x="252.0" y="34.0"/>
      <point x="252.0" y="3.0" type="qcurve"/>
      <point x="252.0" y="0.0"/>
      <point x="252.0" y="0.0"/>
    </contour>
    <contour>
      <point x="182.0" y="80.0" type="qcurve"/>
      <point x="175.0" y="80.0"/>
      <point x="175.0" y="80.0"/>
      <point x="161.0" y="115.0" type="qcurve"/>
      <point x="148.0" y="152.0"/>
      <point x="148.0" y="152.0"/>
      <point x="189.0" y="152.0" type="qcurve"/>
      <point x="228.0" y="152.0"/>
      <point x="228.0" y="152.0"/>
      <point x="230.0" y="147.0" type="qcurve"/>
      <point x="239.0" y="126.0"/>
      <point x="207.0" y="80.0"/>
    </contour>
    <contour>
      <point x="230.0" y="147.0" type="qcurve"/>
      <point x="228.0" y="152.0"/>
      <point x="229.0" y="152.0"/>
      <point x="230.0" y="158.0" type="qcurve"/>
      <point x="252.0" y="174.0"/>
      <point x="251.0" y="174.0"/>
      <point x="274.0" y="160.0" type="qcurve"/>
      <point x="276.0" y="152.0"/>
      <point x="276.0" y="152.0"/>
      <point x="275.0" y="149.0" type="qcurve"/>
      <point x="262.0" y="133.0"/>
      <point x="240.0" y="132.0"/>
    </contour>
    <contour>
      <point x="298.0" y="0.0" type="qcurve"/>
      <point x="252.0" y="0.0"/>
      <point x="252.0" y="0.0"/>
      <point x="252.0" y="3.0" type="qcurve"/>
      <point x="252.0" y="40.0"/>
      <point x="299.0" y="80.0"/>
      <point x="324.0" y="80.0" type="qcurve"/>
      <point x="329.0" y="80.0"/>
      <point x="329.0" y="80.0"/>
      <point x="314.0" y="39.0" type="qcurve"/>
      <point x="300.0" y="0.0"/>
      <point x="300.0" y="0.0"/>
    </contour>
    <contour>
      <point x="324.0" y="80.0" type="qcurve"/>
      <point x="298.0" y="80.0"/>
      <point x="264.0" y="115.0"/>
      <point x="275.0" y="149.0" type="qcurve"/>
      <point x="276.0" y="152.0"/>
      <point x="276.0" y="152.0"/>
      <point x="315.0" y="152.0" type="qcurve"/>
      <point x="356.0" y="152.0"/>
      <point x="356.0" y="152.0"/>
      <point x="343.0" y="115.0" type="qcurve"/>
      <point x="329.0" y="80.0"/>
      <point x="329.0" y="80.0"/>
    </contour>
  </outline>
</glyph>
<glyph name="BaseCrown" format="1">
  <advance width="346.0"/>
  <outline>
    <contour>
      <point x="147.0" y="0.0" type="qcurve" smooth="yes"/>
      <point x="119.0" y="0.0"/>
      <point x="119.0" y="0.0"/>
      <point x="102.0" y="39.0" type="qcurve"/>
      <point x="83.0" y="80.0"/>
      <point x="83.0" y="80.0"/>
      <point x="88.0" y="80.0" type="qcurve"/>
      <point x="133.0" y="80.0"/>
      <point x="173.0" y="36.0"/>
      <point x="173.0" y="4.0" type="qcurve"/>
      <point x="173.0" y="0.0"/>
      <point x="173.0" y="0.0"/>
    </contour>
    <contour>
      <point x="88.0" y="80.0" type="qcurve"/>
      <point x="83.0" y="80.0"/>
      <point x="83.0" y="80.0"/>
      <point x="68.0" y="116.0" type="qcurve"/>
      <point x="52.0" y="152.0"/>
      <point x="52.0" y="152.0"/>
      <point x="93.0" y="152.0" type="qcurve"/>
      <point x="135.0" y="152.0"/>
      <point x="135.0" y="152.0"/>
      <point x="139.0" y="145.0" type="qcurve"/>
      <point x="150.0" y="125.0"/>
      <point x="111.0" y="80.0"/>
    </contour>
    <contour>
      <point x="139.0" y="145.0" type="qcurve"/>
      <point x="135.0" y="152.0"/>
      <point x="135.0" y="152.0"/>
      <point x="154.0" y="177.0" type="qcurve"/>
      <point x="173.0" y="201.0"/>
      <point x="173.0" y="201.0"/>
      <point x="192.0" y="177.0" type="qcurve"/>
      <point x="211.0" y="152.0"/>
      <point x="211.0" y="152.0"/>
      <point x="208.0" y="146.0" type="qcurve"/>
      <point x="194.0" y="122.0"/>
      <point x="151.0" y="123.0"/>
    </contour>
    <contour>
      <point x="199.0" y="0.0" type="qcurve" smooth="yes"/>
      <point x="173.0" y="0.0"/>
      <point x="173.0" y="0.0"/>
      <point x="173.0" y="4.0" type="qcurve"/>
      <point x="173.0" y="51.0"/>
      <point x="227.0" y="80.0"/>
      <point x="260.0" y="80.0" type="qcurve"/>
      <point x="263.0" y="80.0"/>
      <point x="263.0" y="80.0"/>
      <point x="244.0" y="39.0" type="qcurve"/>
      <point x="227.0" y="0.0"/>
      <point x="227.0" y="0.0"/>
    </contour>
    <contour>
      <point x="260.0" y="80.0" type="qcurve"/>
      <point x="237.0" y="80.0"/>
      <point x="195.0" y="122.0"/>
      <point x="208.0" y="146.0" type="qcurve"/>
      <point x="211.0" y="152.0"/>
      <point x="211.0" y="152.0"/>
      <point x="253.0" y="152.0" type="qcurve"/>
      <point x="294.0" y="152.0"/>
      <point x="294.0" y="152.0"/>
      <point x="278.0" y="116.0" type="qcurve"/>
      <point x="263.0" y="80.0"/>
      <point x="263.0" y="80.0"/>
    </contour>
  </outline>
</glyph>
<glyph name="BaseElementV2" format="1">
  <advance width="656.0"/>
  <outline>
    <contour>
      <point x="287.0" y="-79.0" type="qcurve"/>
      <point x="246.0" y="-79.0"/>
      <point x="246.0" y="-79.0"/>
      <point x="246.0" y="-2.0" type="qcurve"/>
      <point x="246.0" y="76.0"/>
      <point x="246.0" y="76.0"/>
      <point x="253.0" y="76.0" type="qcurve"/>
      <point x="292.0" y="76.0"/>
      <point x="328.0" y="40.0"/>
      <point x="328.0" y="-2.0" type="qcurve"/>
      <point x="328.0" y="-79.0"/>
      <point x="328.0" y="-79.0"/>
    </contour>
    <contour>
      <point x="253.0" y="76.0" type="qcurve"/>
      <point x="246.0" y="76.0"/>
      <point x="246.0" y="76.0"/>
      <point x="246.0" y="114.0" type="qcurve"/>
      <point x="246.0" y="152.0"/>
      <point x="246.0" y="152.0"/>
      <point x="287.0" y="152.0" type="qcurve" smooth="yes"/>
      <point x="328.0" y="152.0"/>
      <point x="328.0" y="152.0"/>
      <point x="328.0" y="145.0" type="qcurve"/>
      <point x="328.0" y="108.0"/>
      <point x="296.0" y="76.0"/>
    </contour>
    <contour>
      <point x="369.0" y="0.0" type="qcurve" smooth="yes"/>
      <point x="328.0" y="0.0"/>
      <point x="328.0" y="0.0"/>
      <point x="328.0" y="4.0" type="qcurve"/>
      <point x="328.0" y="43.0"/>
      <point x="361.0" y="76.0"/>
      <point x="404.0" y="76.0" type="qcurve"/>
      <point x="410.0" y="76.0"/>
      <point x="410.0" y="76.0"/>
      <point x="410.0" y="38.0" type="qcurve"/>
      <point x="410.0" y="0.0"/>
      <point x="410.0" y="0.0"/>
    </contour>
    <contour>
      <point x="404.0" y="76.0" type="qcurve"/>
      <point x="362.0" y="76.0"/>
      <point x="328.0" y="110.0"/>
      <point x="328.0" y="145.0" type="qcurve"/>
      <point x="328.0" y="152.0"/>
      <point x="328.0" y="152.0"/>
      <point x="369.0" y="152.0" type="qcurve" smooth="yes"/>
      <point x="410.0" y="152.0"/>
      <point x="410.0" y="152.0"/>
      <point x="410.0" y="114.0" type="qcurve"/>
      <point x="410.0" y="76.0"/>
      <point x="410.0" y="76.0"/>
    </contour>
  </outline>
</glyph>
<glyph name="BaseLeftCurvedElement" format="1">
  <advance width="656.0"/>
  <outline>
    <contour>
      <point x="57.0" y="2.0" type="qcurve"/>
      <point x="16.0" y="18.0"/>
      <point x="16.0" y="18.0"/>
      <point x="16.0" y="61.0" type="qcurve"/>
      <point x="16.0" y="100.0"/>
      <point x="16.0" y="100.0"/>
      <point x="21.0" y="97.0" type="qcurve"/>
      <point x="64.0" y="77.0"/>
      <point x="98.0" y="33.0"/>
      <point x="98.0" y="1.0" type="qcurve"/>
      <point x="98.0" y="-9.0"/>
      <point x="98.0" y="-9.0"/>
    </contour>
    <contour>
      <point x="21.0" y="97.0" type="qcurve"/>
      <point x="16.0" y="100.0"/>
      <point x="16.0" y="100.0"/>
      <point x="16.0" y="187.0" type="qcurve"/>
      <point x="16.0" y="253.0"/>
      <point x="16.0" y="253.0"/>
      <point x="59.0" y="250.0" type="qcurve"/>
      <point x="98.0" y="245.0"/>
      <point x="98.0" y="245.0"/>
      <point x="98.0" y="149.0" type="qcurve"/>
      <point x="98.0" y="110.0"/>
      <point x="51.0" y="84.0"/>
    </contour>
    <contour>
      <point x="139.0" y="-97.0" type="qcurve"/>
      <point x="98.0" y="-97.0"/>
      <point x="98.0" y="-97.0"/>
      <point x="98.0" y="-11.0" type="qcurve"/>
      <point x="98.0" y="25.0"/>
      <point x="135.0" y="59.0"/>
      <point x="168.0" y="51.0" type="qcurve"/>
      <point x="180.0" y="50.0"/>
      <point x="180.0" y="50.0"/>
      <point x="180.0" y="-28.0" type="qcurve"/>
      <point x="180.0" y="-97.0"/>
      <point x="180.0" y="-97.0"/>
    </contour>
    <contour>
      <point x="168.0" y="51.0" type="qcurve"/>
      <point x="139.0" y="60.0"/>
      <point x="98.0" y="90.0"/>
      <point x="98.0" y="136.0" type="qcurve"/>
      <point x="98.0" y="145.0"/>
      <point x="98.0" y="145.0"/>
      <point x="140.0" y="132.0" type="qcurve"/>
      <point x="180.0" y="125.0"/>
      <point x="180.0" y="125.0"/>
      <point x="180.0" y="87.0" type="qcurve"/>
      <point x="180.0" y="50.0"/>
      <point x="180.0" y="50.0"/>
    </contour>
  </outline>
</glyph>
<glyph name="BaseTerminal" format="1">
  <advance width="656.0"/>
  <outline>
    <contour>
      <point x="287.0" y="-80.0" type="qcurve" smooth="yes"/>
      <point x="246.0" y="-80.0"/>
      <point x="246.0" y="-80.0"/>
      <point x="246.0" y="-2.0" type="qcurve"/>
      <point x="246.0" y="76.0"/>
      <point x="246.0" y="76.0"/>
      <point x="257.0" y="76.0" type="qcurve"/>
      <point x="283.0" y="78.0"/>
      <point x="328.0" y="30.0"/>
      <point x="328.0" y="-2.0" type="qcurve"/>
      <point x="328.0" y="-80.0"/>
      <point x="328.0" y="-80.0"/>
    </contour>
    <contour>
      <point x="257.0" y="76.0" type="qcurve"/>
      <point x="246.0" y="76.0"/>
      <point x="246.0" y="76.0"/>
      <point x="246.0" y="114.0" type="qcurve"/>
      <point x="246.0" y="152.0"/>
      <point x="246.0" y="152.0"/>
      <point x="287.0" y="152.0" type="qcurve" smooth="yes"/>
      <point x="328.0" y="152.0"/>
      <point x="328.0" y="152.0"/>
      <point x="328.0" y="144.0" type="qcurve"/>
      <point x="328.0" y="120.0"/>
      <point x="281.0" y="78.0"/>
    </contour>
    <contour>
      <point x="369.0" y="0.0" type="qcurve" smooth="yes"/>
      <point x="328.0" y="0.0"/>
      <point x="328.0" y="0.0"/>
      <point x="328.0" y="4.0" type="qcurve"/>
      <point x="328.0" y="29.0"/>
      <point x="377.0" y="78.0"/>
      <point x="400.0" y="76.0" type="qcurve"/>
      <point x="410.0" y="76.0"/>
      <point x="410.0" y="76.0"/>
      <point x="410.0" y="38.0" type="qcurve"/>
      <point x="410.0" y="0.0"/>
      <point x="410.0" y="0.0"/>
    </contour>
    <contour>
      <point x="411.0" y="76.0" type="qcurve"/>
      <point x="377.0" y="78.0"/>
      <point x="328.0" y="120.0"/>
      <point x="328.0" y="144.0" type="qcurve"/>
      <point x="328.0" y="152.0"/>
      <point x="328.0" y="152.0"/>
      <point x="411.0" y="152.0" type="qcurve" smooth="yes"/>
      <point x="493.0" y="152.0"/>
      <point x="493.0" y="152.0"/>
      <point x="493.0" y="114.0" type="qcurve"/>
      <point x="493.0" y="76.0"/>
      <point x="493.0" y="76.0"/>
    </contour>
  </outline>
</glyph>
<glyph name="CCWBotMid" format="1">
  <advance width="1212.0"/>
  <outline>
    <contour>
      <point x="567.0" y="150.0" type="qcurve" smooth="yes"/>
      <point x="528.0" y="150.0"/>
      <point x="528.0" y="150.0"/>
      <point x="528.0" y="188.0" type="qcurve" smooth="yes"/>
      <point x="528.0" y="226.0"/>
      <point x="528.0" y="264.0"/>
      <point x="528.0" y="379.0" type="qcurve" smooth="yes"/>
      <point x="528.0" y="490.0"/>
      <point x="528.0" y="535.0"/>
      <point x="528.0" y="573.0" type="qcurve" smooth="yes"/>
      <point x="528.0" y="610.0"/>
      <point x="528.0" y="610.0"/>
      <point x="567.0" y="610.0" type="qcurve" smooth="yes"/>
      <point x="606.0" y="610.0"/>
      <point x="606.0" y="610.0"/>
      <point x="606.0" y="573.0" type="qcurve" smooth="yes"/>
      <point x="606.0" y="535.0"/>
      <point x="606.0" y="489.0"/>
      <point x="606.0" y="379.0" type="qcurve" smooth="yes"/>
      <point x="606.0" y="262.0"/>
      <point x="606.0" y="226.0"/>
      <point x="606.0" y="188.0" type="qcurve" smooth="yes"/>
      <point x="606.0" y="150.0"/>
      <point x="606.0" y="150.0"/>
    </contour>
    <contour>
      <point x="645.0" y="150.0" type="qcurve" smooth="yes"/>
      <point x="606.0" y="150.0"/>
      <point x="606.0" y="150.0"/>
      <point x="606.0" y="188.0" type="qcurve" smooth="yes"/>
      <point x="606.0" y="226.0"/>
      <point x="606.0" y="264.0"/>
      <point x="606.0" y="379.0" type="qcurve" smooth="yes"/>
      <point x="606.0" y="490.0"/>
      <point x="606.0" y="535.0"/>
      <point x="606.0" y="573.0" type="qcurve" smooth="yes"/>
      <point x="606.0" y="610.0"/>
      <point x="606.0" y="610.0"/>
      <point x="645.0" y="610.0" type="qcurve"/>
      <point x="684.0" y="610.0"/>
      <point x="684.0" y="610.0"/>
      <point x="684.0" y="573.0" type="qcurve" smooth="yes"/>
      <point x="684.0" y="535.0"/>
      <point x="684.0" y="489.0"/>
      <point x="684.0" y="379.0" type="qcurve" smooth="yes"/>
      <point x="684.0" y="262.0"/>
      <point x="684.0" y="226.0"/>
      <point x="684.0" y="188.0" type="qcurve" smooth="yes"/>
      <point x="684.0" y="150.0"/>
      <point x="684.0" y="150.0"/>
    </contour>
  </outline>
</glyph>
<glyph name="CCWTermMidWaist" format="1">
  <advance width="508.0"/>
  <outline>
    <contour>
      <point x="215.0" y="1220.0" type="qcurve" smooth="yes"/>
      <point x="176.0" y="1220.0"/>
      <point x="176.0" y="1220.0"/>
      <point x="176.0" y="1257.0" type="qcurve"/>
      <point x="176.0" y="1294.0"/>
      <point x="176.0" y="1294.0"/>
      <point x="179.0" y="1294.0" type="qcurve"/>
      <point x="220.0" y="1294.0"/>
      <point x="254.0" y="1244.0"/>
      <point x="254.0" y="1223.0" type="qcurve"/>
      <point x="254.0" y="1220.0"/>
      <point x="254.0" y="1220.0"/>
    </contour>
    <contour>
      <point x="179.0" y="1294.0" type="qcurve"/>
      <point x="82.0" y="1294.0"/>
      <point x="82.0" y="1294.0"/>
      <point x="82.0" y="1331.0" type="qcurve"/>
      <point x="82.0" y="1368.0"/>
      <point x="82.0" y="1368.0"/>
      <point x="215.0" y="1368.0" type="qcurve" smooth="yes"/>
      <point x="254.0" y="1368.0"/>
      <point x="254.0" y="1368.0"/>
      <point x="254.0" y="1364.0" type="qcurve"/>
      <point x="254.0" y="1329.0"/>
      <point x="214.0" y="1294.0"/>
    </contour>
    <contour>
      <point x="293.0" y="1220.0" type="qcurve" smooth="yes"/>
      <point x="254.0" y="1220.0"/>
      <point x="254.0" y="1220.0"/>
      <point x="254.0" y="1223.0" type="qcurve"/>
      <point x="254.0" y="1256.0"/>
      <point x="292.0" y="1294.0"/>
      <point x="329.0" y="1294.0" type="qcurve"/>
      <point x="332.0" y="1294.0"/>
      <point x="332.0" y="1294.0"/>
      <point x="332.0" y="1257.0" type="qcurve"/>
      <point x="332.0" y="1220.0"/>
      <point x="332.0" y="1220.0"/>
    </contour>
    <contour>
      <point x="329.0" y="1294.0" type="qcurve"/>
      <point x="302.0" y="1294.0"/>
      <point x="254.0" y="1313.0"/>
      <point x="254.0" y="1364.0" type="qcurve"/>
      <point x="254.0" y="1444.0"/>
      <point x="254.0" y="1444.0"/>
      <point x="293.0" y="1444.0" type="qcurve" smooth="yes"/>
      <point x="332.0" y="1444.0"/>
      <point x="332.0" y="1444.0"/>
      <point x="332.0" y="1331.0" type="qcurve"/>
      <point x="332.0" y="1294.0"/>
      <point x="332.0" y="1294.0"/>
    </contour>
    <contour>
      <point x="201.6" y="762.3" type="qcurve" smooth="yes"/>
      <point x="166.5" y="766.4"/>
      <point x="166.5" y="766.4"/>
      <point x="170.3" y="799.7" type="qcurve" smooth="yes"/>
      <point x="174.1" y="833.9"/>
      <point x="176.0" y="881.9"/>
      <point x="176.0" y="992.5" type="qcurve" smooth="yes"/>
      <point x="176.0" y="1103.9"/>
      <point x="176.0" y="1144.0"/>
      <point x="176.0" y="1182.0" type="qcurve" smooth="yes"/>
      <point x="176.0" y="1220.0"/>
      <point x="176.0" y="1220.0"/>
      <point x="215.2" y="1220.0" type="qcurve" smooth="yes"/>
      <point x="254.0" y="1220.0"/>
      <point x="254.0" y="1220.0"/>
      <point x="254.0" y="1181.0" type="qcurve" smooth="yes"/>
      <point x="254.0" y="1142.7"/>
      <point x="254.0" y="1089.8"/>
      <point x="254.0" y="987.0" type="qcurve" smooth="yes"/>
      <point x="254.0" y="872.7"/>
      <point x="246.6" y="825.7"/>
      <point x="240.5" y="791.5" type="qcurve" smooth="yes"/>
      <point x="236.7" y="758.2"/>
      <point x="236.7" y="758.2"/>
    </contour>
    <contour>
      <point x="292.8" y="758.0" type="qcurve" smooth="yes"/>
      <point x="254.0" y="758.0"/>
      <point x="254.0" y="758.0"/>
      <point x="254.0" y="795.1" type="qcurve" smooth="yes"/>
      <point x="254.0" y="833.1"/>
      <point x="254.0" y="894.6"/>
      <point x="254.0" y="1001.2" type="qcurve" smooth="yes"/>
      <point x="254.0" y="1107.6"/>
      <point x="258.6" y="1151.6"/>
      <point x="266.7" y="1185.8" type="qcurve" smooth="yes"/>
      <point x="270.5" y="1220.0"/>
      <point x="270.5" y="1220.0"/>
      <point x="305.6" y="1215.9" type="qcurve" smooth="yes"/>
      <point x="340.7" y="1211.8"/>
      <point x="340.7" y="1211.8"/>
      <point x="336.9" y="1177.6" type="qcurve" smooth="yes"/>
      <point x="333.1" y="1143.4"/>
      <point x="332.0" y="1101.7"/>
      <point x="332.0" y="994.6" type="qcurve" smooth="yes"/>
      <point x="332.0" y="877.8"/>
      <point x="332.0" y="833.1"/>
      <point x="332.0" y="795.1" type="qcurve" smooth="yes"/>
      <point x="332.0" y="758.0"/>
      <point x="332.0" y="758.0"/>
    </contour>
    <contour>
      <point x="215.0" y="610.0" type="qcurve" smooth="yes"/>
      <point x="176.0" y="610.0"/>
      <point x="176.0" y="610.0"/>
      <point x="176.0" y="647.0" type="qcurve"/>
      <point x="176.0" y="684.0"/>
      <point x="176.0" y="684.0"/>
      <point x="182.0" y="684.0" type="qcurve"/>
      <point x="215.0" y="684.0"/>
      <point x="254.0" y="639.0"/>
      <point x="254.0" y="614.0" type="qcurve"/>
      <point x="254.0" y="610.0"/>
      <point x="254.0" y="610.0"/>
    </contour>
    <contour>
      <point x="182.0" y="684.0" type="qcurve"/>
      <point x="86.0" y="684.0"/>
      <point x="86.0" y="684.0"/>
      <point x="86.0" y="721.0" type="qcurve"/>
      <point x="86.0" y="758.0"/>
      <point x="86.0" y="758.0"/>
      <point x="215.0" y="758.0" type="qcurve" smooth="yes"/>
      <point x="254.0" y="758.0"/>
      <point x="254.0" y="758.0"/>
      <point x="254.0" y="754.0" type="qcurve"/>
      <point x="254.0" y="722.0"/>
      <point x="210.0" y="684.0"/>
    </contour>
    <contour>
      <point x="293.0" y="610.0" type="qcurve" smooth="yes"/>
      <point x="254.0" y="610.0"/>
      <point x="254.0" y="610.0"/>
      <point x="254.0" y="614.0" type="qcurve"/>
      <point x="254.0" y="654.0"/>
      <point x="298.0" y="684.0"/>
      <point x="327.0" y="684.0" type="qcurve"/>
      <point x="405.0" y="684.0"/>
      <point x="405.0" y="684.0"/>
      <point x="405.0" y="647.0" type="qcurve"/>
      <point x="405.0" y="610.0"/>
      <point x="405.0" y="610.0"/>
    </contour>
    <contour>
      <point x="327.0" y="684.0" type="qcurve"/>
      <point x="310.0" y="684.0"/>
      <point x="254.0" y="711.0"/>
      <point x="254.0" y="754.0" type="qcurve"/>
      <point x="254.0" y="758.0"/>
      <point x="254.0" y="758.0"/>
      <point x="293.0" y="758.0" type="qcurve" smooth="yes"/>
      <point x="332.0" y="758.0"/>
      <point x="332.0" y="758.0"/>
      <point x="332.0" y="721.0" type="qcurve"/>
      <point x="332.0" y="684.0"/>
      <point x="332.0" y="684.0"/>
    </contour>
  </outline>
</glyph>
<glyph name="CCWTerm" format="1">
  <advance width="508.0"/>
  <outline>
    <contour>
      <point x="215.0" y="1220.0" type="qcurve" smooth="yes"/>
      <point x="176.0" y="1220.0"/>
      <point x="176.0" y="1220.0"/>
      <point x="176.0" y="1257.0" type="qcurve"/>
      <point x="176.0" y="1294.0"/>
      <point x="176.0" y="1294.0"/>
      <point x="179.0" y="1294.0" type="qcurve"/>
      <point x="220.0" y="1294.0"/>
      <point x="254.0" y="1244.0"/>
      <point x="254.0" y="1223.0" type="qcurve"/>
      <point x="254.0" y="1220.0"/>
      <point x="254.0" y="1220.0"/>
    </contour>
    <contour>
      <point x="179.0" y="1294.0" type="qcurve"/>
      <point x="82.0" y="1294.0"/>
      <point x="82.0" y="1294.0"/>
      <point x="82.0" y="1331.0" type="qcurve"/>
      <point x="82.0" y="1368.0"/>
      <point x="82.0" y="1368.0"/>
      <point x="215.0" y="1368.0" type="qcurve" smooth="yes"/>
      <point x="254.0" y="1368.0"/>
      <point x="254.0" y="1368.0"/>
      <point x="254.0" y="1364.0" type="qcurve"/>
      <point x="254.0" y="1329.0"/>
      <point x="214.0" y="1294.0"/>
    </contour>
    <contour>
      <point x="293.0" y="1220.0" type="qcurve" smooth="yes"/>
      <point x="254.0" y="1220.0"/>
      <point x="254.0" y="1220.0"/>
      <point x="254.0" y="1223.0" type="qcurve"/>
      <point x="254.0" y="1256.0"/>
      <point x="292.0" y="1294.0"/>
      <point x="329.0" y="1294.0" type="qcurve"/>
      <point x="332.0" y="1294.0"/>
      <point x="332.0" y="1294.0"/>
      <point x="332.0" y="1257.0" type="qcurve"/>
      <point x="332.0" y="1220.0"/>
      <point x="332.0" y="1220.0"/>
    </contour>
    <contour>
      <point x="329.0" y="1294.0" type="qcurve"/>
      <point x="302.0" y="1294.0"/>
      <point x="254.0" y="1313.0"/>
      <point x="254.0" y="1364.0" type="qcurve"/>
      <point x="254.0" y="1444.0"/>
      <point x="254.0" y="1444.0"/>
      <point x="293.0" y="1444.0" type="qcurve" smooth="yes"/>
      <point x="332.0" y="1444.0"/>
      <point x="332.0" y="1444.0"/>
      <point x="332.0" y="1331.0" type="qcurve"/>
      <point x="332.0" y="1294.0"/>
      <point x="332.0" y="1294.0"/>
    </contour>
  </outline>
</glyph>
<glyph name="CCWTopMid" format="1">
  <advance width="1212"/>
  <outline>
    <contour>
      <point x="433" y="801" type="qcurve" smooth="yes"/>
      <point x="433" y="842"/>
      <point x="433" y="842"/>
      <point x="471" y="842" type="qcurve" smooth="yes"/>
      <point x="509" y="842"/>
      <point x="528" y="917"/>
      <point x="528" y="988" type="qcurve" smooth="yes"/>
      <point x="528" y="1103"/>
      <point x="528" y="1144"/>
      <point x="528" y="1182" type="qcurve" smooth="yes"/>
      <point x="528" y="1220"/>
      <point x="528" y="1220"/>
      <point x="569" y="1220" type="qcurve" smooth="yes"/>
      <point x="606" y="1220"/>
      <point x="606" y="1220"/>
      <point x="606" y="1172" type="qcurve" smooth="yes"/>
      <point x="606" y="1131"/>
      <point x="606" y="971"/>
      <point x="606" y="933" type="qcurve" smooth="yes"/>
      <point x="606" y="843"/>
      <point x="532" y="760"/>
      <point x="471" y="760" type="qcurve" smooth="yes"/>
      <point x="433" y="760"/>
      <point x="433" y="760"/>
    </contour>
    <contour>
      <point x="643" y="758" type="qcurve" smooth="yes"/>
      <point x="606" y="758"/>
      <point x="606" y="758"/>
      <point x="606" y="796" type="qcurve" smooth="yes"/>
      <point x="606" y="834"/>
      <point x="606" y="1044"/>
      <point x="606" y="1075" type="qcurve" smooth="yes"/>
      <point x="606" y="1140"/>
      <point x="652" y="1220"/>
      <point x="733" y="1220" type="qcurve" smooth="yes"/>
      <point x="771" y="1220"/>
      <point x="771" y="1220"/>
      <point x="771" y="1179" type="qcurve" smooth="yes"/>
      <point x="771" y="1138"/>
      <point x="771" y="1138"/>
      <point x="733" y="1138" type="qcurve" smooth="yes"/>
      <point x="695" y="1138"/>
      <point x="684" y="1090"/>
      <point x="684" y="1009" type="qcurve" smooth="yes"/>
      <point x="684" y="894"/>
      <point x="684" y="834"/>
      <point x="684" y="796" type="qcurve" smooth="yes"/>
      <point x="684" y="758"/>
      <point x="684" y="758"/>
    </contour>
  </outline>
</glyph>
<glyph name="CCWWaist" format="1">
  <advance width="500.0"/>
  <outline>
    <contour>
      <point x="215.0" y="610.0" type="qcurve" smooth="yes"/>
      <point x="176.0" y="610.0"/>
      <point x="176.0" y="610.0"/>
      <point x="176.0" y="647.0" type="qcurve"/>
      <point x="176.0" y="684.0"/>
      <point x="176.0" y="684.0"/>
      <point x="182.0" y="684.0" type="qcurve"/>
      <point x="215.0" y="684.0"/>
      <point x="254.0" y="639.0"/>
      <point x="254.0" y="614.0" type="qcurve"/>
      <point x="254.0" y="610.0"/>
      <point x="254.0" y="610.0"/>
    </contour>
    <contour>
      <point x="182.0" y="684.0" type="qcurve"/>
      <point x="86.0" y="684.0"/>
      <point x="86.0" y="684.0"/>
      <point x="86.0" y="721.0" type="qcurve"/>
      <point x="86.0" y="758.0"/>
      <point x="86.0" y="758.0"/>
      <point x="215.0" y="758.0" type="qcurve" smooth="yes"/>
      <point x="254.0" y="758.0"/>
      <point x="254.0" y="758.0"/>
      <point x="254.0" y="754.0" type="qcurve"/>
      <point x="254.0" y="722.0"/>
      <point x="210.0" y="684.0"/>
    </contour>
    <contour>
      <point x="293.0" y="610.0" type="qcurve" smooth="yes"/>
      <point x="254.0" y="610.0"/>
      <point x="254.0" y="610.0"/>
      <point x="254.0" y="614.0" type="qcurve"/>
      <point x="254.0" y="654.0"/>
      <point x="298.0" y="684.0"/>
      <point x="327.0" y="684.0" type="qcurve"/>
      <point x="405.0" y="684.0"/>
      <point x="405.0" y="684.0"/>
      <point x="405.0" y="647.0" type="qcurve"/>
      <point x="405.0" y="610.0"/>
      <point x="405.0" y="610.0"/>
    </contour>
    <contour>
      <point x="327.0" y="684.0" type="qcurve"/>
      <point x="310.0" y="684.0"/>
      <point x="254.0" y="711.0"/>
      <point x="254.0" y="754.0" type="qcurve"/>
      <point x="254.0" y="758.0"/>
      <point x="254.0" y="758.0"/>
      <point x="293.0" y="758.0" type="qcurve" smooth="yes"/>
      <point x="332.0" y="758.0"/>
      <point x="332.0" y="758.0"/>
      <point x="332.0" y="721.0" type="qcurve"/>
      <point x="332.0" y="684.0"/>
      <point x="332.0" y="684.0"/>
    </contour>
  </outline>
</glyph>
<glyph name="CWBotMid" format="1">
  <advance width="1204.0"/>
  <outline>
    <contour>
      <point x="565.0" y="148.0" type="qcurve" smooth="yes"/>
      <point x="528.0" y="148.0"/>
      <point x="528.0" y="148.0"/>
      <point x="528.0" y="186.0" type="qcurve" smooth="yes"/>
      <point x="528.0" y="224.0"/>
      <point x="528.0" y="265.0"/>
      <point x="528.0" y="380.0" type="qcurve" smooth="yes"/>
      <point x="528.0" y="491.0"/>
      <point x="528.0" y="536.0"/>
      <point x="528.0" y="573.0" type="qcurve" smooth="yes"/>
      <point x="528.0" y="610.0"/>
      <point x="528.0" y="610.0"/>
      <point x="565.0" y="610.0" type="qcurve" smooth="yes"/>
      <point x="602.0" y="610.0"/>
      <point x="602.0" y="610.0"/>
      <point x="602.0" y="573.0" type="qcurve" smooth="yes"/>
      <point x="602.0" y="536.0"/>
      <point x="602.0" y="490.0"/>
      <point x="602.0" y="380.0" type="qcurve" smooth="yes"/>
      <point x="602.0" y="263.0"/>
      <point x="602.0" y="224.0"/>
      <point x="602.0" y="186.0" type="qcurve" smooth="yes"/>
      <point x="602.0" y="148.0"/>
      <point x="602.0" y="148.0"/>
    </contour>
    <contour>
      <point x="639.0" y="148.0" type="qcurve" smooth="yes"/>
      <point x="602.0" y="148.0"/>
      <point x="602.0" y="148.0"/>
      <point x="602.0" y="186.0" type="qcurve" smooth="yes"/>
      <point x="602.0" y="224.0"/>
      <point x="602.0" y="265.0"/>
      <point x="602.0" y="380.0" type="qcurve" smooth="yes"/>
      <point x="602.0" y="491.0"/>
      <point x="602.0" y="536.0"/>
      <point x="602.0" y="573.0" type="qcurve" smooth="yes"/>
      <point x="602.0" y="610.0"/>
      <point x="602.0" y="610.0"/>
      <point x="639.0" y="610.0" type="qcurve"/>
      <point x="676.0" y="610.0"/>
      <point x="676.0" y="610.0"/>
      <point x="676.0" y="573.0" type="qcurve" smooth="yes"/>
      <point x="676.0" y="536.0"/>
      <point x="676.0" y="490.0"/>
      <point x="676.0" y="380.0" type="qcurve" smooth="yes"/>
      <point x="676.0" y="263.0"/>
      <point x="676.0" y="224.0"/>
      <point x="676.0" y="186.0" type="qcurve" smooth="yes"/>
      <point x="676.0" y="148.0"/>
      <point x="676.0" y="148.0"/>
    </contour>
  </outline>
</glyph>
<glyph name="CWTermMidWaist" format="1">
  <advance width="500.0"/>
  <outline>
    <contour>
      <point x="212.0" y="1220.0" type="qcurve" smooth="yes"/>
      <point x="175.0" y="1220.0"/>
      <point x="175.0" y="1220.0"/>
      <point x="175.0" y="1257.0" type="qcurve"/>
      <point x="175.0" y="1294.0"/>
      <point x="175.0" y="1294.0"/>
      <point x="179.0" y="1294.0" type="qcurve"/>
      <point x="211.0" y="1294.0"/>
      <point x="249.0" y="1254.0"/>
      <point x="249.0" y="1223.0" type="qcurve"/>
      <point x="249.0" y="1220.0"/>
      <point x="249.0" y="1220.0"/>
    </contour>
    <contour>
      <point x="179.0" y="1294.0" type="qcurve"/>
      <point x="175.0" y="1294.0"/>
      <point x="175.0" y="1294.0"/>
      <point x="175.0" y="1331.0" type="qcurve"/>
      <point x="175.0" y="1444.0"/>
      <point x="175.0" y="1444.0"/>
      <point x="212.0" y="1444.0" type="qcurve" smooth="yes"/>
      <point x="249.0" y="1444.0"/>
      <point x="249.0" y="1444.0"/>
      <point x="249.0" y="1365.0" type="qcurve"/>
      <point x="249.0" y="1329.0"/>
      <point x="213.0" y="1294.0"/>
    </contour>
    <contour>
      <point x="286.0" y="1220.0" type="qcurve" smooth="yes"/>
      <point x="249.0" y="1220.0"/>
      <point x="249.0" y="1220.0"/>
      <point x="249.0" y="1223.0" type="qcurve"/>
      <point x="249.0" y="1265.0"/>
      <point x="297.0" y="1294.0"/>
      <point x="319.0" y="1294.0" type="qcurve"/>
      <point x="423.0" y="1294.0"/>
      <point x="423.0" y="1294.0"/>
      <point x="423.0" y="1257.0" type="qcurve"/>
      <point x="423.0" y="1220.0"/>
      <point x="423.0" y="1220.0"/>
    </contour>
    <contour>
      <point x="319.0" y="1294.0" type="qcurve"/>
      <point x="293.0" y="1294.0"/>
      <point x="249.0" y="1320.0"/>
      <point x="249.0" y="1365.0" type="qcurve"/>
      <point x="249.0" y="1368.0"/>
      <point x="249.0" y="1368.0"/>
      <point x="286.0" y="1368.0" type="qcurve" smooth="yes"/>
      <point x="323.0" y="1368.0"/>
      <point x="323.0" y="1368.0"/>
      <point x="323.0" y="1331.0" type="qcurve"/>
      <point x="323.0" y="1294.0"/>
      <point x="323.0" y="1294.0"/>
    </contour>
    <contour>
      <point x="212.0" y="610.0" type="qcurve" smooth="yes"/>
      <point x="95.0" y="610.0"/>
      <point x="95.0" y="610.0"/>
      <point x="95.0" y="647.0" type="qcurve"/>
      <point x="95.0" y="684.0"/>
      <point x="95.0" y="684.0"/>
      <point x="179.0" y="684.0" type="qcurve"/>
      <point x="211.0" y="684.0"/>
      <point x="249.0" y="642.0"/>
      <point x="249.0" y="614.0" type="qcurve"/>
      <point x="249.0" y="610.0"/>
      <point x="249.0" y="610.0"/>
    </contour>
    <contour>
      <point x="179.0" y="684.0" type="qcurve"/>
      <point x="175.0" y="684.0"/>
      <point x="175.0" y="684.0"/>
      <point x="175.0" y="721.0" type="qcurve"/>
      <point x="175.0" y="758.0"/>
      <point x="175.0" y="758.0"/>
      <point x="212.0" y="758.0" type="qcurve" smooth="yes"/>
      <point x="249.0" y="758.0"/>
      <point x="249.0" y="758.0"/>
      <point x="249.0" y="755.0" type="qcurve"/>
      <point x="249.0" y="728.0"/>
      <point x="210.0" y="684.0"/>
    </contour>
    <contour>
      <point x="286.0" y="610.0" type="qcurve" smooth="yes"/>
      <point x="249.0" y="610.0"/>
      <point x="249.0" y="610.0"/>
      <point x="249.0" y="614.0" type="qcurve"/>
      <point x="249.0" y="647.0"/>
      <point x="297.0" y="684.0"/>
      <point x="320.0" y="684.0" type="qcurve"/>
      <point x="323.0" y="684.0"/>
      <point x="323.0" y="684.0"/>
      <point x="323.0" y="647.0" type="qcurve"/>
      <point x="323.0" y="610.0"/>
      <point x="323.0" y="610.0"/>
    </contour>
    <contour>
      <point x="320.0" y="684.0" type="qcurve"/>
      <point x="298.0" y="684.0"/>
      <point x="249.0" y="723.0"/>
      <point x="249.0" y="755.0" type="qcurve"/>
      <point x="249.0" y="758.0"/>
      <point x="249.0" y="758.0"/>
      <point x="286.0" y="758.0" type="qcurve" smooth="yes"/>
      <point x="405.0" y="758.0"/>
      <point x="405.0" y="758.0"/>
      <point x="405.0" y="721.0" type="qcurve"/>
      <point x="405.0" y="684.0"/>
      <point x="405.0" y="684.0"/>
    </contour>
    <contour>
      <point x="198.8" y="762.0" type="qcurve" smooth="yes"/>
      <point x="165.5" y="765.6"/>
      <point x="165.5" y="765.6"/>
      <point x="169.3" y="798.9" type="qcurve" smooth="yes"/>
      <point x="173.1" y="832.2"/>
      <point x="175.0" y="881.0"/>
      <point x="175.0" y="991.6" type="qcurve" smooth="yes"/>
      <point x="175.0" y="1103.0"/>
      <point x="175.0" y="1144.0"/>
      <point x="175.0" y="1182.0" type="qcurve" smooth="yes"/>
      <point x="175.0" y="1220.0"/>
      <point x="175.0" y="1220.0"/>
      <point x="212.4" y="1220.0" type="qcurve" smooth="yes"/>
      <point x="249.0" y="1220.0"/>
      <point x="249.0" y="1220.0"/>
      <point x="249.0" y="1181.0" type="qcurve" smooth="yes"/>
      <point x="249.0" y="1142.7"/>
      <point x="249.0" y="1088.9"/>
      <point x="249.0" y="986.1" type="qcurve" smooth="yes"/>
      <point x="249.0" y="871.8"/>
      <point x="242.0" y="824.8"/>
      <point x="235.9" y="791.5" type="qcurve" smooth="yes"/>
      <point x="232.1" y="758.2"/>
      <point x="232.1" y="758.2"/>
    </contour>
    <contour>
      <point x="286.0" y="758.0" type="qcurve" smooth="yes"/>
      <point x="249.0" y="758.0"/>
      <point x="249.0" y="758.0"/>
      <point x="249.0" y="795.1" type="qcurve" smooth="yes"/>
      <point x="249.0" y="832.2"/>
      <point x="249.0" y="893.7"/>
      <point x="249.0" y="1000.3" type="qcurve" smooth="yes"/>
      <point x="249.0" y="1106.7"/>
      <point x="253.6" y="1151.6"/>
      <point x="261.7" y="1185.8" type="qcurve" smooth="yes"/>
      <point x="265.5" y="1220.0"/>
      <point x="265.5" y="1220.0"/>
      <point x="298.8" y="1216.3" type="qcurve" smooth="yes"/>
      <point x="332.1" y="1212.6"/>
      <point x="332.1" y="1212.6"/>
      <point x="328.3" y="1178.4" type="qcurve" smooth="yes"/>
      <point x="324.5" y="1144.2"/>
      <point x="323.0" y="1100.8"/>
      <point x="323.0" y="993.7" type="qcurve" smooth="yes"/>
      <point x="323.0" y="876.9"/>
      <point x="323.0" y="832.2"/>
      <point x="323.0" y="795.1" type="qcurve" smooth="yes"/>
      <point x="323.0" y="758.0"/>
      <point x="323.0" y="758.0"/>
    </contour>
  </outline>
</glyph>
<glyph name="CWTermMid" format="1">
  <advance width="500.0"/>
  <outline>
    <contour>
      <point x="213.0" y="1220.0" type="qcurve" smooth="yes"/>
      <point x="176.0" y="1220.0"/>
      <point x="176.0" y="1220.0"/>
      <point x="176.0" y="1257.0" type="qcurve"/>
      <point x="176.0" y="1294.0"/>
      <point x="176.0" y="1294.0"/>
      <point x="180.0" y="1294.0" type="qcurve"/>
      <point x="212.0" y="1294.0"/>
      <point x="250.0" y="1254.0"/>
      <point x="250.0" y="1223.0" type="qcurve"/>
      <point x="250.0" y="1220.0"/>
      <point x="250.0" y="1220.0"/>
    </contour>
    <contour>
      <point x="180.0" y="1294.0" type="qcurve"/>
      <point x="176.0" y="1294.0"/>
      <point x="176.0" y="1294.0"/>
      <point x="176.0" y="1331.0" type="qcurve"/>
      <point x="176.0" y="1444.0"/>
      <point x="176.0" y="1444.0"/>
      <point x="213.0" y="1444.0" type="qcurve" smooth="yes"/>
      <point x="250.0" y="1444.0"/>
      <point x="250.0" y="1444.0"/>
      <point x="250.0" y="1365.0" type="qcurve"/>
      <point x="250.0" y="1329.0"/>
      <point x="214.0" y="1294.0"/>
    </contour>
    <contour>
      <point x="287.0" y="1220.0" type="qcurve" smooth="yes"/>
      <point x="250.0" y="1220.0"/>
      <point x="250.0" y="1220.0"/>
      <point x="250.0" y="1223.0" type="qcurve"/>
      <point x="250.0" y="1265.0"/>
      <point x="298.0" y="1294.0"/>
      <point x="320.0" y="1294.0" type="qcurve"/>
      <point x="424.0" y="1294.0"/>
      <point x="424.0" y="1294.0"/>
      <point x="424.0" y="1257.0" type="qcurve"/>
      <point x="424.0" y="1220.0"/>
      <point x="424.0" y="1220.0"/>
    </contour>
    <contour>
      <point x="320.0" y="1294.0" type="qcurve"/>
      <point x="294.0" y="1294.0"/>
      <point x="250.0" y="1320.0"/>
      <point x="250.0" y="1365.0" type="qcurve"/>
      <point x="250.0" y="1368.0"/>
      <point x="250.0" y="1368.0"/>
      <point x="287.0" y="1368.0" type="qcurve" smooth="yes"/>
      <point x="324.0" y="1368.0"/>
      <point x="324.0" y="1368.0"/>
      <point x="324.0" y="1331.0" type="qcurve"/>
      <point x="324.0" y="1294.0"/>
      <point x="324.0" y="1294.0"/>
    </contour>
    <contour>
      <point x="199.8" y="762.0" type="qcurve" smooth="yes"/>
      <point x="166.5" y="765.6"/>
      <point x="166.5" y="765.6"/>
      <point x="170.3" y="798.9" type="qcurve" smooth="yes"/>
      <point x="174.1" y="832.2"/>
      <point x="176.0" y="881.0"/>
      <point x="176.0" y="991.6" type="qcurve" smooth="yes"/>
      <point x="176.0" y="1103.0"/>
      <point x="176.0" y="1144.0"/>
      <point x="176.0" y="1182.0" type="qcurve" smooth="yes"/>
      <point x="176.0" y="1220.0"/>
      <point x="176.0" y="1220.0"/>
      <point x="213.4" y="1220.0" type="qcurve" smooth="yes"/>
      <point x="250.0" y="1220.0"/>
      <point x="250.0" y="1220.0"/>
      <point x="250.0" y="1181.0" type="qcurve" smooth="yes"/>
      <point x="250.0" y="1142.7"/>
      <point x="250.0" y="1088.9"/>
      <point x="250.0" y="986.1" type="qcurve" smooth="yes"/>
      <point x="250.0" y="871.8"/>
      <point x="243.0" y="824.8"/>
      <point x="236.9" y="791.5" type="qcurve" smooth="yes"/>
      <point x="233.1" y="758.2"/>
      <point x="233.1" y="758.2"/>
    </contour>
    <contour>
      <point x="287.0" y="758.0" type="qcurve" smooth="yes"/>
      <point x="250.0" y="758.0"/>
      <point x="250.0" y="758.0"/>
      <point x="250.0" y="795.1" type="qcurve" smooth="yes"/>
      <point x="250.0" y="832.2"/>
      <point x="250.0" y="893.7"/>
      <point x="250.0" y="1000.3" type="qcurve" smooth="yes"/>
      <point x="250.0" y="1106.7"/>
      <point x="254.6" y="1151.6"/>
      <point x="262.7" y="1185.8" type="qcurve" smooth="yes"/>
      <point x="266.5" y="1220.0"/>
      <point x="266.5" y="1220.0"/>
      <point x="299.8" y="1216.3" type="qcurve" smooth="yes"/>
      <point x="333.1" y="1212.6"/>
      <point x="333.1" y="1212.6"/>
      <point x="329.3" y="1178.4" type="qcurve" smooth="yes"/>
      <point x="325.5" y="1144.2"/>
      <point x="324.0" y="1100.8"/>
      <point x="324.0" y="993.7" type="qcurve" smooth="yes"/>
      <point x="324.0" y="876.9"/>
      <point x="324.0" y="832.2"/>
      <point x="324.0" y="795.1" type="qcurve" smooth="yes"/>
      <point x="324.0" y="758.0"/>
      <point x="324.0" y="758.0"/>
    </contour>
  </outline>
</glyph>
<glyph name="CWTerm" format="1">
  <advance width="500.0"/>
  <outline>
    <contour>
      <point x="213.0" y="1220.0" type="qcurve" smooth="yes"/>
      <point x="176.0" y="1220.0"/>
      <point x="176.0" y="1220.0"/>
      <point x="176.0" y="1257.0" type="qcurve"/>
      <point x="176.0" y="1294.0"/>
      <point x="176.0" y="1294.0"/>
      <point x="180.0" y="1294.0" type="qcurve"/>
      <point x="212.0" y="1294.0"/>
      <point x="250.0" y="1254.0"/>
      <point x="250.0" y="1223.0" type="qcurve"/>
      <point x="250.0" y="1220.0"/>
      <point x="250.0" y="1220.0"/>
    </contour>
    <contour>
      <point x="180.0" y="1294.0" type="qcurve"/>
      <point x="176.0" y="1294.0"/>
      <point x="176.0" y="1294.0"/>
      <point x="176.0" y="1331.0" type="qcurve"/>
      <point x="176.0" y="1444.0"/>
      <point x="176.0" y="1444.0"/>
      <point x="213.0" y="1444.0" type="qcurve" smooth="yes"/>
      <point x="250.0" y="1444.0"/>
      <point x="250.0" y="1444.0"/>
      <point x="250.0" y="1365.0" type="qcurve"/>
      <point x="250.0" y="1329.0"/>
      <point x="214.0" y="1294.0"/>
    </contour>
    <contour>
      <point x="287.0" y="1220.0" type="qcurve" smooth="yes"/>
      <point x="250.0" y="1220.0"/>
      <point x="250.0" y="1220.0"/>
      <point x="250.0" y="1223.0" type="qcurve"/>
      <point x="250.0" y="1265.0"/>
      <point x="298.0" y="1294.0"/>
      <point x="320.0" y="1294.0" type="qcurve"/>
      <point x="424.0" y="1294.0"/>
      <point x="424.0" y="1294.0"/>
      <point x="424.0" y="1257.0" type="qcurve"/>
      <point x="424.0" y="1220.0"/>
      <point x="424.0" y="1220.0"/>
    </contour>
    <contour>
      <point x="320.0" y="1294.0" type="qcurve"/>
      <point x="294.0" y="1294.0"/>
      <point x="250.0" y="1320.0"/>
      <point x="250.0" y="1365.0" type="qcurve"/>
      <point x="250.0" y="1368.0"/>
      <point x="250.0" y="1368.0"/>
      <point x="287.0" y="1368.0" type="qcurve" smooth="yes"/>
      <point x="324.0" y="1368.0"/>
      <point x="324.0" y="1368.0"/>
      <point x="324.0" y="1331.0" type="qcurve"/>
      <point x="324.0" y="1294.0"/>
      <point x="324.0" y="1294.0"/>
    </contour>
  </outline>
</glyph>
<glyph name="CWTopMid" format="1">
  <advance width="1204"/>
  <outline>
    <contour>
      <point x="433" y="798" type="qcurve" smooth="yes"/>
      <point x="433" y="834"/>
      <point x="433" y="834"/>
      <point x="471" y="834" type="qcurve" smooth="yes"/>
      <point x="509" y="834"/>
      <point x="528" y="917"/>
      <point x="528" y="988" type="qcurve" smooth="yes"/>
      <point x="528" y="1103"/>
      <point x="528" y="1144"/>
      <point x="528" y="1182" type="qcurve" smooth="yes"/>
      <point x="528" y="1220"/>
      <point x="528" y="1220"/>
      <point x="569" y="1220" type="qcurve" smooth="yes"/>
      <point x="602" y="1220"/>
      <point x="602" y="1220"/>
      <point x="602" y="1172" type="qcurve" smooth="yes"/>
      <point x="602" y="1131"/>
      <point x="602" y="971"/>
      <point x="602" y="933" type="qcurve" smooth="yes"/>
      <point x="602" y="843"/>
      <point x="532" y="760"/>
      <point x="471" y="760" type="qcurve" smooth="yes"/>
      <point x="433" y="760"/>
      <point x="433" y="760"/>
    </contour>
    <contour>
      <point x="639" y="758" type="qcurve" smooth="yes"/>
      <point x="602" y="758"/>
      <point x="602" y="758"/>
      <point x="602" y="796" type="qcurve" smooth="yes"/>
      <point x="602" y="834"/>
      <point x="602" y="1044"/>
      <point x="602" y="1075" type="qcurve" smooth="yes"/>
      <point x="602" y="1140"/>
      <point x="648" y="1220"/>
      <point x="729" y="1220" type="qcurve" smooth="yes"/>
      <point x="767" y="1220"/>
      <point x="767" y="1220"/>
      <point x="767" y="1183" type="qcurve" smooth="yes"/>
      <point x="767" y="1146"/>
      <point x="767" y="1146"/>
      <point x="729" y="1146" type="qcurve" smooth="yes"/>
      <point x="691" y="1146"/>
      <point x="676" y="1090"/>
      <point x="676" y="1009" type="qcurve" smooth="yes"/>
      <point x="676" y="894"/>
      <point x="676" y="834"/>
      <point x="676" y="796" type="qcurve" smooth="yes"/>
      <point x="676" y="758"/>
      <point x="676" y="758"/>
    </contour>
  </outline>
</glyph>
<glyph name="CWWaist" format="1">
  <advance width="500.0"/>
  <outline>
    <contour>
      <point x="213.0" y="610.0" type="qcurve" smooth="yes"/>
      <point x="96.0" y="610.0"/>
      <point x="96.0" y="610.0"/>
      <point x="96.0" y="647.0" type="qcurve"/>
      <point x="96.0" y="684.0"/>
      <point x="96.0" y="684.0"/>
      <point x="180.0" y="684.0" type="qcurve"/>
      <point x="212.0" y="684.0"/>
      <point x="250.0" y="642.0"/>
      <point x="250.0" y="614.0" type="qcurve"/>
      <point x="250.0" y="610.0"/>
      <point x="250.0" y="610.0"/>
    </contour>
    <contour>
      <point x="180.0" y="684.0" type="qcurve"/>
      <point x="176.0" y="684.0"/>
      <point x="176.0" y="684.0"/>
      <point x="176.0" y="721.0" type="qcurve"/>
      <point x="176.0" y="758.0"/>
      <point x="176.0" y="758.0"/>
      <point x="213.0" y="758.0" type="qcurve" smooth="yes"/>
      <point x="250.0" y="758.0"/>
      <point x="250.0" y="758.0"/>
      <point x="250.0" y="755.0" type="qcurve"/>
      <point x="250.0" y="728.0"/>
      <point x="211.0" y="684.0"/>
    </contour>
    <contour>
      <point x="287.0" y="610.0" type="qcurve" smooth="yes"/>
      <point x="250.0" y="610.0"/>
      <point x="250.0" y="610.0"/>
      <point x="250.0" y="614.0" type="qcurve"/>
      <point x="250.0" y="647.0"/>
      <point x="298.0" y="684.0"/>
      <point x="321.0" y="684.0" type="qcurve"/>
      <point x="324.0" y="684.0"/>
      <point x="324.0" y="684.0"/>
      <point x="324.0" y="647.0" type="qcurve"/>
      <point x="324.0" y="610.0"/>
      <point x="324.0" y="610.0"/>
    </contour>
    <contour>
      <point x="321.0" y="684.0" type="qcurve"/>
      <point x="299.0" y="684.0"/>
      <point x="250.0" y="723.0"/>
      <point x="250.0" y="755.0" type="qcurve"/>
      <point x="250.0" y="758.0"/>
      <point x="250.0" y="758.0"/>
      <point x="287.0" y="758.0" type="qcurve" smooth="yes"/>
      <point x="406.0" y="758.0"/>
      <point x="406.0" y="758.0"/>
      <point x="406.0" y="721.0" type="qcurve"/>
      <point x="406.0" y="684.0"/>
      <point x="406.0" y="684.0"/>
    </contour>
  </outline>
</glyph>
<glyph name="C" format="1">
  <advance width="1148.0"/>
  <outline>
    <contour>
      <point x="912.8" y="-29.0" type="qcurve"/>
      <point x="896.5" y="-32.5"/>
      <point x="896.5" y="-32.5"/>
      <point x="892.8" y="0.7999999999999989" type="qcurve"/>
      <point x="889.1" y="33.1"/>
      <point x="889.1" y="33.1"/>
      <point x="911.2" y="36.0" type="qcurve"/>
      <point x="921.7" y="43.3"/>
      <point x="947.4" y="52.9"/>
      <point x="963.0" y="57.0" type="qcurve"/>
      <point x="984.0" y="63.0"/>
      <point x="984.0" y="63.0"/>
      <point x="984.0" y="27.0" type="qcurve"/>
      <point x="984.0" y="-11.0"/>
      <point x="984.0" y="-11.0"/>
      <point x="963.0" y="-16.0" type="qcurve"/>
      <point x="943.0" y="-20.0"/>
      <point x="926.0" y="-25.4"/>
    </contour>
    <contour>
      <point x="910.3" y="56.0" type="qcurve"/>
      <point x="887.3" y="56.7"/>
      <point x="887.3" y="56.7"/>
      <point x="890.4" y="90.8" type="qcurve"/>
      <point x="893.7" y="124.7"/>
      <point x="893.7" y="124.7"/>
      <point x="908.0" y="124.3" type="qcurve"/>
      <point x="919.9" y="123.4"/>
      <point x="940.7" y="124.5"/>
      <point x="958.9" y="128.2" type="qcurve"/>
      <point x="984.0" y="136.0"/>
      <point x="984.0" y="136.0"/>
      <point x="984.0" y="100.0" type="qcurve"/>
      <point x="984.0" y="63.0"/>
      <point x="984.0" y="63.0"/>
      <point x="963.0" y="57.0" type="qcurve"/>
      <point x="948.4" y="53.6"/>
      <point x="923.0" y="52.4"/>
    </contour>
    <contour>
      <point x="957.9" y="1233.8" type="qcurve"/>
      <point x="939.3" y="1237.7"/>
      <point x="906.4" y="1242.0"/>
      <point x="887.0" y="1241.5" type="qcurve"/>
      <point x="873.2" y="1240.9"/>
      <point x="873.2" y="1240.9"/>
      <point x="869.8" y="1277.3" type="qcurve"/>
      <point x="866.3" y="1312.8"/>
      <point x="866.3" y="1312.8"/>
      <point x="880.1" y="1313.8" type="qcurve"/>
      <point x="893.7" y="1318.1"/>
      <point x="942.6" y="1316.5"/>
      <point x="961.5" y="1311.4" type="qcurve"/>
      <point x="984.0" y="1305.0"/>
      <point x="984.0" y="1305.0"/>
      <point x="984.0" y="1266.0" type="qcurve"/>
      <point x="984.0" y="1227.0"/>
      <point x="984.0" y="1227.0"/>
    </contour>
    <contour>
      <point x="961.5" y="1311.4" type="qcurve"/>
      <point x="941.4" y="1316.8"/>
      <point x="892.9" y="1327.9"/>
      <point x="880.8" y="1334.6" type="qcurve"/>
      <point x="867.4" y="1337.0"/>
      <point x="867.4" y="1337.0"/>
      <point x="871.3" y="1372.1" type="qcurve"/>
      <point x="875.2" y="1407.2"/>
      <point x="875.2" y="1407.2"/>
      <point x="891.3" y="1404.5" type="qcurve"/>
      <point x="906.5" y="1401.9"/>
      <point x="952.0" y="1391.0"/>
      <point x="965.0" y="1388.0" type="qcurve"/>
      <point x="984.0" y="1384.0"/>
      <point x="984.0" y="1383.0"/>
      <point x="984.0" y="1344.0" type="qcurve"/>
      <point x="984.0" y="1305.0"/>
      <point x="984.0" y="1305.0"/>
    </contour>
    <contour>
      <point x="778.0" y="-28.0" type="qcurve"/>
      <point x="738.0" y="-26.0"/>
      <point x="738.0" y="-26.0"/>
      <point x="738.0" y="14.0" type="qcurve"/>
      <point x="738.0" y="49.0"/>
      <point x="738.0" y="49.0"/>
      <point x="746.0" y="48.0" type="qcurve"/>
      <point x="774.0" y="45.0"/>
      <point x="821.0" y="-8.0"/>
      <point x="820.0" y="-20.0" type="qcurve"/>
      <point x="820.0" y="-29.0"/>
      <point x="820.0" y="-29.0"/>
    </contour>
    <contour>
      <point x="746.0" y="48.0" type="qcurve"/>
      <point x="738.0" y="49.0"/>
      <point x="738.0" y="49.0"/>
      <point x="738.0" y="83.0" type="qcurve" smooth="yes"/>
      <point x="738.0" y="123.0"/>
      <point x="738.0" y="123.0"/>
      <point x="780.0" y="119.0" type="qcurve"/>
      <point x="819.0" y="117.0"/>
      <point x="819.0" y="117.0"/>
      <point x="819.0" y="107.0" type="qcurve"/>
      <point x="819.0" y="95.0"/>
      <point x="768.0" y="47.0"/>
    </contour>
    <contour>
      <point x="770.0" y="1248.0" type="qcurve"/>
      <point x="738.0" y="1244.0"/>
      <point x="738.0" y="1244.0"/>
      <point x="738.0" y="1287.0" type="qcurve" smooth="yes"/>
      <point x="738.0" y="1322.0"/>
      <point x="738.0" y="1322.0"/>
      <point x="771.0" y="1325.0" type="qcurve"/>
      <point x="803.0" y="1326.0"/>
      <point x="803.0" y="1326.0"/>
      <point x="803.0" y="1289.0" type="qcurve"/>
      <point x="803.0" y="1249.0"/>
      <point x="803.0" y="1249.0"/>
    </contour>
    <contour>
      <point x="771.0" y="1325.0" type="qcurve"/>
      <point x="738.0" y="1322.0"/>
      <point x="738.0" y="1322.0"/>
      <point x="738.0" y="1360.0" type="qcurve"/>
      <point x="738.0" y="1401.0"/>
      <point x="738.0" y="1401.0"/>
      <point x="770.0" y="1403.0" type="qcurve"/>
      <point x="803.0" y="1403.0"/>
      <point x="803.0" y="1403.0"/>
      <point x="803.0" y="1362.0" type="qcurve"/>
      <point x="803.0" y="1326.0"/>
      <point x="803.0" y="1326.0"/>
    </contour>
    <contour>
      <point x="855.0" y="-29.0" type="qcurve"/>
      <point x="820.0" y="-29.0"/>
      <point x="820.0" y="-29.0"/>
      <point x="820.0" y="-20.0" type="qcurve"/>
      <point x="820.0" y="-1.0"/>
      <point x="871.0" y="45.0"/>
      <point x="885.0" y="46.0" type="qcurve"/>
      <point x="889.0" y="46.0"/>
      <point x="889.0" y="46.0"/>
      <point x="889.0" y="10.0" type="qcurve"/>
      <point x="889.0" y="-27.0"/>
      <point x="889.0" y="-27.0"/>
    </contour>
    <contour>
      <point x="885.0" y="46.0" type="qcurve"/>
      <point x="873.0" y="45.0"/>
      <point x="819.0" y="93.0"/>
      <point x="819.0" y="107.0" type="qcurve"/>
      <point x="819.0" y="117.0"/>
      <point x="819.0" y="117.0"/>
      <point x="854.0" y="117.0" type="qcurve"/>
      <point x="889.0" y="118.0"/>
      <point x="889.0" y="118.0"/>
      <point x="889.0" y="82.0" type="qcurve" smooth="yes"/>
      <point x="889.0" y="46.0"/>
      <point x="889.0" y="46.0"/>
    </contour>
    <contour>
      <point x="835.0" y="1248.0" type="qcurve"/>
      <point x="803.0" y="1249.0"/>
      <point x="803.0" y="1249.0"/>
      <point x="803.0" y="1289.0" type="qcurve"/>
      <point x="803.0" y="1326.0"/>
      <point x="803.0" y="1326.0"/>
      <point x="834.0" y="1325.0" type="qcurve"/>
      <point x="867.0" y="1324.0"/>
      <point x="867.0" y="1324.0"/>
      <point x="867.0" y="1286.0" type="qcurve" smooth="yes"/>
      <point x="867.0" y="1247.0"/>
      <point x="867.0" y="1247.0"/>
    </contour>
    <contour>
      <point x="834.0" y="1325.0" type="qcurve"/>
      <point x="803.0" y="1326.0"/>
      <point x="803.0" y="1326.0"/>
      <point x="803.0" y="1362.0" type="qcurve"/>
      <point x="803.0" y="1403.0"/>
      <point x="803.0" y="1403.0"/>
      <point x="836.0" y="1403.0" type="qcurve"/>
      <point x="867.0" y="1402.0"/>
      <point x="867.0" y="1402.0"/>
      <point x="867.0" y="1362.0" type="qcurve"/>
      <point x="867.0" y="1324.0"/>
      <point x="867.0" y="1324.0"/>
    </contour>
    <contour>
      <point x="1025.0" y="-80.0" type="qcurve" smooth="yes"/>
      <point x="984.0" y="-80.0"/>
      <point x="984.0" y="-80.0"/>
      <point x="984.0" y="27.0" type="qcurve"/>
      <point x="984.0" y="63.0"/>
      <point x="984.0" y="63.0"/>
      <point x="996.0" y="65.0" type="qcurve"/>
      <point x="1019.0" y="74.0"/>
      <point x="1066.0" y="46.0"/>
      <point x="1066.0" y="19.0" type="qcurve"/>
      <point x="1066.0" y="-80.0"/>
      <point x="1066.0" y="-80.0"/>
    </contour>
    <contour>
      <point x="996.0" y="65.0" type="qcurve"/>
      <point x="984.0" y="63.0"/>
      <point x="984.0" y="63.0"/>
      <point x="984.0" y="100.0" type="qcurve"/>
      <point x="984.0" y="136.0"/>
      <point x="984.0" y="136.0"/>
      <point x="1027.0" y="150.0" type="qcurve"/>
      <point x="1066.0" y="165.0"/>
      <point x="1066.0" y="165.0"/>
      <point x="1066.0" y="153.0" type="qcurve"/>
      <point x="1066.0" y="128.0"/>
      <point x="1034.0" y="78.0"/>
    </contour>
    <contour>
      <point x="1108.0" y="27.0" type="qcurve"/>
      <point x="1066.0" y="12.0"/>
      <point x="1066.0" y="12.0"/>
      <point x="1066.0" y="19.0" type="qcurve"/>
      <point x="1066.0" y="57.0"/>
      <point x="1098.0" y="105.0"/>
      <point x="1139.0" y="127.0" type="qcurve"/>
      <point x="1148.0" y="132.0"/>
      <point x="1148.0" y="132.0"/>
      <point x="1148.0" y="77.0" type="qcurve"/>
      <point x="1148.0" y="46.0"/>
      <point x="1148.0" y="46.0"/>
    </contour>
    <contour>
      <point x="1139.0" y="127.0" type="qcurve"/>
      <point x="1099.0" y="105.0"/>
      <point x="1066.0" y="133.0"/>
      <point x="1066.0" y="154.0" type="qcurve"/>
      <point x="1066.0" y="267.0"/>
      <point x="1066.0" y="267.0"/>
      <point x="1105.0" y="267.0" type="qcurve"/>
      <point x="1148.0" y="267.0"/>
      <point x="1148.0" y="266.0"/>
      <point x="1148.0" y="164.0" type="qcurve" smooth="yes"/>
      <point x="1148.0" y="132.0"/>
      <point x="1148.0" y="132.0"/>
    </contour>
    <contour>
      <point x="1027.0" y="1212.0" type="qcurve"/>
      <point x="984.0" y="1227.0"/>
      <point x="984.0" y="1227.0"/>
      <point x="984.0" y="1265.0" type="qcurve"/>
      <point x="984.0" y="1305.0"/>
      <point x="984.0" y="1305.0"/>
      <point x="991.0" y="1302.0" type="qcurve"/>
      <point x="1041.0" y="1282.0"/>
      <point x="1066.0" y="1233.0"/>
      <point x="1066.0" y="1208.0" type="qcurve"/>
      <point x="1066.0" y="1195.0"/>
      <point x="1066.0" y="1195.0"/>
    </contour>
    <contour>
      <point x="991.0" y="1302.0" type="qcurve"/>
      <point x="984.0" y="1305.0"/>
      <point x="984.0" y="1305.0"/>
      <point x="984.0" y="1377.0" type="qcurve"/>
      <point x="982.0" y="1443.0"/>
      <point x="982.0" y="1443.0"/>
      <point x="1025.0" y="1443.0" type="qcurve"/>
      <point x="1065.0" y="1443.0"/>
      <point x="1065.0" y="1443.0"/>
      <point x="1066.0" y="1361.0" type="qcurve"/>
      <point x="1066.0" y="1329.0"/>
      <point x="1029.0" y="1288.0"/>
    </contour>
    <contour>
      <point x="1106.0" y="1113.0" type="qcurve"/>
      <point x="1056.0" y="1113.0"/>
      <point x="1056.0" y="1113.0"/>
      <point x="1066.0" y="1200.0" type="qcurve"/>
      <point x="1066.0" y="1237.0"/>
      <point x="1114.0" y="1259.0"/>
      <point x="1143.0" y="1245.0" type="qcurve"/>
      <point x="1148.0" y="1242.0"/>
      <point x="1148.0" y="1242.0"/>
      <point x="1148.0" y="1169.0" type="qcurve"/>
      <point x="1147.0" y="1113.0"/>
      <point x="1147.0" y="1113.0"/>
    </contour>
    <contour>
      <point x="1143.0" y="1245.0" type="qcurve"/>
      <point x="1111.0" y="1262.0"/>
      <point x="1066.0" y="1314.0"/>
      <point x="1066.0" y="1355.0" type="qcurve"/>
      <point x="1066.0" y="1362.0"/>
      <point x="1066.0" y="1362.0"/>
      <point x="1107.0" y="1346.0" type="qcurve"/>
      <point x="1148.0" y="1328.0"/>
      <point x="1148.0" y="1328.0"/>
      <point x="1148.0" y="1289.0" type="qcurve"/>
      <point x="1148.0" y="1242.0"/>
      <point x="1148.0" y="1242.0"/>
    </contour>
    <contour>
      <point x="126.0" y="608.0" type="qcurve" smooth="yes"/>
      <point x="85.0" y="608.0"/>
      <point x="85.0" y="608.0"/>
      <point x="83.0" y="646.0" type="qcurve"/>
      <point x="62.0" y="684.0"/>
      <point x="62.0" y="684.0"/>
      <point x="86.0" y="684.0" type="qcurve"/>
      <point x="120.0" y="684.0"/>
      <point x="165.0" y="636.0"/>
      <point x="166.0" y="613.0" type="qcurve"/>
      <point x="166.0" y="608.0"/>
      <point x="166.0" y="608.0"/>
    </contour>
    <contour>
      <point x="86.0" y="684.0" type="qcurve"/>
      <point x="62.0" y="684.0"/>
      <point x="62.0" y="684.0"/>
      <point x="83.0" y="722.0" type="qcurve"/>
      <point x="85.0" y="760.0"/>
      <point x="85.0" y="760.0"/>
      <point x="124.0" y="760.0" type="qcurve" smooth="yes"/>
      <point x="166.0" y="760.0"/>
      <point x="166.0" y="760.0"/>
      <point x="165.0" y="757.0" type="qcurve"/>
      <point x="164.0" y="729.0"/>
      <point x="114.0" y="684.0"/>
    </contour>
    <contour>
      <point x="211.0" y="608.0" type="qcurve" smooth="yes"/>
      <point x="166.0" y="608.0"/>
      <point x="166.0" y="608.0"/>
      <point x="166.0" y="613.0" type="qcurve"/>
      <point x="164.0" y="644.0"/>
      <point x="219.0" y="684.0"/>
      <point x="246.0" y="684.0" type="qcurve"/>
      <point x="271.0" y="684.0"/>
      <point x="271.0" y="684.0"/>
      <point x="252.0" y="646.0" type="qcurve"/>
      <point x="255.0" y="608.0"/>
      <point x="255.0" y="608.0"/>
    </contour>
    <contour>
      <point x="246.0" y="684.0" type="qcurve"/>
      <point x="223.0" y="684.0"/>
      <point x="164.0" y="724.0"/>
      <point x="165.0" y="757.0" type="qcurve"/>
      <point x="166.0" y="760.0"/>
      <point x="166.0" y="760.0"/>
      <point x="209.0" y="760.0" type="qcurve" smooth="yes"/>
      <point x="255.0" y="760.0"/>
      <point x="255.0" y="760.0"/>
      <point x="252.0" y="722.0" type="qcurve"/>
      <point x="271.0" y="684.0"/>
      <point x="271.0" y="684.0"/>
    </contour>
    <contour>
      <point x="690.8" y="-23.4" type="qcurve"/>
      <point x="597.1" y="-4.6"/>
      <point x="401.9" y="75.3"/>
      <point x="320.8" y="146.2" type="qcurve" smooth="yes"/>
      <point x="228.5" y="225.6"/>
      <point x="108.2" y="438.0"/>
      <point x="90.5" y="558.6" type="qcurve"/>
      <point x="83.2" y="601.9"/>
      <point x="83.1" y="601.9"/>
      <point x="121.0" y="605.2" type="qcurve"/>
      <point x="161.5" y="608.3"/>
      <point x="170.1" y="605.1"/>
      <point x="175.1" y="566.9" type="qcurve"/>
      <point x="194.1" y="461.4"/>
      <point x="294.8" y="275.8"/>
      <point x="377.0" y="201.6" type="qcurve"/>
      <point x="445.6" y="140.4"/>
      <point x="608.1" y="71.2"/>
      <point x="695.4" y="45.7" type="qcurve"/>
      <point x="737.7" y="35.7"/>
      <point x="737.7" y="35.8"/>
      <point x="733.6" y="3.3999999999999986" type="qcurve"/>
      <point x="729.5" y="-30.8"/>
      <point x="729.5" y="-30.8"/>
    </contour>
    <contour>
      <point x="695.2" y="63.3" type="qcurve"/>
      <point x="606.2" y="72.3"/>
      <point x="445.6" y="140.4"/>
      <point x="377.0" y="201.6" type="qcurve"/>
      <point x="294.8" y="275.8"/>
      <point x="194.1" y="461.8"/>
      <point x="175.3" y="567.0" type="qcurve"/>
      <point x="172.3" y="607.7"/>
      <point x="178.6" y="608.2"/>
      <point x="218.1" y="606.7" type="qcurve"/>
      <point x="261.0" y="604.5"/>
      <point x="258.1" y="601.1"/>
      <point x="262.4" y="565.3" type="qcurve"/>
      <point x="277.7" y="481.2"/>
      <point x="359.0" y="324.8"/>
      <point x="424.8" y="262.4" type="qcurve" smooth="yes"/>
      <point x="490.9" y="200.5"/>
      <point x="615.0" y="142.6"/>
      <point x="693.4" y="131.5" type="qcurve"/>
      <point x="730.9" y="130.6"/>
      <point x="730.9" y="130.7"/>
      <point x="734.7" y="92.9" type="qcurve"/>
      <point x="738.4" y="59.7"/>
      <point x="738.3" y="59.7"/>
    </contour>
    <contour>
      <point x="121.1" y="763.2" type="qcurve"/>
      <point x="83.2" y="766.5"/>
      <point x="83.3" y="766.5"/>
      <point x="90.6" y="809.8" type="qcurve"/>
      <point x="105.6" y="912.4"/>
      <point x="205.5" y="1116.3"/>
      <point x="287.9" y="1196.6" type="qcurve" smooth="yes"/>
      <point x="371.8" y="1278.6"/>
      <point x="578.3" y="1383.8"/>
      <point x="690.9" y="1400.8" type="qcurve"/>
      <point x="729.6" y="1406.4"/>
      <point x="729.6" y="1406.4"/>
      <point x="733.7" y="1370.4" type="qcurve"/>
      <point x="737.8" y="1336.2"/>
      <point x="737.8" y="1336.3"/>
      <point x="700.0" y="1329.0" type="qcurve"/>
      <point x="605.5" y="1308.9"/>
      <point x="424.5" y="1221.1"/>
      <point x="348.7" y="1149.1" type="qcurve"/>
      <point x="275.5" y="1077.6"/>
      <point x="189.7" y="896.2"/>
      <point x="173.4" y="802.4" type="qcurve"/>
      <point x="168.4" y="763.3"/>
      <point x="159.8" y="760.1"/>
    </contour>
    <contour>
      <point x="218.2" y="761.7" type="qcurve"/>
      <point x="176.9" y="760.2"/>
      <point x="170.6" y="760.7"/>
      <point x="173.6" y="802.3" type="qcurve"/>
      <point x="189.7" y="895.8"/>
      <point x="275.5" y="1077.6"/>
      <point x="348.7" y="1149.1" type="qcurve"/>
      <point x="424.5" y="1221.1"/>
      <point x="603.6" y="1307.8"/>
      <point x="699.8" y="1311.4" type="qcurve"/>
      <point x="738.4" y="1312.3"/>
      <point x="738.5" y="1312.3"/>
      <point x="734.8" y="1277.3" type="qcurve"/>
      <point x="731.0" y="1237.7"/>
      <point x="731.0" y="1237.8"/>
      <point x="692.6" y="1236.0" type="qcurve"/>
      <point x="611.5" y="1224.0"/>
      <point x="458.1" y="1152.0"/>
      <point x="400.1" y="1092.8" type="qcurve" smooth="yes"/>
      <point x="343.3" y="1034.0"/>
      <point x="276.0" y="882.7"/>
      <point x="262.5" y="804.0" type="qcurve"/>
      <point x="258.2" y="767.3"/>
      <point x="261.1" y="763.9"/>
    </contour>
  </outline>
</glyph>
<glyph name="CapCrossbarElement" format="1">
  <advance width="1078.0"/>
  <outline>
    <contour>
      <point x="169.0" y="609.0" type="qcurve"/>
      <point x="129.0" y="609.0"/>
      <point x="129.0" y="609.0"/>
      <point x="129.0" y="647.0" type="qcurve" smooth="yes"/>
      <point x="129.0" y="685.0"/>
      <point x="129.0" y="685.0"/>
      <point x="169.0" y="685.0" type="qcurve"/>
      <point x="287.0" y="685.0"/>
      <point x="421.0" y="685.0"/>
      <point x="539.0" y="685.0" type="qcurve" smooth="yes"/>
      <point x="657.0" y="685.0"/>
      <point x="791.0" y="685.0"/>
      <point x="909.0" y="685.0" type="qcurve" smooth="yes"/>
      <point x="949.0" y="685.0"/>
      <point x="949.0" y="685.0"/>
      <point x="949.0" y="647.0" type="qcurve" smooth="yes"/>
      <point x="949.0" y="609.0"/>
      <point x="949.0" y="609.0"/>
      <point x="909.0" y="609.0" type="qcurve"/>
      <point x="791.0" y="609.0"/>
      <point x="656.0" y="609.0"/>
      <point x="539.0" y="609.0" type="qcurve"/>
      <point x="420.0" y="609.0"/>
      <point x="287.0" y="609.0"/>
    </contour>
    <contour>
      <point x="169.0" y="684.0" type="qcurve"/>
      <point x="129.0" y="684.0"/>
      <point x="129.0" y="684.0"/>
      <point x="129.0" y="722.0" type="qcurve" smooth="yes"/>
      <point x="129.0" y="760.0"/>
      <point x="129.0" y="760.0"/>
      <point x="169.0" y="760.0" type="qcurve"/>
      <point x="287.0" y="760.0"/>
      <point x="421.0" y="760.0"/>
      <point x="539.0" y="760.0" type="qcurve" smooth="yes"/>
      <point x="657.0" y="760.0"/>
      <point x="791.0" y="760.0"/>
      <point x="909.0" y="760.0" type="qcurve" smooth="yes"/>
      <point x="949.0" y="760.0"/>
      <point x="949.0" y="760.0"/>
      <point x="949.0" y="722.0" type="qcurve" smooth="yes"/>
      <point x="949.0" y="684.0"/>
      <point x="949.0" y="684.0"/>
      <point x="909.0" y="684.0" type="qcurve"/>
      <point x="791.0" y="684.0"/>
      <point x="656.0" y="684.0"/>
      <point x="539.0" y="684.0" type="qcurve"/>
      <point x="420.0" y="684.0"/>
      <point x="287.0" y="684.0"/>
    </contour>
  </outline>
</glyph>
<glyph name="CapStemPattern" format="1">
  <advance width="656.0"/>
  <outline>
    <contour>
      <point x="244.0" y="608.0" type="qcurve" smooth="yes"/>
      <point x="191.0" y="608.0"/>
      <point x="191.0" y="608.0"/>
      <point x="191.0" y="646.0" type="qcurve"/>
      <point x="191.0" y="684.0"/>
      <point x="191.0" y="684.0"/>
      <point x="256.0" y="684.0" type="qcurve"/>
      <point x="268.0" y="685.0"/>
      <point x="328.0" y="640.0"/>
      <point x="328.0" y="613.0" type="qcurve"/>
      <point x="328.0" y="608.0"/>
      <point x="328.0" y="608.0"/>
    </contour>
    <contour>
      <point x="256.0" y="684.0" type="qcurve"/>
      <point x="246.0" y="684.0"/>
      <point x="246.0" y="684.0"/>
      <point x="246.0" y="722.0" type="qcurve"/>
      <point x="246.0" y="745.0"/>
      <point x="264.0" y="760.0"/>
      <point x="287.0" y="760.0" type="qcurve" smooth="yes"/>
      <point x="328.0" y="760.0"/>
      <point x="328.0" y="760.0"/>
      <point x="328.0" y="755.0" type="qcurve"/>
      <point x="328.0" y="728.0"/>
      <point x="268.0" y="685.0"/>
    </contour>
    <contour>
      <point x="369.0" y="608.0" type="qcurve" smooth="yes"/>
      <point x="328.0" y="608.0"/>
      <point x="328.0" y="608.0"/>
      <point x="328.0" y="613.0" type="qcurve"/>
      <point x="328.0" y="640.0"/>
      <point x="388.0" y="685.0"/>
      <point x="405.0" y="684.0" type="qcurve"/>
      <point x="410.0" y="684.0"/>
      <point x="410.0" y="684.0"/>
      <point x="410.0" y="646.0" type="qcurve"/>
      <point x="410.0" y="625.0"/>
      <point x="394.0" y="608.0"/>
    </contour>
    <contour>
      <point x="405.0" y="684.0" type="qcurve"/>
      <point x="388.0" y="685.0"/>
      <point x="328.0" y="728.0"/>
      <point x="328.0" y="755.0" type="qcurve"/>
      <point x="328.0" y="760.0"/>
      <point x="328.0" y="760.0"/>
      <point x="368.0" y="760.0" type="qcurve"/>
      <point x="424.0" y="760.0"/>
      <point x="424.0" y="760.0"/>
      <point x="424.0" y="722.0" type="qcurve"/>
      <point x="424.0" y="684.0"/>
      <point x="424.0" y="684.0"/>
    </contour>
    <contour>
      <point x="287.0" y="1216.0" type="qcurve" smooth="yes"/>
      <point x="246.0" y="1216.0"/>
      <point x="246.0" y="1216.0"/>
      <point x="246.0" y="1254.0" type="qcurve"/>
      <point x="246.0" y="1292.0"/>
      <point x="246.0" y="1292.0"/>
      <point x="287.0" y="1292.0" type="qcurve" smooth="yes"/>
      <point x="328.0" y="1292.0"/>
      <point x="328.0" y="1292.0"/>
      <point x="328.0" y="1254.0" type="qcurve"/>
      <point x="328.0" y="1216.0"/>
      <point x="328.0" y="1216.0"/>
    </contour>
    <contour>
      <point x="287.0" y="1292.0" type="qcurve" smooth="yes"/>
      <point x="246.0" y="1292.0"/>
      <point x="246.0" y="1292.0"/>
      <point x="246.0" y="1330.0" type="qcurve"/>
      <point x="246.0" y="1368.0"/>
      <point x="246.0" y="1368.0"/>
      <point x="287.0" y="1368.0" type="qcurve" smooth="yes"/>
      <point x="328.0" y="1368.0"/>
      <point x="328.0" y="1368.0"/>
      <point x="328.0" y="1330.0" type="qcurve"/>
      <point x="328.0" y="1292.0"/>
      <point x="328.0" y="1292.0"/>
    </contour>
    <contour>
      <point x="369.0" y="1216.0" type="qcurve" smooth="yes"/>
      <point x="328.0" y="1216.0"/>
      <point x="328.0" y="1216.0"/>
      <point x="328.0" y="1254.0" type="qcurve"/>
      <point x="328.0" y="1292.0"/>
      <point x="328.0" y="1292.0"/>
      <point x="369.0" y="1292.0" type="qcurve" smooth="yes"/>
      <point x="410.0" y="1292.0"/>
      <point x="410.0" y="1292.0"/>
      <point x="410.0" y="1254.0" type="qcurve"/>
      <point x="410.0" y="1216.0"/>
      <point x="410.0" y="1216.0"/>
    </contour>
    <contour>
      <point x="369.0" y="1292.0" type="qcurve" smooth="yes"/>
      <point x="328.0" y="1292.0"/>
      <point x="328.0" y="1292.0"/>
      <point x="328.0" y="1330.0" type="qcurve"/>
      <point x="328.0" y="1368.0"/>
      <point x="328.0" y="1368.0"/>
      <point x="369.0" y="1368.0" type="qcurve" smooth="yes"/>
      <point x="410.0" y="1368.0"/>
      <point x="410.0" y="1368.0"/>
      <point x="410.0" y="1330.0" type="qcurve"/>
      <point x="410.0" y="1292.0"/>
      <point x="410.0" y="1292.0"/>
    </contour>
    <contour>
      <point x="274.3" y="764.1" type="qcurve" smooth="yes"/>
      <point x="237.4" y="768.2"/>
      <point x="237.4" y="768.2"/>
      <point x="241.2" y="802.4" type="qcurve" smooth="yes"/>
      <point x="245.0" y="836.6"/>
      <point x="246.0" y="881.0"/>
      <point x="246.0" y="991.6" type="qcurve" smooth="yes"/>
      <point x="246.0" y="1103.0"/>
      <point x="246.0" y="1140.0"/>
      <point x="246.0" y="1178.0" type="qcurve" smooth="yes"/>
      <point x="246.0" y="1216.0"/>
      <point x="246.0" y="1216.0"/>
      <point x="287.0" y="1216.0" type="qcurve" smooth="yes"/>
      <point x="328.0" y="1216.0"/>
      <point x="328.0" y="1216.0"/>
      <point x="328.0" y="1177.0" type="qcurve" smooth="yes"/>
      <point x="328.0" y="1138.7"/>
      <point x="328.0" y="1088.9"/>
      <point x="328.0" y="986.1" type="qcurve" smooth="yes"/>
      <point x="328.0" y="871.8"/>
      <point x="321.1" y="828.4"/>
      <point x="315.0" y="794.2" type="qcurve" smooth="yes"/>
      <point x="311.2" y="760.0"/>
      <point x="311.2" y="760.0"/>
    </contour>
    <contour>
      <point x="369.0" y="760.0" type="qcurve" smooth="yes"/>
      <point x="328.0" y="760.0"/>
      <point x="328.0" y="760.0"/>
      <point x="328.0" y="798.0" type="qcurve" smooth="yes"/>
      <point x="328.0" y="836.0"/>
      <point x="328.0" y="893.3"/>
      <point x="328.0" y="999.9" type="qcurve" smooth="yes"/>
      <point x="328.0" y="1106.3"/>
      <point x="333.0" y="1147.6"/>
      <point x="341.1" y="1181.8" type="qcurve" smooth="yes"/>
      <point x="344.9" y="1216.0"/>
      <point x="344.9" y="1216.0"/>
      <point x="381.8" y="1211.9" type="qcurve" smooth="yes"/>
      <point x="418.7" y="1207.8"/>
      <point x="418.7" y="1207.8"/>
      <point x="414.9" y="1173.6" type="qcurve" smooth="yes"/>
      <point x="411.1" y="1139.4"/>
      <point x="410.0" y="1100.4"/>
      <point x="410.0" y="993.3" type="qcurve" smooth="yes"/>
      <point x="410.0" y="876.5"/>
      <point x="410.0" y="836.0"/>
      <point x="410.0" y="798.0" type="qcurve" smooth="yes"/>
      <point x="410.0" y="760.0"/>
      <point x="410.0" y="760.0"/>
    </contour>
    <contour>
      <point x="274.3" y="156.1" type="qcurve" smooth="yes"/>
      <point x="237.4" y="160.2"/>
      <point x="237.4" y="160.2"/>
      <point x="241.2" y="194.4" type="qcurve" smooth="yes"/>
      <point x="245.0" y="228.6"/>
      <point x="246.0" y="269.4"/>
      <point x="246.0" y="380.0" type="qcurve" smooth="yes"/>
      <point x="246.0" y="491.4"/>
      <point x="246.0" y="532.0"/>
      <point x="246.0" y="570.0" type="qcurve" smooth="yes"/>
      <point x="246.0" y="608.0"/>
      <point x="246.0" y="608.0"/>
      <point x="287.0" y="608.0" type="qcurve" smooth="yes"/>
      <point x="328.1" y="608.0"/>
      <point x="328.0" y="608.0"/>
      <point x="328.0" y="569.0" type="qcurve" smooth="yes"/>
      <point x="328.0" y="530.7"/>
      <point x="328.0" y="477.3"/>
      <point x="328.0" y="374.5" type="qcurve" smooth="yes"/>
      <point x="328.0" y="260.2"/>
      <point x="321.1" y="220.4"/>
      <point x="315.0" y="186.2" type="qcurve" smooth="yes"/>
      <point x="311.2" y="152.0"/>
      <point x="311.2" y="152.0"/>
    </contour>
    <contour>
      <point x="369.0" y="152.0" type="qcurve" smooth="yes"/>
      <point x="328.0" y="152.0"/>
      <point x="328.0" y="152.0"/>
      <point x="328.0" y="190.0" type="qcurve" smooth="yes"/>
      <point x="328.0" y="228.0"/>
      <point x="328.0" y="281.7"/>
      <point x="328.0" y="388.3" type="qcurve" smooth="yes"/>
      <point x="328.0" y="494.7"/>
      <point x="333.0" y="539.6"/>
      <point x="341.1" y="573.8" type="qcurve" smooth="yes"/>
      <point x="344.9" y="608.0"/>
      <point x="344.9" y="608.0"/>
      <point x="381.8" y="603.9" type="qcurve"/>
      <point x="418.7" y="599.8"/>
      <point x="418.7" y="599.8"/>
      <point x="414.9" y="565.6" type="qcurve" smooth="yes"/>
      <point x="411.1" y="531.4"/>
      <point x="410.0" y="488.8"/>
      <point x="410.0" y="381.7" type="qcurve" smooth="yes"/>
      <point x="410.0" y="264.9"/>
      <point x="410.0" y="228.0"/>
      <point x="410.0" y="190.0" type="qcurve" smooth="yes"/>
      <point x="410.0" y="152.0"/>
      <point x="410.0" y="152.0"/>
    </contour>
    <contour>
      <point x="287.0" y="0.0" type="qcurve" smooth="yes"/>
      <point x="246.0" y="0.0"/>
      <point x="246.0" y="0.0"/>
      <point x="246.0" y="38.0" type="qcurve"/>
      <point x="246.0" y="76.0"/>
      <point x="246.0" y="76.0"/>
      <point x="250.0" y="76.0" type="qcurve"/>
      <point x="282.0" y="76.0"/>
      <point x="328.0" y="31.0"/>
      <point x="328.0" y="3.0" type="qcurve"/>
      <point x="328.0" y="0.0"/>
      <point x="328.0" y="0.0"/>
    </contour>
    <contour>
      <point x="250.0" y="76.0" type="qcurve"/>
      <point x="246.0" y="76.0"/>
      <point x="246.0" y="76.0"/>
      <point x="246.0" y="114.0" type="qcurve"/>
      <point x="246.0" y="152.0"/>
      <point x="246.0" y="152.0"/>
      <point x="287.0" y="152.0" type="qcurve" smooth="yes"/>
      <point x="328.0" y="152.0"/>
      <point x="328.0" y="152.0"/>
      <point x="328.0" y="148.0" type="qcurve"/>
      <point x="328.0" y="109.0"/>
      <point x="282.0" y="76.0"/>
    </contour>
    <contour>
      <point x="369.0" y="0.0" type="qcurve" smooth="yes"/>
      <point x="328.0" y="0.0"/>
      <point x="328.0" y="0.0"/>
      <point x="328.0" y="3.0" type="qcurve"/>
      <point x="328.0" y="32.0"/>
      <point x="372.0" y="76.0"/>
      <point x="407.0" y="76.0" type="qcurve"/>
      <point x="410.0" y="76.0"/>
      <point x="410.0" y="76.0"/>
      <point x="410.0" y="38.0" type="qcurve"/>
      <point x="410.0" y="0.0"/>
      <point x="410.0" y="0.0"/>
    </contour>
    <contour>
      <point x="407.0" y="76.0" type="qcurve"/>
      <point x="372.0" y="76.0"/>
      <point x="328.0" y="111.0"/>
      <point x="328.0" y="148.0" type="qcurve"/>
      <point x="328.0" y="152.0"/>
      <point x="328.0" y="152.0"/>
      <point x="369.0" y="152.0" type="qcurve" smooth="yes"/>
      <point x="410.0" y="152.0"/>
      <point x="410.0" y="152.0"/>
      <point x="410.0" y="114.0" type="qcurve"/>
      <point x="410.0" y="76.0"/>
      <point x="410.0" y="76.0"/>
    </contour>
  </outline>
</glyph>
